G04 #@! TF.FileFunction,Copper,L2,Bot,Signal*
%FSLAX46Y46*%
G04 Gerber Fmt 4.6, Leading zero omitted, Abs format (unit mm)*
G04 Created by KiCad (PCBNEW 4.0.3-1.fc24-product) date Sun Feb 19 21:37:44 2017*
%MOMM*%
%LPD*%
G01*
G04 APERTURE LIST*
%ADD10C,0.100000*%
%ADD11R,2.032000X2.032000*%
%ADD12O,2.032000X2.032000*%
%ADD13R,1.727200X1.727200*%
%ADD14O,1.727200X1.727200*%
%ADD15R,1.727200X2.032000*%
%ADD16O,1.727200X2.032000*%
%ADD17R,2.032000X1.727200*%
%ADD18O,2.032000X1.727200*%
%ADD19R,1.300000X1.500000*%
%ADD20R,1.550000X0.600000*%
%ADD21R,1.175000X1.175000*%
%ADD22C,0.600000*%
%ADD23C,0.250000*%
%ADD24C,0.500000*%
%ADD25C,0.254000*%
G04 APERTURE END LIST*
D10*
D11*
X27940000Y-36830000D03*
D12*
X27940000Y-34290000D03*
D11*
X27940000Y-68580000D03*
D12*
X27940000Y-66040000D03*
D13*
X44450000Y-78105000D03*
D14*
X44450000Y-75565000D03*
X46990000Y-78105000D03*
X46990000Y-75565000D03*
X49530000Y-78105000D03*
X49530000Y-75565000D03*
X52070000Y-78105000D03*
X52070000Y-75565000D03*
X54610000Y-78105000D03*
X54610000Y-75565000D03*
X57150000Y-78105000D03*
X57150000Y-75565000D03*
X59690000Y-78105000D03*
X59690000Y-75565000D03*
X62230000Y-78105000D03*
X62230000Y-75565000D03*
X64770000Y-78105000D03*
X64770000Y-75565000D03*
X67310000Y-78105000D03*
X67310000Y-75565000D03*
X69850000Y-78105000D03*
X69850000Y-75565000D03*
X72390000Y-78105000D03*
X72390000Y-75565000D03*
X74930000Y-78105000D03*
X74930000Y-75565000D03*
X77470000Y-78105000D03*
X77470000Y-75565000D03*
X80010000Y-78105000D03*
X80010000Y-75565000D03*
X82550000Y-78105000D03*
X82550000Y-75565000D03*
X85090000Y-78105000D03*
X85090000Y-75565000D03*
X87630000Y-78105000D03*
X87630000Y-75565000D03*
X90170000Y-78105000D03*
X90170000Y-75565000D03*
X92710000Y-78105000D03*
X92710000Y-75565000D03*
X95250000Y-78105000D03*
X95250000Y-75565000D03*
X97790000Y-78105000D03*
X97790000Y-75565000D03*
X100330000Y-78105000D03*
X100330000Y-75565000D03*
D13*
X44450000Y-29845000D03*
D14*
X44450000Y-27305000D03*
X46990000Y-29845000D03*
X46990000Y-27305000D03*
X49530000Y-29845000D03*
X49530000Y-27305000D03*
X52070000Y-29845000D03*
X52070000Y-27305000D03*
X54610000Y-29845000D03*
X54610000Y-27305000D03*
X57150000Y-29845000D03*
X57150000Y-27305000D03*
X59690000Y-29845000D03*
X59690000Y-27305000D03*
X62230000Y-29845000D03*
X62230000Y-27305000D03*
X64770000Y-29845000D03*
X64770000Y-27305000D03*
X67310000Y-29845000D03*
X67310000Y-27305000D03*
X69850000Y-29845000D03*
X69850000Y-27305000D03*
X72390000Y-29845000D03*
X72390000Y-27305000D03*
X74930000Y-29845000D03*
X74930000Y-27305000D03*
X77470000Y-29845000D03*
X77470000Y-27305000D03*
X80010000Y-29845000D03*
X80010000Y-27305000D03*
X82550000Y-29845000D03*
X82550000Y-27305000D03*
X85090000Y-29845000D03*
X85090000Y-27305000D03*
X87630000Y-29845000D03*
X87630000Y-27305000D03*
X90170000Y-29845000D03*
X90170000Y-27305000D03*
X92710000Y-29845000D03*
X92710000Y-27305000D03*
X95250000Y-29845000D03*
X95250000Y-27305000D03*
X97790000Y-29845000D03*
X97790000Y-27305000D03*
X100330000Y-29845000D03*
X100330000Y-27305000D03*
D13*
X106680000Y-47625000D03*
D14*
X109220000Y-47625000D03*
X106680000Y-50165000D03*
X109220000Y-50165000D03*
X106680000Y-52705000D03*
X109220000Y-52705000D03*
X106680000Y-55245000D03*
X109220000Y-55245000D03*
X106680000Y-57785000D03*
X109220000Y-57785000D03*
D15*
X96520000Y-34290000D03*
D16*
X93980000Y-34290000D03*
X91440000Y-34290000D03*
X88900000Y-34290000D03*
D17*
X107950000Y-35560000D03*
D18*
X107950000Y-38100000D03*
X107950000Y-40640000D03*
D17*
X102235000Y-35560000D03*
D18*
X102235000Y-38100000D03*
X102235000Y-40640000D03*
D17*
X102870000Y-64135000D03*
D18*
X102870000Y-66675000D03*
X102870000Y-69215000D03*
D17*
X107950000Y-64135000D03*
D18*
X107950000Y-66675000D03*
X107950000Y-69215000D03*
D17*
X83185000Y-61595000D03*
D18*
X83185000Y-59055000D03*
X83185000Y-56515000D03*
X83185000Y-53975000D03*
X83185000Y-51435000D03*
X83185000Y-48895000D03*
X83185000Y-46355000D03*
X83185000Y-43815000D03*
X83185000Y-41275000D03*
X83185000Y-38735000D03*
D19*
X55880000Y-48180000D03*
X55880000Y-50880000D03*
D20*
X64295000Y-44450000D03*
X64295000Y-45720000D03*
X64295000Y-46990000D03*
X64295000Y-48260000D03*
X58895000Y-48260000D03*
X58895000Y-46990000D03*
X58895000Y-45720000D03*
X58895000Y-44450000D03*
D21*
X61007500Y-46942500D03*
X61007500Y-45767500D03*
X62182500Y-46942500D03*
X62182500Y-45767500D03*
D22*
X73660000Y-43815000D03*
X67945000Y-43815000D03*
X88900000Y-56515000D03*
X101600000Y-48260000D03*
X73025000Y-71120000D03*
X69850000Y-71120000D03*
X104775000Y-43815000D03*
X101600000Y-57785000D03*
X67310000Y-36195000D03*
X92075000Y-66675000D03*
X57150000Y-45720000D03*
X54610000Y-43180000D03*
X55245000Y-44450000D03*
X57785000Y-44450000D03*
X66040000Y-46990000D03*
X66675000Y-45720000D03*
X64135000Y-49530000D03*
D23*
X69215000Y-43815000D02*
X73660000Y-43815000D01*
X67945000Y-43815000D02*
X69215000Y-43815000D01*
X55880000Y-50880000D02*
X56275000Y-50880000D01*
X56275000Y-50880000D02*
X58895000Y-48260000D01*
X83185000Y-61595000D02*
X82550000Y-61595000D01*
X82550000Y-61595000D02*
X74295000Y-69850000D01*
X52705000Y-69850000D02*
X48260000Y-74295000D01*
X74295000Y-69850000D02*
X52705000Y-69850000D01*
X48260000Y-74295000D02*
X46990000Y-75565000D01*
X46990000Y-78105000D02*
X46990000Y-75565000D01*
X49530000Y-78105000D02*
X49530000Y-75565000D01*
X52070000Y-78105000D02*
X52070000Y-75565000D01*
X95885000Y-73025000D02*
X100965000Y-67945000D01*
X100965000Y-66040000D02*
X102870000Y-64135000D01*
X100965000Y-67945000D02*
X100965000Y-66040000D01*
X62230000Y-73025000D02*
X59690000Y-75565000D01*
X95885000Y-73025000D02*
X62230000Y-73025000D01*
X88900000Y-56515000D02*
X83185000Y-56515000D01*
X69850000Y-71120000D02*
X73025000Y-71120000D01*
X104775000Y-45085000D02*
X104775000Y-43815000D01*
X101600000Y-48260000D02*
X104775000Y-45085000D01*
X107950000Y-60325000D02*
X107950000Y-60960000D01*
X107950000Y-53975000D02*
X107950000Y-60325000D01*
X109220000Y-52705000D02*
X107950000Y-53975000D01*
X76200000Y-76835000D02*
X74930000Y-78105000D01*
X104140000Y-76835000D02*
X76200000Y-76835000D01*
X106045000Y-74930000D02*
X104140000Y-76835000D01*
X106045000Y-62865000D02*
X106045000Y-74930000D01*
X107950000Y-60960000D02*
X106045000Y-62865000D01*
X101600000Y-57785000D02*
X101600000Y-55245000D01*
X101600000Y-55245000D02*
X106680000Y-50165000D01*
X104775000Y-71755000D02*
X104775000Y-54610000D01*
X104775000Y-54610000D02*
X106680000Y-52705000D01*
X81915000Y-73660000D02*
X80010000Y-75565000D01*
X102870000Y-73660000D02*
X81915000Y-73660000D01*
X104775000Y-71755000D02*
X102870000Y-73660000D01*
D24*
X86360000Y-36195000D02*
X67310000Y-36195000D01*
X92075000Y-41910000D02*
X86360000Y-36195000D01*
X92075000Y-66675000D02*
X92075000Y-41910000D01*
X58895000Y-45720000D02*
X57150000Y-45720000D01*
X64295000Y-44450000D02*
X64295000Y-43975000D01*
X63500000Y-43180000D02*
X54610000Y-43180000D01*
X64295000Y-43975000D02*
X63500000Y-43180000D01*
D23*
X58895000Y-44450000D02*
X57785000Y-44450000D01*
X57785000Y-44450000D02*
X55245000Y-44450000D01*
X64295000Y-46990000D02*
X66040000Y-46990000D01*
X64295000Y-45720000D02*
X66675000Y-45720000D01*
X64295000Y-48260000D02*
X64295000Y-49370000D01*
X64295000Y-49370000D02*
X64135000Y-49530000D01*
X55880000Y-48180000D02*
X55960000Y-48180000D01*
X55960000Y-48180000D02*
X57150000Y-46990000D01*
X57150000Y-46990000D02*
X58895000Y-46990000D01*
D25*
G36*
X43243179Y-26416510D02*
X42995032Y-26945973D01*
X43115531Y-27178000D01*
X44323000Y-27178000D01*
X44323000Y-27158000D01*
X44577000Y-27158000D01*
X44577000Y-27178000D01*
X44597000Y-27178000D01*
X44597000Y-27432000D01*
X44577000Y-27432000D01*
X44577000Y-29718000D01*
X44597000Y-29718000D01*
X44597000Y-29972000D01*
X44577000Y-29972000D01*
X44577000Y-31184850D01*
X44735750Y-31343600D01*
X45439910Y-31343600D01*
X45673299Y-31246927D01*
X45851927Y-31068298D01*
X45916263Y-30912977D01*
X45930330Y-30934029D01*
X46416511Y-31258885D01*
X46990000Y-31372959D01*
X47563489Y-31258885D01*
X48049670Y-30934029D01*
X48260000Y-30619248D01*
X48470330Y-30934029D01*
X48956511Y-31258885D01*
X49530000Y-31372959D01*
X50103489Y-31258885D01*
X50589670Y-30934029D01*
X50800000Y-30619248D01*
X51010330Y-30934029D01*
X51496511Y-31258885D01*
X52070000Y-31372959D01*
X52643489Y-31258885D01*
X53129670Y-30934029D01*
X53340000Y-30619248D01*
X53550330Y-30934029D01*
X54036511Y-31258885D01*
X54610000Y-31372959D01*
X55183489Y-31258885D01*
X55669670Y-30934029D01*
X55880000Y-30619248D01*
X56090330Y-30934029D01*
X56576511Y-31258885D01*
X57150000Y-31372959D01*
X57723489Y-31258885D01*
X58209670Y-30934029D01*
X58420000Y-30619248D01*
X58630330Y-30934029D01*
X59116511Y-31258885D01*
X59690000Y-31372959D01*
X60263489Y-31258885D01*
X60749670Y-30934029D01*
X60960000Y-30619248D01*
X61170330Y-30934029D01*
X61656511Y-31258885D01*
X62230000Y-31372959D01*
X62803489Y-31258885D01*
X63289670Y-30934029D01*
X63500000Y-30619248D01*
X63710330Y-30934029D01*
X64196511Y-31258885D01*
X64770000Y-31372959D01*
X65343489Y-31258885D01*
X65829670Y-30934029D01*
X66040000Y-30619248D01*
X66250330Y-30934029D01*
X66736511Y-31258885D01*
X67310000Y-31372959D01*
X67883489Y-31258885D01*
X68369670Y-30934029D01*
X68580000Y-30619248D01*
X68790330Y-30934029D01*
X69276511Y-31258885D01*
X69850000Y-31372959D01*
X70423489Y-31258885D01*
X70909670Y-30934029D01*
X71120000Y-30619248D01*
X71330330Y-30934029D01*
X71816511Y-31258885D01*
X72390000Y-31372959D01*
X72963489Y-31258885D01*
X73449670Y-30934029D01*
X73660000Y-30619248D01*
X73870330Y-30934029D01*
X74356511Y-31258885D01*
X74930000Y-31372959D01*
X75503489Y-31258885D01*
X75989670Y-30934029D01*
X76200000Y-30619248D01*
X76410330Y-30934029D01*
X76896511Y-31258885D01*
X77470000Y-31372959D01*
X78043489Y-31258885D01*
X78529670Y-30934029D01*
X78740000Y-30619248D01*
X78950330Y-30934029D01*
X79436511Y-31258885D01*
X80010000Y-31372959D01*
X80583489Y-31258885D01*
X81069670Y-30934029D01*
X81280000Y-30619248D01*
X81490330Y-30934029D01*
X81976511Y-31258885D01*
X82550000Y-31372959D01*
X83123489Y-31258885D01*
X83609670Y-30934029D01*
X83820000Y-30619248D01*
X84030330Y-30934029D01*
X84516511Y-31258885D01*
X85090000Y-31372959D01*
X85663489Y-31258885D01*
X86149670Y-30934029D01*
X86360000Y-30619248D01*
X86570330Y-30934029D01*
X87056511Y-31258885D01*
X87630000Y-31372959D01*
X88203489Y-31258885D01*
X88689670Y-30934029D01*
X88900000Y-30619248D01*
X89110330Y-30934029D01*
X89596511Y-31258885D01*
X90170000Y-31372959D01*
X90743489Y-31258885D01*
X91229670Y-30934029D01*
X91440000Y-30619248D01*
X91650330Y-30934029D01*
X92136511Y-31258885D01*
X92710000Y-31372959D01*
X93283489Y-31258885D01*
X93769670Y-30934029D01*
X93980000Y-30619248D01*
X94190330Y-30934029D01*
X94676511Y-31258885D01*
X95250000Y-31372959D01*
X95823489Y-31258885D01*
X96309670Y-30934029D01*
X96520000Y-30619248D01*
X96730330Y-30934029D01*
X97216511Y-31258885D01*
X97790000Y-31372959D01*
X98363489Y-31258885D01*
X98849670Y-30934029D01*
X99060000Y-30619248D01*
X99270330Y-30934029D01*
X99756511Y-31258885D01*
X100330000Y-31372959D01*
X100903489Y-31258885D01*
X101389670Y-30934029D01*
X101714526Y-30447848D01*
X101828600Y-29874359D01*
X101828600Y-29815641D01*
X101714526Y-29242152D01*
X101389670Y-28755971D01*
X101118828Y-28575000D01*
X101389670Y-28394029D01*
X101714526Y-27907848D01*
X101828600Y-27334359D01*
X101828600Y-27275641D01*
X101714526Y-26702152D01*
X101675824Y-26644230D01*
X103643053Y-27035536D01*
X107528376Y-29631627D01*
X110124464Y-33516947D01*
X111050000Y-38169927D01*
X111050000Y-67857115D01*
X109896129Y-72446662D01*
X107105562Y-76202464D01*
X103090133Y-78604469D01*
X101617372Y-78821621D01*
X101784968Y-78464027D01*
X101664469Y-78232000D01*
X100457000Y-78232000D01*
X100457000Y-78252000D01*
X100203000Y-78252000D01*
X100203000Y-78232000D01*
X97917000Y-78232000D01*
X97917000Y-78252000D01*
X97663000Y-78252000D01*
X97663000Y-78232000D01*
X97643000Y-78232000D01*
X97643000Y-77978000D01*
X97663000Y-77978000D01*
X97663000Y-77958000D01*
X97917000Y-77958000D01*
X97917000Y-77978000D01*
X100203000Y-77978000D01*
X100203000Y-77958000D01*
X100457000Y-77958000D01*
X100457000Y-77978000D01*
X101664469Y-77978000D01*
X101784968Y-77745973D01*
X101714210Y-77595000D01*
X104140000Y-77595000D01*
X104430839Y-77537148D01*
X104677401Y-77372401D01*
X106582401Y-75467401D01*
X106747148Y-75220839D01*
X106805000Y-74930000D01*
X106805000Y-70300850D01*
X107035680Y-70506954D01*
X107588087Y-70700184D01*
X107823000Y-70555924D01*
X107823000Y-69342000D01*
X108077000Y-69342000D01*
X108077000Y-70555924D01*
X108311913Y-70700184D01*
X108864320Y-70506954D01*
X109300732Y-70117036D01*
X109554709Y-69589791D01*
X109557358Y-69574026D01*
X109436217Y-69342000D01*
X108077000Y-69342000D01*
X107823000Y-69342000D01*
X107803000Y-69342000D01*
X107803000Y-69088000D01*
X107823000Y-69088000D01*
X107823000Y-69068000D01*
X108077000Y-69068000D01*
X108077000Y-69088000D01*
X109436217Y-69088000D01*
X109557358Y-68855974D01*
X109554709Y-68840209D01*
X109300732Y-68312964D01*
X108884931Y-67941461D01*
X109194415Y-67734670D01*
X109519271Y-67248489D01*
X109633345Y-66675000D01*
X109519271Y-66101511D01*
X109194415Y-65615330D01*
X109180087Y-65605757D01*
X109201317Y-65601762D01*
X109417441Y-65462690D01*
X109562431Y-65250490D01*
X109613440Y-64998600D01*
X109613440Y-63271400D01*
X109569162Y-63036083D01*
X109430090Y-62819959D01*
X109217890Y-62674969D01*
X108966000Y-62623960D01*
X107360842Y-62623960D01*
X108487401Y-61497401D01*
X108652148Y-61250839D01*
X108710000Y-60960000D01*
X108710000Y-59169210D01*
X108860973Y-59239968D01*
X109093000Y-59119469D01*
X109093000Y-57912000D01*
X109347000Y-57912000D01*
X109347000Y-59119469D01*
X109579027Y-59239968D01*
X110108490Y-58991821D01*
X110502688Y-58559947D01*
X110674958Y-58144026D01*
X110553817Y-57912000D01*
X109347000Y-57912000D01*
X109093000Y-57912000D01*
X109073000Y-57912000D01*
X109073000Y-57658000D01*
X109093000Y-57658000D01*
X109093000Y-57638000D01*
X109347000Y-57638000D01*
X109347000Y-57658000D01*
X110553817Y-57658000D01*
X110674958Y-57425974D01*
X110502688Y-57010053D01*
X110108490Y-56578179D01*
X109985772Y-56520664D01*
X110309029Y-56304670D01*
X110633885Y-55818489D01*
X110747959Y-55245000D01*
X110633885Y-54671511D01*
X110309029Y-54185330D01*
X109994248Y-53975000D01*
X110309029Y-53764670D01*
X110633885Y-53278489D01*
X110747959Y-52705000D01*
X110633885Y-52131511D01*
X110309029Y-51645330D01*
X109994248Y-51435000D01*
X110309029Y-51224670D01*
X110633885Y-50738489D01*
X110747959Y-50165000D01*
X110633885Y-49591511D01*
X110309029Y-49105330D01*
X109994248Y-48895000D01*
X110309029Y-48684670D01*
X110633885Y-48198489D01*
X110747959Y-47625000D01*
X110633885Y-47051511D01*
X110309029Y-46565330D01*
X109822848Y-46240474D01*
X109249359Y-46126400D01*
X109190641Y-46126400D01*
X108617152Y-46240474D01*
X108151558Y-46551574D01*
X108146762Y-46526083D01*
X108007690Y-46309959D01*
X107795490Y-46164969D01*
X107543600Y-46113960D01*
X105816400Y-46113960D01*
X105581083Y-46158238D01*
X105364959Y-46297310D01*
X105219969Y-46509510D01*
X105168960Y-46761400D01*
X105168960Y-48488600D01*
X105213238Y-48723917D01*
X105352310Y-48940041D01*
X105564510Y-49085031D01*
X105608131Y-49093864D01*
X105590971Y-49105330D01*
X105266115Y-49591511D01*
X105152041Y-50165000D01*
X105227225Y-50542973D01*
X101062599Y-54707599D01*
X100897852Y-54954161D01*
X100840000Y-55245000D01*
X100840000Y-57222537D01*
X100807808Y-57254673D01*
X100665162Y-57598201D01*
X100664838Y-57970167D01*
X100806883Y-58313943D01*
X101069673Y-58577192D01*
X101413201Y-58719838D01*
X101785167Y-58720162D01*
X102128943Y-58578117D01*
X102392192Y-58315327D01*
X102534838Y-57971799D01*
X102535162Y-57599833D01*
X102393117Y-57256057D01*
X102360000Y-57222882D01*
X102360000Y-55559802D01*
X105162454Y-52757348D01*
X105227225Y-53082973D01*
X104237599Y-54072599D01*
X104072852Y-54319161D01*
X104015000Y-54610000D01*
X104015000Y-62650083D01*
X103886000Y-62623960D01*
X101854000Y-62623960D01*
X101618683Y-62668238D01*
X101402559Y-62807310D01*
X101257569Y-63019510D01*
X101206560Y-63271400D01*
X101206560Y-64723638D01*
X100427599Y-65502599D01*
X100262852Y-65749161D01*
X100205000Y-66040000D01*
X100205000Y-67630198D01*
X95570198Y-72265000D01*
X62230000Y-72265000D01*
X61987414Y-72313254D01*
X61939160Y-72322852D01*
X61692599Y-72487599D01*
X60067973Y-74112225D01*
X59690000Y-74037041D01*
X59116511Y-74151115D01*
X58630330Y-74475971D01*
X58420000Y-74790752D01*
X58209670Y-74475971D01*
X57723489Y-74151115D01*
X57150000Y-74037041D01*
X56576511Y-74151115D01*
X56090330Y-74475971D01*
X55880000Y-74790752D01*
X55669670Y-74475971D01*
X55183489Y-74151115D01*
X54610000Y-74037041D01*
X54036511Y-74151115D01*
X53550330Y-74475971D01*
X53340000Y-74790752D01*
X53129670Y-74475971D01*
X52643489Y-74151115D01*
X52070000Y-74037041D01*
X51496511Y-74151115D01*
X51010330Y-74475971D01*
X50800000Y-74790752D01*
X50589670Y-74475971D01*
X50103489Y-74151115D01*
X49582348Y-74047454D01*
X53019802Y-70610000D01*
X69049367Y-70610000D01*
X68915162Y-70933201D01*
X68914838Y-71305167D01*
X69056883Y-71648943D01*
X69319673Y-71912192D01*
X69663201Y-72054838D01*
X70035167Y-72055162D01*
X70378943Y-71913117D01*
X70412118Y-71880000D01*
X72462537Y-71880000D01*
X72494673Y-71912192D01*
X72838201Y-72054838D01*
X73210167Y-72055162D01*
X73553943Y-71913117D01*
X73817192Y-71650327D01*
X73959838Y-71306799D01*
X73960162Y-70934833D01*
X73825944Y-70610000D01*
X74295000Y-70610000D01*
X74585839Y-70552148D01*
X74832401Y-70387401D01*
X82123064Y-63096738D01*
X82169000Y-63106040D01*
X84201000Y-63106040D01*
X84436317Y-63061762D01*
X84652441Y-62922690D01*
X84797431Y-62710490D01*
X84848440Y-62458600D01*
X84848440Y-60731400D01*
X84804162Y-60496083D01*
X84665090Y-60279959D01*
X84452890Y-60134969D01*
X84358073Y-60115768D01*
X84535732Y-59957036D01*
X84789709Y-59429791D01*
X84792358Y-59414026D01*
X84671217Y-59182000D01*
X83312000Y-59182000D01*
X83312000Y-59202000D01*
X83058000Y-59202000D01*
X83058000Y-59182000D01*
X81698783Y-59182000D01*
X81577642Y-59414026D01*
X81580291Y-59429791D01*
X81834268Y-59957036D01*
X82009845Y-60113907D01*
X81933683Y-60128238D01*
X81717559Y-60267310D01*
X81572569Y-60479510D01*
X81521560Y-60731400D01*
X81521560Y-61548638D01*
X73980198Y-69090000D01*
X52705000Y-69090000D01*
X52414160Y-69147852D01*
X52167599Y-69312599D01*
X47367973Y-74112225D01*
X46990000Y-74037041D01*
X46416511Y-74151115D01*
X45930330Y-74475971D01*
X45714336Y-74799228D01*
X45656821Y-74676510D01*
X45224947Y-74282312D01*
X44809026Y-74110042D01*
X44577000Y-74231183D01*
X44577000Y-75438000D01*
X44597000Y-75438000D01*
X44597000Y-75692000D01*
X44577000Y-75692000D01*
X44577000Y-77978000D01*
X44597000Y-77978000D01*
X44597000Y-78232000D01*
X44577000Y-78232000D01*
X44577000Y-78252000D01*
X44323000Y-78252000D01*
X44323000Y-78232000D01*
X43110150Y-78232000D01*
X42951400Y-78390750D01*
X42951400Y-79094909D01*
X43036352Y-79300000D01*
X31220861Y-79300000D01*
X29075500Y-78645710D01*
X27371133Y-77242707D01*
X27303166Y-77115091D01*
X42951400Y-77115091D01*
X42951400Y-77819250D01*
X43110150Y-77978000D01*
X44323000Y-77978000D01*
X44323000Y-75692000D01*
X43115531Y-75692000D01*
X42995032Y-75924027D01*
X43243179Y-76453490D01*
X43426119Y-76620471D01*
X43226701Y-76703073D01*
X43048073Y-76881702D01*
X42951400Y-77115091D01*
X27303166Y-77115091D01*
X26333412Y-75294271D01*
X26324849Y-75205973D01*
X42995032Y-75205973D01*
X43115531Y-75438000D01*
X44323000Y-75438000D01*
X44323000Y-74231183D01*
X44090974Y-74110042D01*
X43675053Y-74282312D01*
X43243179Y-74676510D01*
X42995032Y-75205973D01*
X26324849Y-75205973D01*
X26110000Y-72990654D01*
X26110000Y-67564000D01*
X26276560Y-67564000D01*
X26276560Y-69596000D01*
X26320838Y-69831317D01*
X26459910Y-70047441D01*
X26672110Y-70192431D01*
X26924000Y-70243440D01*
X28956000Y-70243440D01*
X29191317Y-70199162D01*
X29407441Y-70060090D01*
X29552431Y-69847890D01*
X29603440Y-69596000D01*
X29603440Y-67564000D01*
X29559162Y-67328683D01*
X29420090Y-67112559D01*
X29257052Y-67001160D01*
X29346385Y-66904818D01*
X29545975Y-66422944D01*
X29426836Y-66167000D01*
X28067000Y-66167000D01*
X28067000Y-66187000D01*
X27813000Y-66187000D01*
X27813000Y-66167000D01*
X26453164Y-66167000D01*
X26334025Y-66422944D01*
X26533615Y-66904818D01*
X26624097Y-67002398D01*
X26472559Y-67099910D01*
X26327569Y-67312110D01*
X26276560Y-67564000D01*
X26110000Y-67564000D01*
X26110000Y-65657056D01*
X26334025Y-65657056D01*
X26453164Y-65913000D01*
X27813000Y-65913000D01*
X27813000Y-64552633D01*
X28067000Y-64552633D01*
X28067000Y-65913000D01*
X29426836Y-65913000D01*
X29545975Y-65657056D01*
X29346385Y-65175182D01*
X28908379Y-64702812D01*
X28322946Y-64434017D01*
X28067000Y-64552633D01*
X27813000Y-64552633D01*
X27557054Y-64434017D01*
X26971621Y-64702812D01*
X26533615Y-65175182D01*
X26334025Y-65657056D01*
X26110000Y-65657056D01*
X26110000Y-59765000D01*
X45085000Y-59765000D01*
X45356705Y-59710954D01*
X45587046Y-59557046D01*
X45740954Y-59326705D01*
X45795000Y-59055000D01*
X45795000Y-51165750D01*
X54595000Y-51165750D01*
X54595000Y-51756309D01*
X54691673Y-51989698D01*
X54870301Y-52168327D01*
X55103690Y-52265000D01*
X55594250Y-52265000D01*
X55753000Y-52106250D01*
X55753000Y-51007000D01*
X56007000Y-51007000D01*
X56007000Y-52106250D01*
X56165750Y-52265000D01*
X56656310Y-52265000D01*
X56889699Y-52168327D01*
X57068327Y-51989698D01*
X57165000Y-51756309D01*
X57165000Y-51165750D01*
X57006250Y-51007000D01*
X56007000Y-51007000D01*
X55753000Y-51007000D01*
X54753750Y-51007000D01*
X54595000Y-51165750D01*
X45795000Y-51165750D01*
X45795000Y-43365167D01*
X53674838Y-43365167D01*
X53816883Y-43708943D01*
X54079673Y-43972192D01*
X54379332Y-44096622D01*
X54310162Y-44263201D01*
X54309838Y-44635167D01*
X54451883Y-44978943D01*
X54714673Y-45242192D01*
X55058201Y-45384838D01*
X55430167Y-45385162D01*
X55773943Y-45243117D01*
X55807118Y-45210000D01*
X56349367Y-45210000D01*
X56215162Y-45533201D01*
X56214838Y-45905167D01*
X56356883Y-46248943D01*
X56586369Y-46478829D01*
X56282638Y-46782560D01*
X55230000Y-46782560D01*
X54994683Y-46826838D01*
X54778559Y-46965910D01*
X54633569Y-47178110D01*
X54582560Y-47430000D01*
X54582560Y-48930000D01*
X54626838Y-49165317D01*
X54765910Y-49381441D01*
X54978110Y-49526431D01*
X55011490Y-49533191D01*
X54870301Y-49591673D01*
X54691673Y-49770302D01*
X54595000Y-50003691D01*
X54595000Y-50594250D01*
X54753750Y-50753000D01*
X55753000Y-50753000D01*
X55753000Y-50733000D01*
X56007000Y-50733000D01*
X56007000Y-50753000D01*
X57006250Y-50753000D01*
X57165000Y-50594250D01*
X57165000Y-50003691D01*
X57068327Y-49770302D01*
X56889699Y-49591673D01*
X56753713Y-49535346D01*
X56765317Y-49533162D01*
X56981441Y-49394090D01*
X57126431Y-49181890D01*
X57177440Y-48930000D01*
X57177440Y-48545750D01*
X57485000Y-48545750D01*
X57485000Y-48686310D01*
X57581673Y-48919699D01*
X57760302Y-49098327D01*
X57993691Y-49195000D01*
X58609250Y-49195000D01*
X58768000Y-49036250D01*
X58768000Y-48387000D01*
X59022000Y-48387000D01*
X59022000Y-49036250D01*
X59180750Y-49195000D01*
X59796309Y-49195000D01*
X60029698Y-49098327D01*
X60208327Y-48919699D01*
X60305000Y-48686310D01*
X60305000Y-48545750D01*
X60146250Y-48387000D01*
X59022000Y-48387000D01*
X58768000Y-48387000D01*
X57643750Y-48387000D01*
X57485000Y-48545750D01*
X57177440Y-48545750D01*
X57177440Y-48037362D01*
X57464802Y-47750000D01*
X57519666Y-47750000D01*
X57485000Y-47833690D01*
X57485000Y-47974250D01*
X57643750Y-48133000D01*
X58768000Y-48133000D01*
X58768000Y-48113000D01*
X59022000Y-48113000D01*
X59022000Y-48133000D01*
X60146250Y-48133000D01*
X60166807Y-48112443D01*
X60293691Y-48165000D01*
X60721750Y-48165000D01*
X60880500Y-48006250D01*
X60880500Y-47228250D01*
X60960000Y-47228250D01*
X60960000Y-47656310D01*
X61056673Y-47889699D01*
X61134500Y-47967526D01*
X61134500Y-48006250D01*
X61293250Y-48165000D01*
X61896750Y-48165000D01*
X62055500Y-48006250D01*
X62055500Y-47967526D01*
X62133327Y-47889699D01*
X62230000Y-47656310D01*
X62230000Y-47228250D01*
X62071250Y-47069500D01*
X61118750Y-47069500D01*
X60960000Y-47228250D01*
X60880500Y-47228250D01*
X60880500Y-47069500D01*
X60860500Y-47069500D01*
X60860500Y-46851250D01*
X60880500Y-46831250D01*
X60880500Y-46053250D01*
X60960000Y-46053250D01*
X60960000Y-46656750D01*
X61118750Y-46815500D01*
X61134500Y-46815500D01*
X61134500Y-46831250D01*
X61293250Y-46990000D01*
X61896750Y-46990000D01*
X62055500Y-46831250D01*
X62055500Y-46815500D01*
X62071250Y-46815500D01*
X62230000Y-46656750D01*
X62230000Y-46053250D01*
X62071250Y-45894500D01*
X62055500Y-45894500D01*
X62055500Y-45878750D01*
X61896750Y-45720000D01*
X61293250Y-45720000D01*
X61134500Y-45878750D01*
X61134500Y-45894500D01*
X61118750Y-45894500D01*
X60960000Y-46053250D01*
X60880500Y-46053250D01*
X60880500Y-45878750D01*
X60860500Y-45858750D01*
X60860500Y-45640500D01*
X60880500Y-45640500D01*
X60880500Y-45053690D01*
X60960000Y-45053690D01*
X60960000Y-45481750D01*
X61118750Y-45640500D01*
X62071250Y-45640500D01*
X62230000Y-45481750D01*
X62230000Y-45053690D01*
X62133327Y-44820301D01*
X62055500Y-44742474D01*
X62055500Y-44703750D01*
X61896750Y-44545000D01*
X61293250Y-44545000D01*
X61134500Y-44703750D01*
X61134500Y-44742474D01*
X61056673Y-44820301D01*
X60960000Y-45053690D01*
X60880500Y-45053690D01*
X60880500Y-44703750D01*
X60721750Y-44545000D01*
X60317440Y-44545000D01*
X60317440Y-44150000D01*
X60301446Y-44065000D01*
X62889773Y-44065000D01*
X62872560Y-44150000D01*
X62872560Y-44545000D01*
X62468250Y-44545000D01*
X62309500Y-44703750D01*
X62309500Y-45640500D01*
X62329500Y-45640500D01*
X62329500Y-45858750D01*
X62309500Y-45878750D01*
X62309500Y-46831250D01*
X62329500Y-46851250D01*
X62329500Y-47069500D01*
X62309500Y-47069500D01*
X62309500Y-48006250D01*
X62468250Y-48165000D01*
X62872560Y-48165000D01*
X62872560Y-48560000D01*
X62916838Y-48795317D01*
X63055910Y-49011441D01*
X63268110Y-49156431D01*
X63276971Y-49158225D01*
X63200162Y-49343201D01*
X63199838Y-49715167D01*
X63341883Y-50058943D01*
X63604673Y-50322192D01*
X63948201Y-50464838D01*
X64320167Y-50465162D01*
X64663943Y-50323117D01*
X64927192Y-50060327D01*
X65069838Y-49716799D01*
X65070162Y-49344833D01*
X65055000Y-49308138D01*
X65055000Y-49207440D01*
X65070000Y-49207440D01*
X65305317Y-49163162D01*
X65521441Y-49024090D01*
X65666431Y-48811890D01*
X65717440Y-48560000D01*
X65717440Y-47960000D01*
X65698757Y-47860707D01*
X65853201Y-47924838D01*
X66225167Y-47925162D01*
X66568943Y-47783117D01*
X66832192Y-47520327D01*
X66974838Y-47176799D01*
X66975162Y-46804833D01*
X66905568Y-46636403D01*
X67203943Y-46513117D01*
X67467192Y-46250327D01*
X67609838Y-45906799D01*
X67610162Y-45534833D01*
X67468117Y-45191057D01*
X67205327Y-44927808D01*
X66861799Y-44785162D01*
X66489833Y-44784838D01*
X66146057Y-44926883D01*
X66112882Y-44960000D01*
X65674914Y-44960000D01*
X65717440Y-44750000D01*
X65717440Y-44150000D01*
X65689247Y-44000167D01*
X67009838Y-44000167D01*
X67151883Y-44343943D01*
X67414673Y-44607192D01*
X67758201Y-44749838D01*
X68130167Y-44750162D01*
X68473943Y-44608117D01*
X68507118Y-44575000D01*
X73097537Y-44575000D01*
X73129673Y-44607192D01*
X73473201Y-44749838D01*
X73845167Y-44750162D01*
X74188943Y-44608117D01*
X74452192Y-44345327D01*
X74594838Y-44001799D01*
X74595162Y-43629833D01*
X74453117Y-43286057D01*
X74190327Y-43022808D01*
X73846799Y-42880162D01*
X73474833Y-42879838D01*
X73131057Y-43021883D01*
X73097882Y-43055000D01*
X68507463Y-43055000D01*
X68475327Y-43022808D01*
X68131799Y-42880162D01*
X67759833Y-42879838D01*
X67416057Y-43021883D01*
X67152808Y-43284673D01*
X67010162Y-43628201D01*
X67009838Y-44000167D01*
X65689247Y-44000167D01*
X65673162Y-43914683D01*
X65534090Y-43698559D01*
X65321890Y-43553569D01*
X65070000Y-43502560D01*
X65023255Y-43502560D01*
X64920790Y-43349210D01*
X64920787Y-43349208D01*
X64125790Y-42554210D01*
X64098222Y-42535790D01*
X63838675Y-42362367D01*
X63782484Y-42351190D01*
X63500000Y-42294999D01*
X63499995Y-42295000D01*
X54916822Y-42295000D01*
X54796799Y-42245162D01*
X54424833Y-42244838D01*
X54081057Y-42386883D01*
X53817808Y-42649673D01*
X53675162Y-42993201D01*
X53674838Y-43365167D01*
X45795000Y-43365167D01*
X45795000Y-41275000D01*
X81501655Y-41275000D01*
X81615729Y-41848489D01*
X81940585Y-42334670D01*
X82255366Y-42545000D01*
X81940585Y-42755330D01*
X81615729Y-43241511D01*
X81501655Y-43815000D01*
X81615729Y-44388489D01*
X81940585Y-44874670D01*
X82255366Y-45085000D01*
X81940585Y-45295330D01*
X81615729Y-45781511D01*
X81501655Y-46355000D01*
X81615729Y-46928489D01*
X81940585Y-47414670D01*
X82255366Y-47625000D01*
X81940585Y-47835330D01*
X81615729Y-48321511D01*
X81501655Y-48895000D01*
X81615729Y-49468489D01*
X81940585Y-49954670D01*
X82255366Y-50165000D01*
X81940585Y-50375330D01*
X81615729Y-50861511D01*
X81501655Y-51435000D01*
X81615729Y-52008489D01*
X81940585Y-52494670D01*
X82255366Y-52705000D01*
X81940585Y-52915330D01*
X81615729Y-53401511D01*
X81501655Y-53975000D01*
X81615729Y-54548489D01*
X81940585Y-55034670D01*
X82255366Y-55245000D01*
X81940585Y-55455330D01*
X81615729Y-55941511D01*
X81501655Y-56515000D01*
X81615729Y-57088489D01*
X81940585Y-57574670D01*
X82250069Y-57781461D01*
X81834268Y-58152964D01*
X81580291Y-58680209D01*
X81577642Y-58695974D01*
X81698783Y-58928000D01*
X83058000Y-58928000D01*
X83058000Y-58908000D01*
X83312000Y-58908000D01*
X83312000Y-58928000D01*
X84671217Y-58928000D01*
X84792358Y-58695974D01*
X84789709Y-58680209D01*
X84535732Y-58152964D01*
X84119931Y-57781461D01*
X84429415Y-57574670D01*
X84629648Y-57275000D01*
X88337537Y-57275000D01*
X88369673Y-57307192D01*
X88713201Y-57449838D01*
X89085167Y-57450162D01*
X89428943Y-57308117D01*
X89692192Y-57045327D01*
X89834838Y-56701799D01*
X89835162Y-56329833D01*
X89693117Y-55986057D01*
X89430327Y-55722808D01*
X89086799Y-55580162D01*
X88714833Y-55579838D01*
X88371057Y-55721883D01*
X88337882Y-55755000D01*
X84629648Y-55755000D01*
X84429415Y-55455330D01*
X84114634Y-55245000D01*
X84429415Y-55034670D01*
X84754271Y-54548489D01*
X84868345Y-53975000D01*
X84754271Y-53401511D01*
X84429415Y-52915330D01*
X84114634Y-52705000D01*
X84429415Y-52494670D01*
X84754271Y-52008489D01*
X84868345Y-51435000D01*
X84754271Y-50861511D01*
X84429415Y-50375330D01*
X84114634Y-50165000D01*
X84429415Y-49954670D01*
X84754271Y-49468489D01*
X84868345Y-48895000D01*
X84754271Y-48321511D01*
X84429415Y-47835330D01*
X84114634Y-47625000D01*
X84429415Y-47414670D01*
X84754271Y-46928489D01*
X84868345Y-46355000D01*
X84754271Y-45781511D01*
X84429415Y-45295330D01*
X84114634Y-45085000D01*
X84429415Y-44874670D01*
X84754271Y-44388489D01*
X84868345Y-43815000D01*
X84754271Y-43241511D01*
X84429415Y-42755330D01*
X84114634Y-42545000D01*
X84429415Y-42334670D01*
X84754271Y-41848489D01*
X84868345Y-41275000D01*
X84754271Y-40701511D01*
X84429415Y-40215330D01*
X84119931Y-40008539D01*
X84535732Y-39637036D01*
X84789709Y-39109791D01*
X84792358Y-39094026D01*
X84671217Y-38862000D01*
X83312000Y-38862000D01*
X83312000Y-38882000D01*
X83058000Y-38882000D01*
X83058000Y-38862000D01*
X81698783Y-38862000D01*
X81577642Y-39094026D01*
X81580291Y-39109791D01*
X81834268Y-39637036D01*
X82250069Y-40008539D01*
X81940585Y-40215330D01*
X81615729Y-40701511D01*
X81501655Y-41275000D01*
X45795000Y-41275000D01*
X45740954Y-41003295D01*
X45587046Y-40772954D01*
X45356705Y-40619046D01*
X45085000Y-40565000D01*
X26110000Y-40565000D01*
X26110000Y-35814000D01*
X26276560Y-35814000D01*
X26276560Y-37846000D01*
X26320838Y-38081317D01*
X26459910Y-38297441D01*
X26672110Y-38442431D01*
X26924000Y-38493440D01*
X28956000Y-38493440D01*
X29191317Y-38449162D01*
X29305054Y-38375974D01*
X81577642Y-38375974D01*
X81698783Y-38608000D01*
X83058000Y-38608000D01*
X83058000Y-37394076D01*
X83312000Y-37394076D01*
X83312000Y-38608000D01*
X84671217Y-38608000D01*
X84792358Y-38375974D01*
X84789709Y-38360209D01*
X84535732Y-37832964D01*
X84099320Y-37443046D01*
X83546913Y-37249816D01*
X83312000Y-37394076D01*
X83058000Y-37394076D01*
X82823087Y-37249816D01*
X82270680Y-37443046D01*
X81834268Y-37832964D01*
X81580291Y-38360209D01*
X81577642Y-38375974D01*
X29305054Y-38375974D01*
X29407441Y-38310090D01*
X29552431Y-38097890D01*
X29603440Y-37846000D01*
X29603440Y-36380167D01*
X66374838Y-36380167D01*
X66516883Y-36723943D01*
X66779673Y-36987192D01*
X67123201Y-37129838D01*
X67495167Y-37130162D01*
X67616569Y-37080000D01*
X85993420Y-37080000D01*
X91190000Y-42276579D01*
X91190000Y-66368178D01*
X91140162Y-66488201D01*
X91139838Y-66860167D01*
X91281883Y-67203943D01*
X91544673Y-67467192D01*
X91888201Y-67609838D01*
X92260167Y-67610162D01*
X92603943Y-67468117D01*
X92867192Y-67205327D01*
X93009838Y-66861799D01*
X93010162Y-66489833D01*
X92960000Y-66368431D01*
X92960000Y-48445167D01*
X100664838Y-48445167D01*
X100806883Y-48788943D01*
X101069673Y-49052192D01*
X101413201Y-49194838D01*
X101785167Y-49195162D01*
X102128943Y-49053117D01*
X102392192Y-48790327D01*
X102534838Y-48446799D01*
X102534879Y-48399923D01*
X105312401Y-45622401D01*
X105477148Y-45375839D01*
X105535000Y-45085000D01*
X105535000Y-44377463D01*
X105567192Y-44345327D01*
X105709838Y-44001799D01*
X105710162Y-43629833D01*
X105568117Y-43286057D01*
X105305327Y-43022808D01*
X104961799Y-42880162D01*
X104589833Y-42879838D01*
X104246057Y-43021883D01*
X103982808Y-43284673D01*
X103840162Y-43628201D01*
X103839838Y-44000167D01*
X103981883Y-44343943D01*
X104015000Y-44377118D01*
X104015000Y-44770198D01*
X101460320Y-47324878D01*
X101414833Y-47324838D01*
X101071057Y-47466883D01*
X100807808Y-47729673D01*
X100665162Y-48073201D01*
X100664838Y-48445167D01*
X92960000Y-48445167D01*
X92960000Y-41910005D01*
X92960001Y-41910000D01*
X92892634Y-41571326D01*
X92828975Y-41476054D01*
X92700790Y-41284210D01*
X92700787Y-41284208D01*
X92415606Y-40999026D01*
X100627642Y-40999026D01*
X100630291Y-41014791D01*
X100884268Y-41542036D01*
X101320680Y-41931954D01*
X101873087Y-42125184D01*
X102108000Y-41980924D01*
X102108000Y-40767000D01*
X102362000Y-40767000D01*
X102362000Y-41980924D01*
X102596913Y-42125184D01*
X103149320Y-41931954D01*
X103585732Y-41542036D01*
X103839709Y-41014791D01*
X103842358Y-40999026D01*
X106342642Y-40999026D01*
X106345291Y-41014791D01*
X106599268Y-41542036D01*
X107035680Y-41931954D01*
X107588087Y-42125184D01*
X107823000Y-41980924D01*
X107823000Y-40767000D01*
X108077000Y-40767000D01*
X108077000Y-41980924D01*
X108311913Y-42125184D01*
X108864320Y-41931954D01*
X109300732Y-41542036D01*
X109554709Y-41014791D01*
X109557358Y-40999026D01*
X109436217Y-40767000D01*
X108077000Y-40767000D01*
X107823000Y-40767000D01*
X106463783Y-40767000D01*
X106342642Y-40999026D01*
X103842358Y-40999026D01*
X103721217Y-40767000D01*
X102362000Y-40767000D01*
X102108000Y-40767000D01*
X100748783Y-40767000D01*
X100627642Y-40999026D01*
X92415606Y-40999026D01*
X89516580Y-38100000D01*
X100551655Y-38100000D01*
X100665729Y-38673489D01*
X100990585Y-39159670D01*
X101300069Y-39366461D01*
X100884268Y-39737964D01*
X100630291Y-40265209D01*
X100627642Y-40280974D01*
X100748783Y-40513000D01*
X102108000Y-40513000D01*
X102108000Y-40493000D01*
X102362000Y-40493000D01*
X102362000Y-40513000D01*
X103721217Y-40513000D01*
X103842358Y-40280974D01*
X103839709Y-40265209D01*
X103585732Y-39737964D01*
X103169931Y-39366461D01*
X103479415Y-39159670D01*
X103804271Y-38673489D01*
X103918345Y-38100000D01*
X106266655Y-38100000D01*
X106380729Y-38673489D01*
X106705585Y-39159670D01*
X107015069Y-39366461D01*
X106599268Y-39737964D01*
X106345291Y-40265209D01*
X106342642Y-40280974D01*
X106463783Y-40513000D01*
X107823000Y-40513000D01*
X107823000Y-40493000D01*
X108077000Y-40493000D01*
X108077000Y-40513000D01*
X109436217Y-40513000D01*
X109557358Y-40280974D01*
X109554709Y-40265209D01*
X109300732Y-39737964D01*
X108884931Y-39366461D01*
X109194415Y-39159670D01*
X109519271Y-38673489D01*
X109633345Y-38100000D01*
X109519271Y-37526511D01*
X109194415Y-37040330D01*
X109180087Y-37030757D01*
X109201317Y-37026762D01*
X109417441Y-36887690D01*
X109562431Y-36675490D01*
X109613440Y-36423600D01*
X109613440Y-34696400D01*
X109569162Y-34461083D01*
X109430090Y-34244959D01*
X109217890Y-34099969D01*
X108966000Y-34048960D01*
X106934000Y-34048960D01*
X106698683Y-34093238D01*
X106482559Y-34232310D01*
X106337569Y-34444510D01*
X106286560Y-34696400D01*
X106286560Y-36423600D01*
X106330838Y-36658917D01*
X106469910Y-36875041D01*
X106682110Y-37020031D01*
X106723439Y-37028400D01*
X106705585Y-37040330D01*
X106380729Y-37526511D01*
X106266655Y-38100000D01*
X103918345Y-38100000D01*
X103804271Y-37526511D01*
X103479415Y-37040330D01*
X103465087Y-37030757D01*
X103486317Y-37026762D01*
X103702441Y-36887690D01*
X103847431Y-36675490D01*
X103898440Y-36423600D01*
X103898440Y-34696400D01*
X103854162Y-34461083D01*
X103715090Y-34244959D01*
X103502890Y-34099969D01*
X103251000Y-34048960D01*
X101219000Y-34048960D01*
X100983683Y-34093238D01*
X100767559Y-34232310D01*
X100622569Y-34444510D01*
X100571560Y-34696400D01*
X100571560Y-36423600D01*
X100615838Y-36658917D01*
X100754910Y-36875041D01*
X100967110Y-37020031D01*
X101008439Y-37028400D01*
X100990585Y-37040330D01*
X100665729Y-37526511D01*
X100551655Y-38100000D01*
X89516580Y-38100000D01*
X86985790Y-35569210D01*
X86736750Y-35402808D01*
X86698675Y-35377367D01*
X86624231Y-35362559D01*
X86360000Y-35309999D01*
X86359995Y-35310000D01*
X67616822Y-35310000D01*
X67496799Y-35260162D01*
X67124833Y-35259838D01*
X66781057Y-35401883D01*
X66517808Y-35664673D01*
X66375162Y-36008201D01*
X66374838Y-36380167D01*
X29603440Y-36380167D01*
X29603440Y-35814000D01*
X29559162Y-35578683D01*
X29420090Y-35362559D01*
X29257052Y-35251160D01*
X29346385Y-35154818D01*
X29545975Y-34672944D01*
X29426836Y-34417000D01*
X28067000Y-34417000D01*
X28067000Y-34437000D01*
X27813000Y-34437000D01*
X27813000Y-34417000D01*
X26453164Y-34417000D01*
X26334025Y-34672944D01*
X26533615Y-35154818D01*
X26624097Y-35252398D01*
X26472559Y-35349910D01*
X26327569Y-35562110D01*
X26276560Y-35814000D01*
X26110000Y-35814000D01*
X26110000Y-33907056D01*
X26334025Y-33907056D01*
X26453164Y-34163000D01*
X27813000Y-34163000D01*
X27813000Y-32802633D01*
X28067000Y-32802633D01*
X28067000Y-34163000D01*
X29426836Y-34163000D01*
X29453715Y-34105255D01*
X87401400Y-34105255D01*
X87401400Y-34474745D01*
X87515474Y-35048234D01*
X87840330Y-35534415D01*
X88326511Y-35859271D01*
X88900000Y-35973345D01*
X89473489Y-35859271D01*
X89959670Y-35534415D01*
X90170000Y-35219634D01*
X90380330Y-35534415D01*
X90866511Y-35859271D01*
X91440000Y-35973345D01*
X92013489Y-35859271D01*
X92499670Y-35534415D01*
X92706461Y-35224931D01*
X93077964Y-35640732D01*
X93605209Y-35894709D01*
X93620974Y-35897358D01*
X93853000Y-35776217D01*
X93853000Y-34417000D01*
X93833000Y-34417000D01*
X93833000Y-34163000D01*
X93853000Y-34163000D01*
X93853000Y-32803783D01*
X94107000Y-32803783D01*
X94107000Y-34163000D01*
X94127000Y-34163000D01*
X94127000Y-34417000D01*
X94107000Y-34417000D01*
X94107000Y-35776217D01*
X94339026Y-35897358D01*
X94354791Y-35894709D01*
X94882036Y-35640732D01*
X95038907Y-35465155D01*
X95053238Y-35541317D01*
X95192310Y-35757441D01*
X95404510Y-35902431D01*
X95656400Y-35953440D01*
X97383600Y-35953440D01*
X97618917Y-35909162D01*
X97835041Y-35770090D01*
X97980031Y-35557890D01*
X98031040Y-35306000D01*
X98031040Y-33274000D01*
X97986762Y-33038683D01*
X97847690Y-32822559D01*
X97635490Y-32677569D01*
X97383600Y-32626560D01*
X95656400Y-32626560D01*
X95421083Y-32670838D01*
X95204959Y-32809910D01*
X95059969Y-33022110D01*
X95040768Y-33116927D01*
X94882036Y-32939268D01*
X94354791Y-32685291D01*
X94339026Y-32682642D01*
X94107000Y-32803783D01*
X93853000Y-32803783D01*
X93620974Y-32682642D01*
X93605209Y-32685291D01*
X93077964Y-32939268D01*
X92706461Y-33355069D01*
X92499670Y-33045585D01*
X92013489Y-32720729D01*
X91440000Y-32606655D01*
X90866511Y-32720729D01*
X90380330Y-33045585D01*
X90170000Y-33360366D01*
X89959670Y-33045585D01*
X89473489Y-32720729D01*
X88900000Y-32606655D01*
X88326511Y-32720729D01*
X87840330Y-33045585D01*
X87515474Y-33531766D01*
X87401400Y-34105255D01*
X29453715Y-34105255D01*
X29545975Y-33907056D01*
X29346385Y-33425182D01*
X28908379Y-32952812D01*
X28322946Y-32684017D01*
X28067000Y-32802633D01*
X27813000Y-32802633D01*
X27557054Y-32684017D01*
X26971621Y-32952812D01*
X26533615Y-33425182D01*
X26334025Y-33907056D01*
X26110000Y-33907056D01*
X26110000Y-31220861D01*
X26442460Y-30130750D01*
X42951400Y-30130750D01*
X42951400Y-30834909D01*
X43048073Y-31068298D01*
X43226701Y-31246927D01*
X43460090Y-31343600D01*
X44164250Y-31343600D01*
X44323000Y-31184850D01*
X44323000Y-29972000D01*
X43110150Y-29972000D01*
X42951400Y-30130750D01*
X26442460Y-30130750D01*
X26764290Y-29075500D01*
X26945726Y-28855091D01*
X42951400Y-28855091D01*
X42951400Y-29559250D01*
X43110150Y-29718000D01*
X44323000Y-29718000D01*
X44323000Y-27432000D01*
X43115531Y-27432000D01*
X42995032Y-27664027D01*
X43243179Y-28193490D01*
X43426119Y-28360471D01*
X43226701Y-28443073D01*
X43048073Y-28621702D01*
X42951400Y-28855091D01*
X26945726Y-28855091D01*
X28167293Y-27371133D01*
X30115730Y-26333412D01*
X32419345Y-26110000D01*
X43578984Y-26110000D01*
X43243179Y-26416510D01*
X43243179Y-26416510D01*
G37*
X43243179Y-26416510D02*
X42995032Y-26945973D01*
X43115531Y-27178000D01*
X44323000Y-27178000D01*
X44323000Y-27158000D01*
X44577000Y-27158000D01*
X44577000Y-27178000D01*
X44597000Y-27178000D01*
X44597000Y-27432000D01*
X44577000Y-27432000D01*
X44577000Y-29718000D01*
X44597000Y-29718000D01*
X44597000Y-29972000D01*
X44577000Y-29972000D01*
X44577000Y-31184850D01*
X44735750Y-31343600D01*
X45439910Y-31343600D01*
X45673299Y-31246927D01*
X45851927Y-31068298D01*
X45916263Y-30912977D01*
X45930330Y-30934029D01*
X46416511Y-31258885D01*
X46990000Y-31372959D01*
X47563489Y-31258885D01*
X48049670Y-30934029D01*
X48260000Y-30619248D01*
X48470330Y-30934029D01*
X48956511Y-31258885D01*
X49530000Y-31372959D01*
X50103489Y-31258885D01*
X50589670Y-30934029D01*
X50800000Y-30619248D01*
X51010330Y-30934029D01*
X51496511Y-31258885D01*
X52070000Y-31372959D01*
X52643489Y-31258885D01*
X53129670Y-30934029D01*
X53340000Y-30619248D01*
X53550330Y-30934029D01*
X54036511Y-31258885D01*
X54610000Y-31372959D01*
X55183489Y-31258885D01*
X55669670Y-30934029D01*
X55880000Y-30619248D01*
X56090330Y-30934029D01*
X56576511Y-31258885D01*
X57150000Y-31372959D01*
X57723489Y-31258885D01*
X58209670Y-30934029D01*
X58420000Y-30619248D01*
X58630330Y-30934029D01*
X59116511Y-31258885D01*
X59690000Y-31372959D01*
X60263489Y-31258885D01*
X60749670Y-30934029D01*
X60960000Y-30619248D01*
X61170330Y-30934029D01*
X61656511Y-31258885D01*
X62230000Y-31372959D01*
X62803489Y-31258885D01*
X63289670Y-30934029D01*
X63500000Y-30619248D01*
X63710330Y-30934029D01*
X64196511Y-31258885D01*
X64770000Y-31372959D01*
X65343489Y-31258885D01*
X65829670Y-30934029D01*
X66040000Y-30619248D01*
X66250330Y-30934029D01*
X66736511Y-31258885D01*
X67310000Y-31372959D01*
X67883489Y-31258885D01*
X68369670Y-30934029D01*
X68580000Y-30619248D01*
X68790330Y-30934029D01*
X69276511Y-31258885D01*
X69850000Y-31372959D01*
X70423489Y-31258885D01*
X70909670Y-30934029D01*
X71120000Y-30619248D01*
X71330330Y-30934029D01*
X71816511Y-31258885D01*
X72390000Y-31372959D01*
X72963489Y-31258885D01*
X73449670Y-30934029D01*
X73660000Y-30619248D01*
X73870330Y-30934029D01*
X74356511Y-31258885D01*
X74930000Y-31372959D01*
X75503489Y-31258885D01*
X75989670Y-30934029D01*
X76200000Y-30619248D01*
X76410330Y-30934029D01*
X76896511Y-31258885D01*
X77470000Y-31372959D01*
X78043489Y-31258885D01*
X78529670Y-30934029D01*
X78740000Y-30619248D01*
X78950330Y-30934029D01*
X79436511Y-31258885D01*
X80010000Y-31372959D01*
X80583489Y-31258885D01*
X81069670Y-30934029D01*
X81280000Y-30619248D01*
X81490330Y-30934029D01*
X81976511Y-31258885D01*
X82550000Y-31372959D01*
X83123489Y-31258885D01*
X83609670Y-30934029D01*
X83820000Y-30619248D01*
X84030330Y-30934029D01*
X84516511Y-31258885D01*
X85090000Y-31372959D01*
X85663489Y-31258885D01*
X86149670Y-30934029D01*
X86360000Y-30619248D01*
X86570330Y-30934029D01*
X87056511Y-31258885D01*
X87630000Y-31372959D01*
X88203489Y-31258885D01*
X88689670Y-30934029D01*
X88900000Y-30619248D01*
X89110330Y-30934029D01*
X89596511Y-31258885D01*
X90170000Y-31372959D01*
X90743489Y-31258885D01*
X91229670Y-30934029D01*
X91440000Y-30619248D01*
X91650330Y-30934029D01*
X92136511Y-31258885D01*
X92710000Y-31372959D01*
X93283489Y-31258885D01*
X93769670Y-30934029D01*
X93980000Y-30619248D01*
X94190330Y-30934029D01*
X94676511Y-31258885D01*
X95250000Y-31372959D01*
X95823489Y-31258885D01*
X96309670Y-30934029D01*
X96520000Y-30619248D01*
X96730330Y-30934029D01*
X97216511Y-31258885D01*
X97790000Y-31372959D01*
X98363489Y-31258885D01*
X98849670Y-30934029D01*
X99060000Y-30619248D01*
X99270330Y-30934029D01*
X99756511Y-31258885D01*
X100330000Y-31372959D01*
X100903489Y-31258885D01*
X101389670Y-30934029D01*
X101714526Y-30447848D01*
X101828600Y-29874359D01*
X101828600Y-29815641D01*
X101714526Y-29242152D01*
X101389670Y-28755971D01*
X101118828Y-28575000D01*
X101389670Y-28394029D01*
X101714526Y-27907848D01*
X101828600Y-27334359D01*
X101828600Y-27275641D01*
X101714526Y-26702152D01*
X101675824Y-26644230D01*
X103643053Y-27035536D01*
X107528376Y-29631627D01*
X110124464Y-33516947D01*
X111050000Y-38169927D01*
X111050000Y-67857115D01*
X109896129Y-72446662D01*
X107105562Y-76202464D01*
X103090133Y-78604469D01*
X101617372Y-78821621D01*
X101784968Y-78464027D01*
X101664469Y-78232000D01*
X100457000Y-78232000D01*
X100457000Y-78252000D01*
X100203000Y-78252000D01*
X100203000Y-78232000D01*
X97917000Y-78232000D01*
X97917000Y-78252000D01*
X97663000Y-78252000D01*
X97663000Y-78232000D01*
X97643000Y-78232000D01*
X97643000Y-77978000D01*
X97663000Y-77978000D01*
X97663000Y-77958000D01*
X97917000Y-77958000D01*
X97917000Y-77978000D01*
X100203000Y-77978000D01*
X100203000Y-77958000D01*
X100457000Y-77958000D01*
X100457000Y-77978000D01*
X101664469Y-77978000D01*
X101784968Y-77745973D01*
X101714210Y-77595000D01*
X104140000Y-77595000D01*
X104430839Y-77537148D01*
X104677401Y-77372401D01*
X106582401Y-75467401D01*
X106747148Y-75220839D01*
X106805000Y-74930000D01*
X106805000Y-70300850D01*
X107035680Y-70506954D01*
X107588087Y-70700184D01*
X107823000Y-70555924D01*
X107823000Y-69342000D01*
X108077000Y-69342000D01*
X108077000Y-70555924D01*
X108311913Y-70700184D01*
X108864320Y-70506954D01*
X109300732Y-70117036D01*
X109554709Y-69589791D01*
X109557358Y-69574026D01*
X109436217Y-69342000D01*
X108077000Y-69342000D01*
X107823000Y-69342000D01*
X107803000Y-69342000D01*
X107803000Y-69088000D01*
X107823000Y-69088000D01*
X107823000Y-69068000D01*
X108077000Y-69068000D01*
X108077000Y-69088000D01*
X109436217Y-69088000D01*
X109557358Y-68855974D01*
X109554709Y-68840209D01*
X109300732Y-68312964D01*
X108884931Y-67941461D01*
X109194415Y-67734670D01*
X109519271Y-67248489D01*
X109633345Y-66675000D01*
X109519271Y-66101511D01*
X109194415Y-65615330D01*
X109180087Y-65605757D01*
X109201317Y-65601762D01*
X109417441Y-65462690D01*
X109562431Y-65250490D01*
X109613440Y-64998600D01*
X109613440Y-63271400D01*
X109569162Y-63036083D01*
X109430090Y-62819959D01*
X109217890Y-62674969D01*
X108966000Y-62623960D01*
X107360842Y-62623960D01*
X108487401Y-61497401D01*
X108652148Y-61250839D01*
X108710000Y-60960000D01*
X108710000Y-59169210D01*
X108860973Y-59239968D01*
X109093000Y-59119469D01*
X109093000Y-57912000D01*
X109347000Y-57912000D01*
X109347000Y-59119469D01*
X109579027Y-59239968D01*
X110108490Y-58991821D01*
X110502688Y-58559947D01*
X110674958Y-58144026D01*
X110553817Y-57912000D01*
X109347000Y-57912000D01*
X109093000Y-57912000D01*
X109073000Y-57912000D01*
X109073000Y-57658000D01*
X109093000Y-57658000D01*
X109093000Y-57638000D01*
X109347000Y-57638000D01*
X109347000Y-57658000D01*
X110553817Y-57658000D01*
X110674958Y-57425974D01*
X110502688Y-57010053D01*
X110108490Y-56578179D01*
X109985772Y-56520664D01*
X110309029Y-56304670D01*
X110633885Y-55818489D01*
X110747959Y-55245000D01*
X110633885Y-54671511D01*
X110309029Y-54185330D01*
X109994248Y-53975000D01*
X110309029Y-53764670D01*
X110633885Y-53278489D01*
X110747959Y-52705000D01*
X110633885Y-52131511D01*
X110309029Y-51645330D01*
X109994248Y-51435000D01*
X110309029Y-51224670D01*
X110633885Y-50738489D01*
X110747959Y-50165000D01*
X110633885Y-49591511D01*
X110309029Y-49105330D01*
X109994248Y-48895000D01*
X110309029Y-48684670D01*
X110633885Y-48198489D01*
X110747959Y-47625000D01*
X110633885Y-47051511D01*
X110309029Y-46565330D01*
X109822848Y-46240474D01*
X109249359Y-46126400D01*
X109190641Y-46126400D01*
X108617152Y-46240474D01*
X108151558Y-46551574D01*
X108146762Y-46526083D01*
X108007690Y-46309959D01*
X107795490Y-46164969D01*
X107543600Y-46113960D01*
X105816400Y-46113960D01*
X105581083Y-46158238D01*
X105364959Y-46297310D01*
X105219969Y-46509510D01*
X105168960Y-46761400D01*
X105168960Y-48488600D01*
X105213238Y-48723917D01*
X105352310Y-48940041D01*
X105564510Y-49085031D01*
X105608131Y-49093864D01*
X105590971Y-49105330D01*
X105266115Y-49591511D01*
X105152041Y-50165000D01*
X105227225Y-50542973D01*
X101062599Y-54707599D01*
X100897852Y-54954161D01*
X100840000Y-55245000D01*
X100840000Y-57222537D01*
X100807808Y-57254673D01*
X100665162Y-57598201D01*
X100664838Y-57970167D01*
X100806883Y-58313943D01*
X101069673Y-58577192D01*
X101413201Y-58719838D01*
X101785167Y-58720162D01*
X102128943Y-58578117D01*
X102392192Y-58315327D01*
X102534838Y-57971799D01*
X102535162Y-57599833D01*
X102393117Y-57256057D01*
X102360000Y-57222882D01*
X102360000Y-55559802D01*
X105162454Y-52757348D01*
X105227225Y-53082973D01*
X104237599Y-54072599D01*
X104072852Y-54319161D01*
X104015000Y-54610000D01*
X104015000Y-62650083D01*
X103886000Y-62623960D01*
X101854000Y-62623960D01*
X101618683Y-62668238D01*
X101402559Y-62807310D01*
X101257569Y-63019510D01*
X101206560Y-63271400D01*
X101206560Y-64723638D01*
X100427599Y-65502599D01*
X100262852Y-65749161D01*
X100205000Y-66040000D01*
X100205000Y-67630198D01*
X95570198Y-72265000D01*
X62230000Y-72265000D01*
X61987414Y-72313254D01*
X61939160Y-72322852D01*
X61692599Y-72487599D01*
X60067973Y-74112225D01*
X59690000Y-74037041D01*
X59116511Y-74151115D01*
X58630330Y-74475971D01*
X58420000Y-74790752D01*
X58209670Y-74475971D01*
X57723489Y-74151115D01*
X57150000Y-74037041D01*
X56576511Y-74151115D01*
X56090330Y-74475971D01*
X55880000Y-74790752D01*
X55669670Y-74475971D01*
X55183489Y-74151115D01*
X54610000Y-74037041D01*
X54036511Y-74151115D01*
X53550330Y-74475971D01*
X53340000Y-74790752D01*
X53129670Y-74475971D01*
X52643489Y-74151115D01*
X52070000Y-74037041D01*
X51496511Y-74151115D01*
X51010330Y-74475971D01*
X50800000Y-74790752D01*
X50589670Y-74475971D01*
X50103489Y-74151115D01*
X49582348Y-74047454D01*
X53019802Y-70610000D01*
X69049367Y-70610000D01*
X68915162Y-70933201D01*
X68914838Y-71305167D01*
X69056883Y-71648943D01*
X69319673Y-71912192D01*
X69663201Y-72054838D01*
X70035167Y-72055162D01*
X70378943Y-71913117D01*
X70412118Y-71880000D01*
X72462537Y-71880000D01*
X72494673Y-71912192D01*
X72838201Y-72054838D01*
X73210167Y-72055162D01*
X73553943Y-71913117D01*
X73817192Y-71650327D01*
X73959838Y-71306799D01*
X73960162Y-70934833D01*
X73825944Y-70610000D01*
X74295000Y-70610000D01*
X74585839Y-70552148D01*
X74832401Y-70387401D01*
X82123064Y-63096738D01*
X82169000Y-63106040D01*
X84201000Y-63106040D01*
X84436317Y-63061762D01*
X84652441Y-62922690D01*
X84797431Y-62710490D01*
X84848440Y-62458600D01*
X84848440Y-60731400D01*
X84804162Y-60496083D01*
X84665090Y-60279959D01*
X84452890Y-60134969D01*
X84358073Y-60115768D01*
X84535732Y-59957036D01*
X84789709Y-59429791D01*
X84792358Y-59414026D01*
X84671217Y-59182000D01*
X83312000Y-59182000D01*
X83312000Y-59202000D01*
X83058000Y-59202000D01*
X83058000Y-59182000D01*
X81698783Y-59182000D01*
X81577642Y-59414026D01*
X81580291Y-59429791D01*
X81834268Y-59957036D01*
X82009845Y-60113907D01*
X81933683Y-60128238D01*
X81717559Y-60267310D01*
X81572569Y-60479510D01*
X81521560Y-60731400D01*
X81521560Y-61548638D01*
X73980198Y-69090000D01*
X52705000Y-69090000D01*
X52414160Y-69147852D01*
X52167599Y-69312599D01*
X47367973Y-74112225D01*
X46990000Y-74037041D01*
X46416511Y-74151115D01*
X45930330Y-74475971D01*
X45714336Y-74799228D01*
X45656821Y-74676510D01*
X45224947Y-74282312D01*
X44809026Y-74110042D01*
X44577000Y-74231183D01*
X44577000Y-75438000D01*
X44597000Y-75438000D01*
X44597000Y-75692000D01*
X44577000Y-75692000D01*
X44577000Y-77978000D01*
X44597000Y-77978000D01*
X44597000Y-78232000D01*
X44577000Y-78232000D01*
X44577000Y-78252000D01*
X44323000Y-78252000D01*
X44323000Y-78232000D01*
X43110150Y-78232000D01*
X42951400Y-78390750D01*
X42951400Y-79094909D01*
X43036352Y-79300000D01*
X31220861Y-79300000D01*
X29075500Y-78645710D01*
X27371133Y-77242707D01*
X27303166Y-77115091D01*
X42951400Y-77115091D01*
X42951400Y-77819250D01*
X43110150Y-77978000D01*
X44323000Y-77978000D01*
X44323000Y-75692000D01*
X43115531Y-75692000D01*
X42995032Y-75924027D01*
X43243179Y-76453490D01*
X43426119Y-76620471D01*
X43226701Y-76703073D01*
X43048073Y-76881702D01*
X42951400Y-77115091D01*
X27303166Y-77115091D01*
X26333412Y-75294271D01*
X26324849Y-75205973D01*
X42995032Y-75205973D01*
X43115531Y-75438000D01*
X44323000Y-75438000D01*
X44323000Y-74231183D01*
X44090974Y-74110042D01*
X43675053Y-74282312D01*
X43243179Y-74676510D01*
X42995032Y-75205973D01*
X26324849Y-75205973D01*
X26110000Y-72990654D01*
X26110000Y-67564000D01*
X26276560Y-67564000D01*
X26276560Y-69596000D01*
X26320838Y-69831317D01*
X26459910Y-70047441D01*
X26672110Y-70192431D01*
X26924000Y-70243440D01*
X28956000Y-70243440D01*
X29191317Y-70199162D01*
X29407441Y-70060090D01*
X29552431Y-69847890D01*
X29603440Y-69596000D01*
X29603440Y-67564000D01*
X29559162Y-67328683D01*
X29420090Y-67112559D01*
X29257052Y-67001160D01*
X29346385Y-66904818D01*
X29545975Y-66422944D01*
X29426836Y-66167000D01*
X28067000Y-66167000D01*
X28067000Y-66187000D01*
X27813000Y-66187000D01*
X27813000Y-66167000D01*
X26453164Y-66167000D01*
X26334025Y-66422944D01*
X26533615Y-66904818D01*
X26624097Y-67002398D01*
X26472559Y-67099910D01*
X26327569Y-67312110D01*
X26276560Y-67564000D01*
X26110000Y-67564000D01*
X26110000Y-65657056D01*
X26334025Y-65657056D01*
X26453164Y-65913000D01*
X27813000Y-65913000D01*
X27813000Y-64552633D01*
X28067000Y-64552633D01*
X28067000Y-65913000D01*
X29426836Y-65913000D01*
X29545975Y-65657056D01*
X29346385Y-65175182D01*
X28908379Y-64702812D01*
X28322946Y-64434017D01*
X28067000Y-64552633D01*
X27813000Y-64552633D01*
X27557054Y-64434017D01*
X26971621Y-64702812D01*
X26533615Y-65175182D01*
X26334025Y-65657056D01*
X26110000Y-65657056D01*
X26110000Y-59765000D01*
X45085000Y-59765000D01*
X45356705Y-59710954D01*
X45587046Y-59557046D01*
X45740954Y-59326705D01*
X45795000Y-59055000D01*
X45795000Y-51165750D01*
X54595000Y-51165750D01*
X54595000Y-51756309D01*
X54691673Y-51989698D01*
X54870301Y-52168327D01*
X55103690Y-52265000D01*
X55594250Y-52265000D01*
X55753000Y-52106250D01*
X55753000Y-51007000D01*
X56007000Y-51007000D01*
X56007000Y-52106250D01*
X56165750Y-52265000D01*
X56656310Y-52265000D01*
X56889699Y-52168327D01*
X57068327Y-51989698D01*
X57165000Y-51756309D01*
X57165000Y-51165750D01*
X57006250Y-51007000D01*
X56007000Y-51007000D01*
X55753000Y-51007000D01*
X54753750Y-51007000D01*
X54595000Y-51165750D01*
X45795000Y-51165750D01*
X45795000Y-43365167D01*
X53674838Y-43365167D01*
X53816883Y-43708943D01*
X54079673Y-43972192D01*
X54379332Y-44096622D01*
X54310162Y-44263201D01*
X54309838Y-44635167D01*
X54451883Y-44978943D01*
X54714673Y-45242192D01*
X55058201Y-45384838D01*
X55430167Y-45385162D01*
X55773943Y-45243117D01*
X55807118Y-45210000D01*
X56349367Y-45210000D01*
X56215162Y-45533201D01*
X56214838Y-45905167D01*
X56356883Y-46248943D01*
X56586369Y-46478829D01*
X56282638Y-46782560D01*
X55230000Y-46782560D01*
X54994683Y-46826838D01*
X54778559Y-46965910D01*
X54633569Y-47178110D01*
X54582560Y-47430000D01*
X54582560Y-48930000D01*
X54626838Y-49165317D01*
X54765910Y-49381441D01*
X54978110Y-49526431D01*
X55011490Y-49533191D01*
X54870301Y-49591673D01*
X54691673Y-49770302D01*
X54595000Y-50003691D01*
X54595000Y-50594250D01*
X54753750Y-50753000D01*
X55753000Y-50753000D01*
X55753000Y-50733000D01*
X56007000Y-50733000D01*
X56007000Y-50753000D01*
X57006250Y-50753000D01*
X57165000Y-50594250D01*
X57165000Y-50003691D01*
X57068327Y-49770302D01*
X56889699Y-49591673D01*
X56753713Y-49535346D01*
X56765317Y-49533162D01*
X56981441Y-49394090D01*
X57126431Y-49181890D01*
X57177440Y-48930000D01*
X57177440Y-48545750D01*
X57485000Y-48545750D01*
X57485000Y-48686310D01*
X57581673Y-48919699D01*
X57760302Y-49098327D01*
X57993691Y-49195000D01*
X58609250Y-49195000D01*
X58768000Y-49036250D01*
X58768000Y-48387000D01*
X59022000Y-48387000D01*
X59022000Y-49036250D01*
X59180750Y-49195000D01*
X59796309Y-49195000D01*
X60029698Y-49098327D01*
X60208327Y-48919699D01*
X60305000Y-48686310D01*
X60305000Y-48545750D01*
X60146250Y-48387000D01*
X59022000Y-48387000D01*
X58768000Y-48387000D01*
X57643750Y-48387000D01*
X57485000Y-48545750D01*
X57177440Y-48545750D01*
X57177440Y-48037362D01*
X57464802Y-47750000D01*
X57519666Y-47750000D01*
X57485000Y-47833690D01*
X57485000Y-47974250D01*
X57643750Y-48133000D01*
X58768000Y-48133000D01*
X58768000Y-48113000D01*
X59022000Y-48113000D01*
X59022000Y-48133000D01*
X60146250Y-48133000D01*
X60166807Y-48112443D01*
X60293691Y-48165000D01*
X60721750Y-48165000D01*
X60880500Y-48006250D01*
X60880500Y-47228250D01*
X60960000Y-47228250D01*
X60960000Y-47656310D01*
X61056673Y-47889699D01*
X61134500Y-47967526D01*
X61134500Y-48006250D01*
X61293250Y-48165000D01*
X61896750Y-48165000D01*
X62055500Y-48006250D01*
X62055500Y-47967526D01*
X62133327Y-47889699D01*
X62230000Y-47656310D01*
X62230000Y-47228250D01*
X62071250Y-47069500D01*
X61118750Y-47069500D01*
X60960000Y-47228250D01*
X60880500Y-47228250D01*
X60880500Y-47069500D01*
X60860500Y-47069500D01*
X60860500Y-46851250D01*
X60880500Y-46831250D01*
X60880500Y-46053250D01*
X60960000Y-46053250D01*
X60960000Y-46656750D01*
X61118750Y-46815500D01*
X61134500Y-46815500D01*
X61134500Y-46831250D01*
X61293250Y-46990000D01*
X61896750Y-46990000D01*
X62055500Y-46831250D01*
X62055500Y-46815500D01*
X62071250Y-46815500D01*
X62230000Y-46656750D01*
X62230000Y-46053250D01*
X62071250Y-45894500D01*
X62055500Y-45894500D01*
X62055500Y-45878750D01*
X61896750Y-45720000D01*
X61293250Y-45720000D01*
X61134500Y-45878750D01*
X61134500Y-45894500D01*
X61118750Y-45894500D01*
X60960000Y-46053250D01*
X60880500Y-46053250D01*
X60880500Y-45878750D01*
X60860500Y-45858750D01*
X60860500Y-45640500D01*
X60880500Y-45640500D01*
X60880500Y-45053690D01*
X60960000Y-45053690D01*
X60960000Y-45481750D01*
X61118750Y-45640500D01*
X62071250Y-45640500D01*
X62230000Y-45481750D01*
X62230000Y-45053690D01*
X62133327Y-44820301D01*
X62055500Y-44742474D01*
X62055500Y-44703750D01*
X61896750Y-44545000D01*
X61293250Y-44545000D01*
X61134500Y-44703750D01*
X61134500Y-44742474D01*
X61056673Y-44820301D01*
X60960000Y-45053690D01*
X60880500Y-45053690D01*
X60880500Y-44703750D01*
X60721750Y-44545000D01*
X60317440Y-44545000D01*
X60317440Y-44150000D01*
X60301446Y-44065000D01*
X62889773Y-44065000D01*
X62872560Y-44150000D01*
X62872560Y-44545000D01*
X62468250Y-44545000D01*
X62309500Y-44703750D01*
X62309500Y-45640500D01*
X62329500Y-45640500D01*
X62329500Y-45858750D01*
X62309500Y-45878750D01*
X62309500Y-46831250D01*
X62329500Y-46851250D01*
X62329500Y-47069500D01*
X62309500Y-47069500D01*
X62309500Y-48006250D01*
X62468250Y-48165000D01*
X62872560Y-48165000D01*
X62872560Y-48560000D01*
X62916838Y-48795317D01*
X63055910Y-49011441D01*
X63268110Y-49156431D01*
X63276971Y-49158225D01*
X63200162Y-49343201D01*
X63199838Y-49715167D01*
X63341883Y-50058943D01*
X63604673Y-50322192D01*
X63948201Y-50464838D01*
X64320167Y-50465162D01*
X64663943Y-50323117D01*
X64927192Y-50060327D01*
X65069838Y-49716799D01*
X65070162Y-49344833D01*
X65055000Y-49308138D01*
X65055000Y-49207440D01*
X65070000Y-49207440D01*
X65305317Y-49163162D01*
X65521441Y-49024090D01*
X65666431Y-48811890D01*
X65717440Y-48560000D01*
X65717440Y-47960000D01*
X65698757Y-47860707D01*
X65853201Y-47924838D01*
X66225167Y-47925162D01*
X66568943Y-47783117D01*
X66832192Y-47520327D01*
X66974838Y-47176799D01*
X66975162Y-46804833D01*
X66905568Y-46636403D01*
X67203943Y-46513117D01*
X67467192Y-46250327D01*
X67609838Y-45906799D01*
X67610162Y-45534833D01*
X67468117Y-45191057D01*
X67205327Y-44927808D01*
X66861799Y-44785162D01*
X66489833Y-44784838D01*
X66146057Y-44926883D01*
X66112882Y-44960000D01*
X65674914Y-44960000D01*
X65717440Y-44750000D01*
X65717440Y-44150000D01*
X65689247Y-44000167D01*
X67009838Y-44000167D01*
X67151883Y-44343943D01*
X67414673Y-44607192D01*
X67758201Y-44749838D01*
X68130167Y-44750162D01*
X68473943Y-44608117D01*
X68507118Y-44575000D01*
X73097537Y-44575000D01*
X73129673Y-44607192D01*
X73473201Y-44749838D01*
X73845167Y-44750162D01*
X74188943Y-44608117D01*
X74452192Y-44345327D01*
X74594838Y-44001799D01*
X74595162Y-43629833D01*
X74453117Y-43286057D01*
X74190327Y-43022808D01*
X73846799Y-42880162D01*
X73474833Y-42879838D01*
X73131057Y-43021883D01*
X73097882Y-43055000D01*
X68507463Y-43055000D01*
X68475327Y-43022808D01*
X68131799Y-42880162D01*
X67759833Y-42879838D01*
X67416057Y-43021883D01*
X67152808Y-43284673D01*
X67010162Y-43628201D01*
X67009838Y-44000167D01*
X65689247Y-44000167D01*
X65673162Y-43914683D01*
X65534090Y-43698559D01*
X65321890Y-43553569D01*
X65070000Y-43502560D01*
X65023255Y-43502560D01*
X64920790Y-43349210D01*
X64920787Y-43349208D01*
X64125790Y-42554210D01*
X64098222Y-42535790D01*
X63838675Y-42362367D01*
X63782484Y-42351190D01*
X63500000Y-42294999D01*
X63499995Y-42295000D01*
X54916822Y-42295000D01*
X54796799Y-42245162D01*
X54424833Y-42244838D01*
X54081057Y-42386883D01*
X53817808Y-42649673D01*
X53675162Y-42993201D01*
X53674838Y-43365167D01*
X45795000Y-43365167D01*
X45795000Y-41275000D01*
X81501655Y-41275000D01*
X81615729Y-41848489D01*
X81940585Y-42334670D01*
X82255366Y-42545000D01*
X81940585Y-42755330D01*
X81615729Y-43241511D01*
X81501655Y-43815000D01*
X81615729Y-44388489D01*
X81940585Y-44874670D01*
X82255366Y-45085000D01*
X81940585Y-45295330D01*
X81615729Y-45781511D01*
X81501655Y-46355000D01*
X81615729Y-46928489D01*
X81940585Y-47414670D01*
X82255366Y-47625000D01*
X81940585Y-47835330D01*
X81615729Y-48321511D01*
X81501655Y-48895000D01*
X81615729Y-49468489D01*
X81940585Y-49954670D01*
X82255366Y-50165000D01*
X81940585Y-50375330D01*
X81615729Y-50861511D01*
X81501655Y-51435000D01*
X81615729Y-52008489D01*
X81940585Y-52494670D01*
X82255366Y-52705000D01*
X81940585Y-52915330D01*
X81615729Y-53401511D01*
X81501655Y-53975000D01*
X81615729Y-54548489D01*
X81940585Y-55034670D01*
X82255366Y-55245000D01*
X81940585Y-55455330D01*
X81615729Y-55941511D01*
X81501655Y-56515000D01*
X81615729Y-57088489D01*
X81940585Y-57574670D01*
X82250069Y-57781461D01*
X81834268Y-58152964D01*
X81580291Y-58680209D01*
X81577642Y-58695974D01*
X81698783Y-58928000D01*
X83058000Y-58928000D01*
X83058000Y-58908000D01*
X83312000Y-58908000D01*
X83312000Y-58928000D01*
X84671217Y-58928000D01*
X84792358Y-58695974D01*
X84789709Y-58680209D01*
X84535732Y-58152964D01*
X84119931Y-57781461D01*
X84429415Y-57574670D01*
X84629648Y-57275000D01*
X88337537Y-57275000D01*
X88369673Y-57307192D01*
X88713201Y-57449838D01*
X89085167Y-57450162D01*
X89428943Y-57308117D01*
X89692192Y-57045327D01*
X89834838Y-56701799D01*
X89835162Y-56329833D01*
X89693117Y-55986057D01*
X89430327Y-55722808D01*
X89086799Y-55580162D01*
X88714833Y-55579838D01*
X88371057Y-55721883D01*
X88337882Y-55755000D01*
X84629648Y-55755000D01*
X84429415Y-55455330D01*
X84114634Y-55245000D01*
X84429415Y-55034670D01*
X84754271Y-54548489D01*
X84868345Y-53975000D01*
X84754271Y-53401511D01*
X84429415Y-52915330D01*
X84114634Y-52705000D01*
X84429415Y-52494670D01*
X84754271Y-52008489D01*
X84868345Y-51435000D01*
X84754271Y-50861511D01*
X84429415Y-50375330D01*
X84114634Y-50165000D01*
X84429415Y-49954670D01*
X84754271Y-49468489D01*
X84868345Y-48895000D01*
X84754271Y-48321511D01*
X84429415Y-47835330D01*
X84114634Y-47625000D01*
X84429415Y-47414670D01*
X84754271Y-46928489D01*
X84868345Y-46355000D01*
X84754271Y-45781511D01*
X84429415Y-45295330D01*
X84114634Y-45085000D01*
X84429415Y-44874670D01*
X84754271Y-44388489D01*
X84868345Y-43815000D01*
X84754271Y-43241511D01*
X84429415Y-42755330D01*
X84114634Y-42545000D01*
X84429415Y-42334670D01*
X84754271Y-41848489D01*
X84868345Y-41275000D01*
X84754271Y-40701511D01*
X84429415Y-40215330D01*
X84119931Y-40008539D01*
X84535732Y-39637036D01*
X84789709Y-39109791D01*
X84792358Y-39094026D01*
X84671217Y-38862000D01*
X83312000Y-38862000D01*
X83312000Y-38882000D01*
X83058000Y-38882000D01*
X83058000Y-38862000D01*
X81698783Y-38862000D01*
X81577642Y-39094026D01*
X81580291Y-39109791D01*
X81834268Y-39637036D01*
X82250069Y-40008539D01*
X81940585Y-40215330D01*
X81615729Y-40701511D01*
X81501655Y-41275000D01*
X45795000Y-41275000D01*
X45740954Y-41003295D01*
X45587046Y-40772954D01*
X45356705Y-40619046D01*
X45085000Y-40565000D01*
X26110000Y-40565000D01*
X26110000Y-35814000D01*
X26276560Y-35814000D01*
X26276560Y-37846000D01*
X26320838Y-38081317D01*
X26459910Y-38297441D01*
X26672110Y-38442431D01*
X26924000Y-38493440D01*
X28956000Y-38493440D01*
X29191317Y-38449162D01*
X29305054Y-38375974D01*
X81577642Y-38375974D01*
X81698783Y-38608000D01*
X83058000Y-38608000D01*
X83058000Y-37394076D01*
X83312000Y-37394076D01*
X83312000Y-38608000D01*
X84671217Y-38608000D01*
X84792358Y-38375974D01*
X84789709Y-38360209D01*
X84535732Y-37832964D01*
X84099320Y-37443046D01*
X83546913Y-37249816D01*
X83312000Y-37394076D01*
X83058000Y-37394076D01*
X82823087Y-37249816D01*
X82270680Y-37443046D01*
X81834268Y-37832964D01*
X81580291Y-38360209D01*
X81577642Y-38375974D01*
X29305054Y-38375974D01*
X29407441Y-38310090D01*
X29552431Y-38097890D01*
X29603440Y-37846000D01*
X29603440Y-36380167D01*
X66374838Y-36380167D01*
X66516883Y-36723943D01*
X66779673Y-36987192D01*
X67123201Y-37129838D01*
X67495167Y-37130162D01*
X67616569Y-37080000D01*
X85993420Y-37080000D01*
X91190000Y-42276579D01*
X91190000Y-66368178D01*
X91140162Y-66488201D01*
X91139838Y-66860167D01*
X91281883Y-67203943D01*
X91544673Y-67467192D01*
X91888201Y-67609838D01*
X92260167Y-67610162D01*
X92603943Y-67468117D01*
X92867192Y-67205327D01*
X93009838Y-66861799D01*
X93010162Y-66489833D01*
X92960000Y-66368431D01*
X92960000Y-48445167D01*
X100664838Y-48445167D01*
X100806883Y-48788943D01*
X101069673Y-49052192D01*
X101413201Y-49194838D01*
X101785167Y-49195162D01*
X102128943Y-49053117D01*
X102392192Y-48790327D01*
X102534838Y-48446799D01*
X102534879Y-48399923D01*
X105312401Y-45622401D01*
X105477148Y-45375839D01*
X105535000Y-45085000D01*
X105535000Y-44377463D01*
X105567192Y-44345327D01*
X105709838Y-44001799D01*
X105710162Y-43629833D01*
X105568117Y-43286057D01*
X105305327Y-43022808D01*
X104961799Y-42880162D01*
X104589833Y-42879838D01*
X104246057Y-43021883D01*
X103982808Y-43284673D01*
X103840162Y-43628201D01*
X103839838Y-44000167D01*
X103981883Y-44343943D01*
X104015000Y-44377118D01*
X104015000Y-44770198D01*
X101460320Y-47324878D01*
X101414833Y-47324838D01*
X101071057Y-47466883D01*
X100807808Y-47729673D01*
X100665162Y-48073201D01*
X100664838Y-48445167D01*
X92960000Y-48445167D01*
X92960000Y-41910005D01*
X92960001Y-41910000D01*
X92892634Y-41571326D01*
X92828975Y-41476054D01*
X92700790Y-41284210D01*
X92700787Y-41284208D01*
X92415606Y-40999026D01*
X100627642Y-40999026D01*
X100630291Y-41014791D01*
X100884268Y-41542036D01*
X101320680Y-41931954D01*
X101873087Y-42125184D01*
X102108000Y-41980924D01*
X102108000Y-40767000D01*
X102362000Y-40767000D01*
X102362000Y-41980924D01*
X102596913Y-42125184D01*
X103149320Y-41931954D01*
X103585732Y-41542036D01*
X103839709Y-41014791D01*
X103842358Y-40999026D01*
X106342642Y-40999026D01*
X106345291Y-41014791D01*
X106599268Y-41542036D01*
X107035680Y-41931954D01*
X107588087Y-42125184D01*
X107823000Y-41980924D01*
X107823000Y-40767000D01*
X108077000Y-40767000D01*
X108077000Y-41980924D01*
X108311913Y-42125184D01*
X108864320Y-41931954D01*
X109300732Y-41542036D01*
X109554709Y-41014791D01*
X109557358Y-40999026D01*
X109436217Y-40767000D01*
X108077000Y-40767000D01*
X107823000Y-40767000D01*
X106463783Y-40767000D01*
X106342642Y-40999026D01*
X103842358Y-40999026D01*
X103721217Y-40767000D01*
X102362000Y-40767000D01*
X102108000Y-40767000D01*
X100748783Y-40767000D01*
X100627642Y-40999026D01*
X92415606Y-40999026D01*
X89516580Y-38100000D01*
X100551655Y-38100000D01*
X100665729Y-38673489D01*
X100990585Y-39159670D01*
X101300069Y-39366461D01*
X100884268Y-39737964D01*
X100630291Y-40265209D01*
X100627642Y-40280974D01*
X100748783Y-40513000D01*
X102108000Y-40513000D01*
X102108000Y-40493000D01*
X102362000Y-40493000D01*
X102362000Y-40513000D01*
X103721217Y-40513000D01*
X103842358Y-40280974D01*
X103839709Y-40265209D01*
X103585732Y-39737964D01*
X103169931Y-39366461D01*
X103479415Y-39159670D01*
X103804271Y-38673489D01*
X103918345Y-38100000D01*
X106266655Y-38100000D01*
X106380729Y-38673489D01*
X106705585Y-39159670D01*
X107015069Y-39366461D01*
X106599268Y-39737964D01*
X106345291Y-40265209D01*
X106342642Y-40280974D01*
X106463783Y-40513000D01*
X107823000Y-40513000D01*
X107823000Y-40493000D01*
X108077000Y-40493000D01*
X108077000Y-40513000D01*
X109436217Y-40513000D01*
X109557358Y-40280974D01*
X109554709Y-40265209D01*
X109300732Y-39737964D01*
X108884931Y-39366461D01*
X109194415Y-39159670D01*
X109519271Y-38673489D01*
X109633345Y-38100000D01*
X109519271Y-37526511D01*
X109194415Y-37040330D01*
X109180087Y-37030757D01*
X109201317Y-37026762D01*
X109417441Y-36887690D01*
X109562431Y-36675490D01*
X109613440Y-36423600D01*
X109613440Y-34696400D01*
X109569162Y-34461083D01*
X109430090Y-34244959D01*
X109217890Y-34099969D01*
X108966000Y-34048960D01*
X106934000Y-34048960D01*
X106698683Y-34093238D01*
X106482559Y-34232310D01*
X106337569Y-34444510D01*
X106286560Y-34696400D01*
X106286560Y-36423600D01*
X106330838Y-36658917D01*
X106469910Y-36875041D01*
X106682110Y-37020031D01*
X106723439Y-37028400D01*
X106705585Y-37040330D01*
X106380729Y-37526511D01*
X106266655Y-38100000D01*
X103918345Y-38100000D01*
X103804271Y-37526511D01*
X103479415Y-37040330D01*
X103465087Y-37030757D01*
X103486317Y-37026762D01*
X103702441Y-36887690D01*
X103847431Y-36675490D01*
X103898440Y-36423600D01*
X103898440Y-34696400D01*
X103854162Y-34461083D01*
X103715090Y-34244959D01*
X103502890Y-34099969D01*
X103251000Y-34048960D01*
X101219000Y-34048960D01*
X100983683Y-34093238D01*
X100767559Y-34232310D01*
X100622569Y-34444510D01*
X100571560Y-34696400D01*
X100571560Y-36423600D01*
X100615838Y-36658917D01*
X100754910Y-36875041D01*
X100967110Y-37020031D01*
X101008439Y-37028400D01*
X100990585Y-37040330D01*
X100665729Y-37526511D01*
X100551655Y-38100000D01*
X89516580Y-38100000D01*
X86985790Y-35569210D01*
X86736750Y-35402808D01*
X86698675Y-35377367D01*
X86624231Y-35362559D01*
X86360000Y-35309999D01*
X86359995Y-35310000D01*
X67616822Y-35310000D01*
X67496799Y-35260162D01*
X67124833Y-35259838D01*
X66781057Y-35401883D01*
X66517808Y-35664673D01*
X66375162Y-36008201D01*
X66374838Y-36380167D01*
X29603440Y-36380167D01*
X29603440Y-35814000D01*
X29559162Y-35578683D01*
X29420090Y-35362559D01*
X29257052Y-35251160D01*
X29346385Y-35154818D01*
X29545975Y-34672944D01*
X29426836Y-34417000D01*
X28067000Y-34417000D01*
X28067000Y-34437000D01*
X27813000Y-34437000D01*
X27813000Y-34417000D01*
X26453164Y-34417000D01*
X26334025Y-34672944D01*
X26533615Y-35154818D01*
X26624097Y-35252398D01*
X26472559Y-35349910D01*
X26327569Y-35562110D01*
X26276560Y-35814000D01*
X26110000Y-35814000D01*
X26110000Y-33907056D01*
X26334025Y-33907056D01*
X26453164Y-34163000D01*
X27813000Y-34163000D01*
X27813000Y-32802633D01*
X28067000Y-32802633D01*
X28067000Y-34163000D01*
X29426836Y-34163000D01*
X29453715Y-34105255D01*
X87401400Y-34105255D01*
X87401400Y-34474745D01*
X87515474Y-35048234D01*
X87840330Y-35534415D01*
X88326511Y-35859271D01*
X88900000Y-35973345D01*
X89473489Y-35859271D01*
X89959670Y-35534415D01*
X90170000Y-35219634D01*
X90380330Y-35534415D01*
X90866511Y-35859271D01*
X91440000Y-35973345D01*
X92013489Y-35859271D01*
X92499670Y-35534415D01*
X92706461Y-35224931D01*
X93077964Y-35640732D01*
X93605209Y-35894709D01*
X93620974Y-35897358D01*
X93853000Y-35776217D01*
X93853000Y-34417000D01*
X93833000Y-34417000D01*
X93833000Y-34163000D01*
X93853000Y-34163000D01*
X93853000Y-32803783D01*
X94107000Y-32803783D01*
X94107000Y-34163000D01*
X94127000Y-34163000D01*
X94127000Y-34417000D01*
X94107000Y-34417000D01*
X94107000Y-35776217D01*
X94339026Y-35897358D01*
X94354791Y-35894709D01*
X94882036Y-35640732D01*
X95038907Y-35465155D01*
X95053238Y-35541317D01*
X95192310Y-35757441D01*
X95404510Y-35902431D01*
X95656400Y-35953440D01*
X97383600Y-35953440D01*
X97618917Y-35909162D01*
X97835041Y-35770090D01*
X97980031Y-35557890D01*
X98031040Y-35306000D01*
X98031040Y-33274000D01*
X97986762Y-33038683D01*
X97847690Y-32822559D01*
X97635490Y-32677569D01*
X97383600Y-32626560D01*
X95656400Y-32626560D01*
X95421083Y-32670838D01*
X95204959Y-32809910D01*
X95059969Y-33022110D01*
X95040768Y-33116927D01*
X94882036Y-32939268D01*
X94354791Y-32685291D01*
X94339026Y-32682642D01*
X94107000Y-32803783D01*
X93853000Y-32803783D01*
X93620974Y-32682642D01*
X93605209Y-32685291D01*
X93077964Y-32939268D01*
X92706461Y-33355069D01*
X92499670Y-33045585D01*
X92013489Y-32720729D01*
X91440000Y-32606655D01*
X90866511Y-32720729D01*
X90380330Y-33045585D01*
X90170000Y-33360366D01*
X89959670Y-33045585D01*
X89473489Y-32720729D01*
X88900000Y-32606655D01*
X88326511Y-32720729D01*
X87840330Y-33045585D01*
X87515474Y-33531766D01*
X87401400Y-34105255D01*
X29453715Y-34105255D01*
X29545975Y-33907056D01*
X29346385Y-33425182D01*
X28908379Y-32952812D01*
X28322946Y-32684017D01*
X28067000Y-32802633D01*
X27813000Y-32802633D01*
X27557054Y-32684017D01*
X26971621Y-32952812D01*
X26533615Y-33425182D01*
X26334025Y-33907056D01*
X26110000Y-33907056D01*
X26110000Y-31220861D01*
X26442460Y-30130750D01*
X42951400Y-30130750D01*
X42951400Y-30834909D01*
X43048073Y-31068298D01*
X43226701Y-31246927D01*
X43460090Y-31343600D01*
X44164250Y-31343600D01*
X44323000Y-31184850D01*
X44323000Y-29972000D01*
X43110150Y-29972000D01*
X42951400Y-30130750D01*
X26442460Y-30130750D01*
X26764290Y-29075500D01*
X26945726Y-28855091D01*
X42951400Y-28855091D01*
X42951400Y-29559250D01*
X43110150Y-29718000D01*
X44323000Y-29718000D01*
X44323000Y-27432000D01*
X43115531Y-27432000D01*
X42995032Y-27664027D01*
X43243179Y-28193490D01*
X43426119Y-28360471D01*
X43226701Y-28443073D01*
X43048073Y-28621702D01*
X42951400Y-28855091D01*
X26945726Y-28855091D01*
X28167293Y-27371133D01*
X30115730Y-26333412D01*
X32419345Y-26110000D01*
X43578984Y-26110000D01*
X43243179Y-26416510D01*
G36*
X105285000Y-74615198D02*
X103825198Y-76075000D01*
X101714210Y-76075000D01*
X101784968Y-75924027D01*
X101664469Y-75692000D01*
X100457000Y-75692000D01*
X100457000Y-75712000D01*
X100203000Y-75712000D01*
X100203000Y-75692000D01*
X97917000Y-75692000D01*
X97917000Y-75712000D01*
X97663000Y-75712000D01*
X97663000Y-75692000D01*
X97643000Y-75692000D01*
X97643000Y-75438000D01*
X97663000Y-75438000D01*
X97663000Y-75418000D01*
X97917000Y-75418000D01*
X97917000Y-75438000D01*
X100203000Y-75438000D01*
X100203000Y-75418000D01*
X100457000Y-75418000D01*
X100457000Y-75438000D01*
X101664469Y-75438000D01*
X101784968Y-75205973D01*
X101536821Y-74676510D01*
X101255795Y-74420000D01*
X102870000Y-74420000D01*
X103160839Y-74362148D01*
X103407401Y-74197401D01*
X105285000Y-72319802D01*
X105285000Y-74615198D01*
X105285000Y-74615198D01*
G37*
X105285000Y-74615198D02*
X103825198Y-76075000D01*
X101714210Y-76075000D01*
X101784968Y-75924027D01*
X101664469Y-75692000D01*
X100457000Y-75692000D01*
X100457000Y-75712000D01*
X100203000Y-75712000D01*
X100203000Y-75692000D01*
X97917000Y-75692000D01*
X97917000Y-75712000D01*
X97663000Y-75712000D01*
X97663000Y-75692000D01*
X97643000Y-75692000D01*
X97643000Y-75438000D01*
X97663000Y-75438000D01*
X97663000Y-75418000D01*
X97917000Y-75418000D01*
X97917000Y-75438000D01*
X100203000Y-75438000D01*
X100203000Y-75418000D01*
X100457000Y-75418000D01*
X100457000Y-75438000D01*
X101664469Y-75438000D01*
X101784968Y-75205973D01*
X101536821Y-74676510D01*
X101255795Y-74420000D01*
X102870000Y-74420000D01*
X103160839Y-74362148D01*
X103407401Y-74197401D01*
X105285000Y-72319802D01*
X105285000Y-74615198D01*
G36*
X101265291Y-68840209D02*
X101262642Y-68855974D01*
X101383783Y-69088000D01*
X102743000Y-69088000D01*
X102743000Y-69068000D01*
X102997000Y-69068000D01*
X102997000Y-69088000D01*
X103017000Y-69088000D01*
X103017000Y-69342000D01*
X102997000Y-69342000D01*
X102997000Y-70555924D01*
X103231913Y-70700184D01*
X103784320Y-70506954D01*
X104015000Y-70300850D01*
X104015000Y-71440198D01*
X102555198Y-72900000D01*
X97084802Y-72900000D01*
X100410776Y-69574026D01*
X101262642Y-69574026D01*
X101265291Y-69589791D01*
X101519268Y-70117036D01*
X101955680Y-70506954D01*
X102508087Y-70700184D01*
X102743000Y-70555924D01*
X102743000Y-69342000D01*
X101383783Y-69342000D01*
X101262642Y-69574026D01*
X100410776Y-69574026D01*
X101377468Y-68607334D01*
X101265291Y-68840209D01*
X101265291Y-68840209D01*
G37*
X101265291Y-68840209D02*
X101262642Y-68855974D01*
X101383783Y-69088000D01*
X102743000Y-69088000D01*
X102743000Y-69068000D01*
X102997000Y-69068000D01*
X102997000Y-69088000D01*
X103017000Y-69088000D01*
X103017000Y-69342000D01*
X102997000Y-69342000D01*
X102997000Y-70555924D01*
X103231913Y-70700184D01*
X103784320Y-70506954D01*
X104015000Y-70300850D01*
X104015000Y-71440198D01*
X102555198Y-72900000D01*
X97084802Y-72900000D01*
X100410776Y-69574026D01*
X101262642Y-69574026D01*
X101265291Y-69589791D01*
X101519268Y-70117036D01*
X101955680Y-70506954D01*
X102508087Y-70700184D01*
X102743000Y-70555924D01*
X102743000Y-69342000D01*
X101383783Y-69342000D01*
X101262642Y-69574026D01*
X100410776Y-69574026D01*
X101377468Y-68607334D01*
X101265291Y-68840209D01*
G36*
X106807000Y-57658000D02*
X106827000Y-57658000D01*
X106827000Y-57912000D01*
X106807000Y-57912000D01*
X106807000Y-59119469D01*
X107039027Y-59239968D01*
X107190000Y-59169210D01*
X107190000Y-60645198D01*
X105535000Y-62300198D01*
X105535000Y-58710795D01*
X105791510Y-58991821D01*
X106320973Y-59239968D01*
X106553000Y-59119469D01*
X106553000Y-57912000D01*
X106533000Y-57912000D01*
X106533000Y-57658000D01*
X106553000Y-57658000D01*
X106553000Y-57638000D01*
X106807000Y-57638000D01*
X106807000Y-57658000D01*
X106807000Y-57658000D01*
G37*
X106807000Y-57658000D02*
X106827000Y-57658000D01*
X106827000Y-57912000D01*
X106807000Y-57912000D01*
X106807000Y-59119469D01*
X107039027Y-59239968D01*
X107190000Y-59169210D01*
X107190000Y-60645198D01*
X105535000Y-62300198D01*
X105535000Y-58710795D01*
X105791510Y-58991821D01*
X106320973Y-59239968D01*
X106553000Y-59119469D01*
X106553000Y-57912000D01*
X106533000Y-57912000D01*
X106533000Y-57658000D01*
X106553000Y-57658000D01*
X106553000Y-57638000D01*
X106807000Y-57638000D01*
X106807000Y-57658000D01*
M02*
