G04 #@! TF.FileFunction,Copper,L1,Top,Signal*
%FSLAX46Y46*%
G04 Gerber Fmt 4.6, Leading zero omitted, Abs format (unit mm)*
G04 Created by KiCad (PCBNEW 4.0.3-1.fc24-product) date Mon Dec 12 17:16:37 2016*
%MOMM*%
%LPD*%
G01*
G04 APERTURE LIST*
%ADD10C,0.100000*%
%ADD11R,3.000000X1.000000*%
%ADD12R,1.250000X1.000000*%
%ADD13R,1.000000X1.250000*%
%ADD14R,2.000000X2.500000*%
%ADD15R,1.600000X1.000000*%
%ADD16R,2.032000X2.032000*%
%ADD17O,2.032000X2.032000*%
%ADD18R,1.727200X1.727200*%
%ADD19O,1.727200X1.727200*%
%ADD20R,1.727200X2.032000*%
%ADD21O,1.727200X2.032000*%
%ADD22R,2.032000X1.727200*%
%ADD23O,2.032000X1.727200*%
%ADD24R,1.300000X0.700000*%
%ADD25O,1.473200X0.609600*%
%ADD26R,0.700000X1.300000*%
%ADD27C,0.600000*%
%ADD28C,1.000000*%
%ADD29C,0.250000*%
%ADD30C,0.500000*%
%ADD31C,0.254000*%
G04 APERTURE END LIST*
D10*
D11*
X33020000Y-66435000D03*
X33020000Y-61835000D03*
D12*
X45085000Y-72755000D03*
X45085000Y-70755000D03*
D13*
X49800000Y-57150000D03*
X51800000Y-57150000D03*
D12*
X45085000Y-67675000D03*
X45085000Y-65675000D03*
X58420000Y-69485000D03*
X58420000Y-71485000D03*
D14*
X59485000Y-57150000D03*
X56085000Y-57150000D03*
D15*
X40005000Y-68810000D03*
X40005000Y-65810000D03*
D16*
X27305000Y-65405000D03*
D17*
X27305000Y-62865000D03*
D16*
X40005000Y-75565000D03*
D17*
X40005000Y-73025000D03*
D18*
X44450000Y-78105000D03*
D19*
X44450000Y-75565000D03*
X46990000Y-78105000D03*
X46990000Y-75565000D03*
X49530000Y-78105000D03*
X49530000Y-75565000D03*
X52070000Y-78105000D03*
X52070000Y-75565000D03*
X54610000Y-78105000D03*
X54610000Y-75565000D03*
X57150000Y-78105000D03*
X57150000Y-75565000D03*
X59690000Y-78105000D03*
X59690000Y-75565000D03*
X62230000Y-78105000D03*
X62230000Y-75565000D03*
X64770000Y-78105000D03*
X64770000Y-75565000D03*
X67310000Y-78105000D03*
X67310000Y-75565000D03*
X69850000Y-78105000D03*
X69850000Y-75565000D03*
X72390000Y-78105000D03*
X72390000Y-75565000D03*
X74930000Y-78105000D03*
X74930000Y-75565000D03*
X77470000Y-78105000D03*
X77470000Y-75565000D03*
X80010000Y-78105000D03*
X80010000Y-75565000D03*
X82550000Y-78105000D03*
X82550000Y-75565000D03*
X85090000Y-78105000D03*
X85090000Y-75565000D03*
X87630000Y-78105000D03*
X87630000Y-75565000D03*
X90170000Y-78105000D03*
X90170000Y-75565000D03*
X92710000Y-78105000D03*
X92710000Y-75565000D03*
X95250000Y-78105000D03*
X95250000Y-75565000D03*
X97790000Y-78105000D03*
X97790000Y-75565000D03*
X100330000Y-78105000D03*
X100330000Y-75565000D03*
D18*
X44450000Y-29845000D03*
D19*
X44450000Y-27305000D03*
X46990000Y-29845000D03*
X46990000Y-27305000D03*
X49530000Y-29845000D03*
X49530000Y-27305000D03*
X52070000Y-29845000D03*
X52070000Y-27305000D03*
X54610000Y-29845000D03*
X54610000Y-27305000D03*
X57150000Y-29845000D03*
X57150000Y-27305000D03*
X59690000Y-29845000D03*
X59690000Y-27305000D03*
X62230000Y-29845000D03*
X62230000Y-27305000D03*
X64770000Y-29845000D03*
X64770000Y-27305000D03*
X67310000Y-29845000D03*
X67310000Y-27305000D03*
X69850000Y-29845000D03*
X69850000Y-27305000D03*
X72390000Y-29845000D03*
X72390000Y-27305000D03*
X74930000Y-29845000D03*
X74930000Y-27305000D03*
X77470000Y-29845000D03*
X77470000Y-27305000D03*
X80010000Y-29845000D03*
X80010000Y-27305000D03*
X82550000Y-29845000D03*
X82550000Y-27305000D03*
X85090000Y-29845000D03*
X85090000Y-27305000D03*
X87630000Y-29845000D03*
X87630000Y-27305000D03*
X90170000Y-29845000D03*
X90170000Y-27305000D03*
X92710000Y-29845000D03*
X92710000Y-27305000D03*
X95250000Y-29845000D03*
X95250000Y-27305000D03*
X97790000Y-29845000D03*
X97790000Y-27305000D03*
X100330000Y-29845000D03*
X100330000Y-27305000D03*
D18*
X106680000Y-47625000D03*
D19*
X109220000Y-47625000D03*
X106680000Y-50165000D03*
X109220000Y-50165000D03*
X106680000Y-52705000D03*
X109220000Y-52705000D03*
X106680000Y-55245000D03*
X109220000Y-55245000D03*
X106680000Y-57785000D03*
X109220000Y-57785000D03*
D20*
X96520000Y-34290000D03*
D21*
X93980000Y-34290000D03*
X91440000Y-34290000D03*
X88900000Y-34290000D03*
D22*
X107950000Y-35560000D03*
D23*
X107950000Y-38100000D03*
X107950000Y-40640000D03*
D22*
X102235000Y-35560000D03*
D23*
X102235000Y-38100000D03*
X102235000Y-40640000D03*
D22*
X102870000Y-64135000D03*
D23*
X102870000Y-66675000D03*
X102870000Y-69215000D03*
D22*
X107950000Y-64135000D03*
D23*
X107950000Y-66675000D03*
X107950000Y-69215000D03*
D24*
X62230000Y-71435000D03*
X62230000Y-69535000D03*
X62230000Y-64450000D03*
X62230000Y-62550000D03*
X48260000Y-69535000D03*
X48260000Y-71435000D03*
X51435000Y-69535000D03*
X51435000Y-71435000D03*
X54610000Y-69535000D03*
X54610000Y-71435000D03*
D25*
X51816000Y-62230000D03*
X51816000Y-63500000D03*
X51816000Y-64770000D03*
X51816000Y-66040000D03*
X57404000Y-66040000D03*
X57404000Y-64770000D03*
X57404000Y-63500000D03*
X57404000Y-62230000D03*
D26*
X89855000Y-71120000D03*
X91755000Y-71120000D03*
X94300000Y-71120000D03*
X96200000Y-71120000D03*
D22*
X83185000Y-61595000D03*
D23*
X83185000Y-59055000D03*
X83185000Y-56515000D03*
X83185000Y-53975000D03*
X83185000Y-51435000D03*
X83185000Y-48895000D03*
X83185000Y-46355000D03*
X83185000Y-43815000D03*
X83185000Y-41275000D03*
X83185000Y-38735000D03*
D27*
X48768000Y-66040000D03*
X46736000Y-71120000D03*
X53340000Y-69215000D03*
X36830000Y-69215000D03*
X88900000Y-56515000D03*
X69850000Y-69850000D03*
X104775000Y-43815000D03*
X102235000Y-59690000D03*
X57150000Y-67945000D03*
X56515000Y-71755000D03*
D28*
X87122000Y-71882000D03*
X65278000Y-71374000D03*
D29*
X51816000Y-66040000D02*
X48768000Y-66040000D01*
X48403000Y-65675000D02*
X48768000Y-66040000D01*
X48403000Y-65675000D02*
X45085000Y-65675000D01*
X45085000Y-70755000D02*
X46371000Y-70755000D01*
X46371000Y-70755000D02*
X46736000Y-71120000D01*
X45085000Y-72755000D02*
X46940000Y-72755000D01*
X46940000Y-72755000D02*
X48260000Y-71435000D01*
X49800000Y-57150000D02*
X49800000Y-56245000D01*
X54815000Y-55880000D02*
X56085000Y-57150000D01*
X50165000Y-55880000D02*
X54815000Y-55880000D01*
X49800000Y-56245000D02*
X50165000Y-55880000D01*
X51816000Y-62230000D02*
X51816000Y-57166000D01*
X51816000Y-57166000D02*
X51800000Y-57150000D01*
X57404000Y-64770000D02*
X55245000Y-64770000D01*
X50165000Y-67310000D02*
X49530000Y-67945000D01*
X52705000Y-67310000D02*
X50165000Y-67310000D01*
X55245000Y-64770000D02*
X52705000Y-67310000D01*
X48260000Y-69535000D02*
X48260000Y-69215000D01*
X48260000Y-69215000D02*
X49530000Y-67945000D01*
X45085000Y-67675000D02*
X46400000Y-67675000D01*
X46400000Y-67675000D02*
X48260000Y-69535000D01*
X54610000Y-69535000D02*
X53660000Y-69535000D01*
X53660000Y-69535000D02*
X53340000Y-69215000D01*
X58420000Y-69485000D02*
X54660000Y-69485000D01*
X54660000Y-69485000D02*
X54610000Y-69535000D01*
X36830000Y-69215000D02*
X37235000Y-68810000D01*
X37235000Y-68810000D02*
X40005000Y-68810000D01*
X40005000Y-65810000D02*
X40005000Y-65405000D01*
X40005000Y-65405000D02*
X40640000Y-64770000D01*
X40640000Y-64770000D02*
X51816000Y-64770000D01*
X109220000Y-47625000D02*
X106680000Y-47625000D01*
X106680000Y-47625000D02*
X104775000Y-47625000D01*
X96520000Y-39370000D02*
X96520000Y-34290000D01*
X104775000Y-47625000D02*
X96520000Y-39370000D01*
X96520000Y-34290000D02*
X96520000Y-54610000D01*
X89535000Y-61595000D02*
X83185000Y-61595000D01*
X96520000Y-54610000D02*
X89535000Y-61595000D01*
X91440000Y-34290000D02*
X91440000Y-53975000D01*
X91440000Y-53975000D02*
X88900000Y-56515000D01*
X83185000Y-56515000D02*
X81280000Y-56515000D01*
X68580000Y-76835000D02*
X67310000Y-78105000D01*
X68580000Y-69215000D02*
X68580000Y-76835000D01*
X81280000Y-56515000D02*
X68580000Y-69215000D01*
X88900000Y-34290000D02*
X81915000Y-34290000D01*
X81280000Y-52070000D02*
X83185000Y-53975000D01*
X81280000Y-34925000D02*
X81280000Y-52070000D01*
X81915000Y-34290000D02*
X81280000Y-34925000D01*
X67945000Y-72390000D02*
X67945000Y-74930000D01*
X67945000Y-74930000D02*
X67310000Y-75565000D01*
X67945000Y-68580000D02*
X82550000Y-53975000D01*
X67945000Y-72390000D02*
X67945000Y-68580000D01*
X82550000Y-53975000D02*
X83185000Y-53975000D01*
X107950000Y-35560000D02*
X106045000Y-35560000D01*
X69850000Y-69850000D02*
X69850000Y-75565000D01*
X104775000Y-36830000D02*
X104775000Y-43815000D01*
X106045000Y-35560000D02*
X104775000Y-36830000D01*
X71120000Y-73660000D02*
X71120000Y-68580000D01*
X85090000Y-45085000D02*
X85090000Y-56515000D01*
X85090000Y-56515000D02*
X83820000Y-57785000D01*
X83820000Y-57785000D02*
X81915000Y-57785000D01*
X81915000Y-57785000D02*
X71120000Y-68580000D01*
X83820000Y-43815000D02*
X85090000Y-45085000D01*
X71120000Y-76835000D02*
X72390000Y-78105000D01*
X71120000Y-73660000D02*
X71120000Y-76835000D01*
X83185000Y-43815000D02*
X83820000Y-43815000D01*
X78740000Y-74295000D02*
X85090000Y-67945000D01*
X85090000Y-67945000D02*
X86360000Y-67945000D01*
X109220000Y-55245000D02*
X107950000Y-56515000D01*
X92710000Y-67945000D02*
X86360000Y-67945000D01*
X104140000Y-56515000D02*
X92710000Y-67945000D01*
X106045000Y-56515000D02*
X104140000Y-56515000D01*
X107950000Y-56515000D02*
X106045000Y-56515000D01*
X78740000Y-76835000D02*
X77470000Y-78105000D01*
X78740000Y-74295000D02*
X78740000Y-76835000D01*
X77470000Y-75565000D02*
X77470000Y-73660000D01*
X85090000Y-66040000D02*
X87630000Y-66040000D01*
X77470000Y-73660000D02*
X85090000Y-66040000D01*
X106680000Y-55245000D02*
X104140000Y-55245000D01*
X93345000Y-66040000D02*
X87630000Y-66040000D01*
X104140000Y-55245000D02*
X93345000Y-66040000D01*
X102235000Y-59690000D02*
X93345000Y-68580000D01*
X81280000Y-73660000D02*
X81280000Y-73025000D01*
X85725000Y-68580000D02*
X93345000Y-68580000D01*
X81280000Y-73025000D02*
X85725000Y-68580000D01*
X80010000Y-78105000D02*
X81280000Y-76835000D01*
X81280000Y-76835000D02*
X81280000Y-73660000D01*
X97790000Y-65405000D02*
X101600000Y-61595000D01*
X83820000Y-77470000D02*
X83820000Y-73660000D01*
X83185000Y-78105000D02*
X83820000Y-77470000D01*
X83820000Y-71755000D02*
X86360000Y-69215000D01*
X86360000Y-69215000D02*
X93980000Y-69215000D01*
X83820000Y-73660000D02*
X83820000Y-71755000D01*
X93980000Y-69215000D02*
X97790000Y-65405000D01*
X111125000Y-52070000D02*
X109220000Y-50165000D01*
X111125000Y-59690000D02*
X111125000Y-52070000D01*
X109220000Y-61595000D02*
X111125000Y-59690000D01*
X101600000Y-61595000D02*
X109220000Y-61595000D01*
X82550000Y-78105000D02*
X83185000Y-78105000D01*
X94300000Y-71120000D02*
X94300000Y-73975000D01*
X93980000Y-76835000D02*
X92710000Y-78105000D01*
X93980000Y-74295000D02*
X93980000Y-76835000D01*
X94300000Y-73975000D02*
X93980000Y-74295000D01*
X94300000Y-71120000D02*
X93345000Y-71120000D01*
X93345000Y-71120000D02*
X91755000Y-71120000D01*
X107950000Y-64135000D02*
X106045000Y-64135000D01*
X98425000Y-72390000D02*
X95250000Y-75565000D01*
X102870000Y-72390000D02*
X98425000Y-72390000D01*
X105410000Y-69850000D02*
X102870000Y-72390000D01*
X105410000Y-64770000D02*
X105410000Y-69850000D01*
X106045000Y-64135000D02*
X105410000Y-64770000D01*
X102235000Y-35560000D02*
X102235000Y-34290000D01*
X69850000Y-32385000D02*
X67310000Y-29845000D01*
X100330000Y-32385000D02*
X69850000Y-32385000D01*
X102235000Y-34290000D02*
X100330000Y-32385000D01*
X83185000Y-48895000D02*
X83820000Y-48895000D01*
X57404000Y-63500000D02*
X61280000Y-63500000D01*
X61280000Y-63500000D02*
X62230000Y-64450000D01*
X62230000Y-64450000D02*
X62230000Y-69535000D01*
X54610000Y-71435000D02*
X56195000Y-71435000D01*
X57404000Y-67691000D02*
X57404000Y-66040000D01*
X57150000Y-67945000D02*
X57404000Y-67691000D01*
X56195000Y-71435000D02*
X56515000Y-71755000D01*
X57404000Y-66040000D02*
X55245000Y-66040000D01*
X55245000Y-66040000D02*
X51750000Y-69535000D01*
X51750000Y-69535000D02*
X51435000Y-69535000D01*
D30*
X62230000Y-71435000D02*
X65217000Y-71435000D01*
X87884000Y-71120000D02*
X89855000Y-71120000D01*
X87122000Y-71882000D02*
X87884000Y-71120000D01*
X65217000Y-71435000D02*
X65278000Y-71374000D01*
X33020000Y-66435000D02*
X28335000Y-66435000D01*
X28335000Y-66435000D02*
X27305000Y-65405000D01*
X33020000Y-66435000D02*
X33020000Y-64770000D01*
X34290000Y-63500000D02*
X51816000Y-63500000D01*
X33020000Y-64770000D02*
X34290000Y-63500000D01*
D29*
X62230000Y-71435000D02*
X62230000Y-71120000D01*
X62230000Y-71120000D02*
X61595000Y-70485000D01*
X61595000Y-70485000D02*
X46990000Y-70485000D01*
X46990000Y-70485000D02*
X45720000Y-69215000D01*
X45720000Y-69215000D02*
X42545000Y-69215000D01*
X42545000Y-69215000D02*
X41275000Y-70485000D01*
X41275000Y-70485000D02*
X37070000Y-70485000D01*
X37070000Y-70485000D02*
X33020000Y-66435000D01*
D31*
G36*
X43243179Y-26416510D02*
X42995032Y-26945973D01*
X43115531Y-27178000D01*
X44323000Y-27178000D01*
X44323000Y-27158000D01*
X44577000Y-27158000D01*
X44577000Y-27178000D01*
X44597000Y-27178000D01*
X44597000Y-27432000D01*
X44577000Y-27432000D01*
X44577000Y-29718000D01*
X44597000Y-29718000D01*
X44597000Y-29972000D01*
X44577000Y-29972000D01*
X44577000Y-31184850D01*
X44735750Y-31343600D01*
X45439910Y-31343600D01*
X45673299Y-31246927D01*
X45851927Y-31068298D01*
X45916263Y-30912977D01*
X45930330Y-30934029D01*
X46416511Y-31258885D01*
X46990000Y-31372959D01*
X47563489Y-31258885D01*
X48049670Y-30934029D01*
X48260000Y-30619248D01*
X48470330Y-30934029D01*
X48956511Y-31258885D01*
X49530000Y-31372959D01*
X50103489Y-31258885D01*
X50589670Y-30934029D01*
X50800000Y-30619248D01*
X51010330Y-30934029D01*
X51496511Y-31258885D01*
X52070000Y-31372959D01*
X52643489Y-31258885D01*
X53129670Y-30934029D01*
X53340000Y-30619248D01*
X53550330Y-30934029D01*
X54036511Y-31258885D01*
X54610000Y-31372959D01*
X55183489Y-31258885D01*
X55669670Y-30934029D01*
X55880000Y-30619248D01*
X56090330Y-30934029D01*
X56576511Y-31258885D01*
X57150000Y-31372959D01*
X57723489Y-31258885D01*
X58209670Y-30934029D01*
X58420000Y-30619248D01*
X58630330Y-30934029D01*
X59116511Y-31258885D01*
X59690000Y-31372959D01*
X60263489Y-31258885D01*
X60749670Y-30934029D01*
X60960000Y-30619248D01*
X61170330Y-30934029D01*
X61656511Y-31258885D01*
X62230000Y-31372959D01*
X62803489Y-31258885D01*
X63289670Y-30934029D01*
X63500000Y-30619248D01*
X63710330Y-30934029D01*
X64196511Y-31258885D01*
X64770000Y-31372959D01*
X65343489Y-31258885D01*
X65829670Y-30934029D01*
X66040000Y-30619248D01*
X66250330Y-30934029D01*
X66736511Y-31258885D01*
X67310000Y-31372959D01*
X67687973Y-31297775D01*
X69312599Y-32922401D01*
X69559160Y-33087148D01*
X69607414Y-33096746D01*
X69850000Y-33145000D01*
X87773903Y-33145000D01*
X87516654Y-33530000D01*
X81915000Y-33530000D01*
X81624161Y-33587852D01*
X81377599Y-33752599D01*
X80742599Y-34387599D01*
X80577852Y-34634161D01*
X80520000Y-34925000D01*
X80520000Y-52070000D01*
X80577852Y-52360839D01*
X80742599Y-52607401D01*
X81602619Y-53467421D01*
X81508224Y-53941974D01*
X67407599Y-68042599D01*
X67242852Y-68289161D01*
X67185000Y-68580000D01*
X67185000Y-74061905D01*
X66736511Y-74151115D01*
X66250330Y-74475971D01*
X66040000Y-74790752D01*
X65829670Y-74475971D01*
X65343489Y-74151115D01*
X64770000Y-74037041D01*
X64196511Y-74151115D01*
X63710330Y-74475971D01*
X63500000Y-74790752D01*
X63289670Y-74475971D01*
X62803489Y-74151115D01*
X62230000Y-74037041D01*
X61656511Y-74151115D01*
X61170330Y-74475971D01*
X60960000Y-74790752D01*
X60749670Y-74475971D01*
X60263489Y-74151115D01*
X59690000Y-74037041D01*
X59116511Y-74151115D01*
X58630330Y-74475971D01*
X58420000Y-74790752D01*
X58209670Y-74475971D01*
X57723489Y-74151115D01*
X57150000Y-74037041D01*
X56576511Y-74151115D01*
X56090330Y-74475971D01*
X55880000Y-74790752D01*
X55669670Y-74475971D01*
X55183489Y-74151115D01*
X54610000Y-74037041D01*
X54036511Y-74151115D01*
X53550330Y-74475971D01*
X53340000Y-74790752D01*
X53129670Y-74475971D01*
X52643489Y-74151115D01*
X52070000Y-74037041D01*
X51496511Y-74151115D01*
X51010330Y-74475971D01*
X50800000Y-74790752D01*
X50589670Y-74475971D01*
X50103489Y-74151115D01*
X49530000Y-74037041D01*
X48956511Y-74151115D01*
X48470330Y-74475971D01*
X48260000Y-74790752D01*
X48049670Y-74475971D01*
X47563489Y-74151115D01*
X46990000Y-74037041D01*
X46416511Y-74151115D01*
X45930330Y-74475971D01*
X45714336Y-74799228D01*
X45656821Y-74676510D01*
X45224947Y-74282312D01*
X44809026Y-74110042D01*
X44577000Y-74231183D01*
X44577000Y-75438000D01*
X44597000Y-75438000D01*
X44597000Y-75692000D01*
X44577000Y-75692000D01*
X44577000Y-77978000D01*
X44597000Y-77978000D01*
X44597000Y-78232000D01*
X44577000Y-78232000D01*
X44577000Y-78252000D01*
X44323000Y-78252000D01*
X44323000Y-78232000D01*
X43110150Y-78232000D01*
X42951400Y-78390750D01*
X42951400Y-79094909D01*
X43036352Y-79300000D01*
X31220861Y-79300000D01*
X29075500Y-78645710D01*
X27371133Y-77242707D01*
X26333412Y-75294271D01*
X26261134Y-74549000D01*
X38341560Y-74549000D01*
X38341560Y-76581000D01*
X38385838Y-76816317D01*
X38524910Y-77032441D01*
X38737110Y-77177431D01*
X38989000Y-77228440D01*
X41021000Y-77228440D01*
X41256317Y-77184162D01*
X41363656Y-77115091D01*
X42951400Y-77115091D01*
X42951400Y-77819250D01*
X43110150Y-77978000D01*
X44323000Y-77978000D01*
X44323000Y-75692000D01*
X43115531Y-75692000D01*
X42995032Y-75924027D01*
X43243179Y-76453490D01*
X43426119Y-76620471D01*
X43226701Y-76703073D01*
X43048073Y-76881702D01*
X42951400Y-77115091D01*
X41363656Y-77115091D01*
X41472441Y-77045090D01*
X41617431Y-76832890D01*
X41668440Y-76581000D01*
X41668440Y-75205973D01*
X42995032Y-75205973D01*
X43115531Y-75438000D01*
X44323000Y-75438000D01*
X44323000Y-74231183D01*
X44090974Y-74110042D01*
X43675053Y-74282312D01*
X43243179Y-74676510D01*
X42995032Y-75205973D01*
X41668440Y-75205973D01*
X41668440Y-74549000D01*
X41624162Y-74313683D01*
X41485090Y-74097559D01*
X41322052Y-73986160D01*
X41411385Y-73889818D01*
X41610975Y-73407944D01*
X41491836Y-73152000D01*
X40132000Y-73152000D01*
X40132000Y-73172000D01*
X39878000Y-73172000D01*
X39878000Y-73152000D01*
X38518164Y-73152000D01*
X38399025Y-73407944D01*
X38598615Y-73889818D01*
X38689097Y-73987398D01*
X38537559Y-74084910D01*
X38392569Y-74297110D01*
X38341560Y-74549000D01*
X26261134Y-74549000D01*
X26110000Y-72990654D01*
X26110000Y-72642056D01*
X38399025Y-72642056D01*
X38518164Y-72898000D01*
X39878000Y-72898000D01*
X39878000Y-71537633D01*
X40132000Y-71537633D01*
X40132000Y-72898000D01*
X41491836Y-72898000D01*
X41610975Y-72642056D01*
X41411385Y-72160182D01*
X40973379Y-71687812D01*
X40387946Y-71419017D01*
X40132000Y-71537633D01*
X39878000Y-71537633D01*
X39622054Y-71419017D01*
X39036621Y-71687812D01*
X38598615Y-72160182D01*
X38399025Y-72642056D01*
X26110000Y-72642056D01*
X26110000Y-67032192D01*
X26289000Y-67068440D01*
X27720659Y-67068440D01*
X27996325Y-67252633D01*
X28015409Y-67256429D01*
X28335000Y-67320001D01*
X28335005Y-67320000D01*
X31013156Y-67320000D01*
X31055910Y-67386441D01*
X31268110Y-67531431D01*
X31520000Y-67582440D01*
X33092638Y-67582440D01*
X36532599Y-71022401D01*
X36779161Y-71187148D01*
X37070000Y-71245000D01*
X41275000Y-71245000D01*
X41565839Y-71187148D01*
X41812401Y-71022401D01*
X42859802Y-69975000D01*
X43888661Y-69975000D01*
X43825000Y-70128691D01*
X43825000Y-70469250D01*
X43983750Y-70628000D01*
X44958000Y-70628000D01*
X44958000Y-70608000D01*
X45212000Y-70608000D01*
X45212000Y-70628000D01*
X45232000Y-70628000D01*
X45232000Y-70882000D01*
X45212000Y-70882000D01*
X45212000Y-70902000D01*
X44958000Y-70902000D01*
X44958000Y-70882000D01*
X43983750Y-70882000D01*
X43825000Y-71040750D01*
X43825000Y-71381309D01*
X43921673Y-71614698D01*
X44062910Y-71755936D01*
X44008559Y-71790910D01*
X43863569Y-72003110D01*
X43812560Y-72255000D01*
X43812560Y-73255000D01*
X43856838Y-73490317D01*
X43995910Y-73706441D01*
X44208110Y-73851431D01*
X44460000Y-73902440D01*
X45710000Y-73902440D01*
X45945317Y-73858162D01*
X46161441Y-73719090D01*
X46300890Y-73515000D01*
X46940000Y-73515000D01*
X47230839Y-73457148D01*
X47477401Y-73292401D01*
X48337362Y-72432440D01*
X48910000Y-72432440D01*
X49145317Y-72388162D01*
X49361441Y-72249090D01*
X49506431Y-72036890D01*
X49557440Y-71785000D01*
X49557440Y-71720750D01*
X50150000Y-71720750D01*
X50150000Y-71911309D01*
X50246673Y-72144698D01*
X50425301Y-72323327D01*
X50658690Y-72420000D01*
X51149250Y-72420000D01*
X51308000Y-72261250D01*
X51308000Y-71562000D01*
X51562000Y-71562000D01*
X51562000Y-72261250D01*
X51720750Y-72420000D01*
X52211310Y-72420000D01*
X52444699Y-72323327D01*
X52623327Y-72144698D01*
X52720000Y-71911309D01*
X52720000Y-71720750D01*
X52561250Y-71562000D01*
X51562000Y-71562000D01*
X51308000Y-71562000D01*
X50308750Y-71562000D01*
X50150000Y-71720750D01*
X49557440Y-71720750D01*
X49557440Y-71245000D01*
X50245750Y-71245000D01*
X50308750Y-71308000D01*
X51308000Y-71308000D01*
X51308000Y-71288000D01*
X51562000Y-71288000D01*
X51562000Y-71308000D01*
X52561250Y-71308000D01*
X52624250Y-71245000D01*
X53312560Y-71245000D01*
X53312560Y-71785000D01*
X53356838Y-72020317D01*
X53495910Y-72236441D01*
X53708110Y-72381431D01*
X53960000Y-72432440D01*
X55260000Y-72432440D01*
X55495317Y-72388162D01*
X55708314Y-72251102D01*
X55721883Y-72283943D01*
X55984673Y-72547192D01*
X56328201Y-72689838D01*
X56700167Y-72690162D01*
X57043943Y-72548117D01*
X57254053Y-72338373D01*
X57256673Y-72344698D01*
X57435301Y-72523327D01*
X57668690Y-72620000D01*
X58134250Y-72620000D01*
X58293000Y-72461250D01*
X58293000Y-71612000D01*
X58547000Y-71612000D01*
X58547000Y-72461250D01*
X58705750Y-72620000D01*
X59171310Y-72620000D01*
X59404699Y-72523327D01*
X59583327Y-72344698D01*
X59680000Y-72111309D01*
X59680000Y-71770750D01*
X59521250Y-71612000D01*
X58547000Y-71612000D01*
X58293000Y-71612000D01*
X58273000Y-71612000D01*
X58273000Y-71358000D01*
X58293000Y-71358000D01*
X58293000Y-71338000D01*
X58547000Y-71338000D01*
X58547000Y-71358000D01*
X59521250Y-71358000D01*
X59634250Y-71245000D01*
X60932560Y-71245000D01*
X60932560Y-71785000D01*
X60976838Y-72020317D01*
X61115910Y-72236441D01*
X61328110Y-72381431D01*
X61580000Y-72432440D01*
X62880000Y-72432440D01*
X63115317Y-72388162D01*
X63221244Y-72320000D01*
X64618617Y-72320000D01*
X64634235Y-72335645D01*
X65051244Y-72508803D01*
X65502775Y-72509197D01*
X65920086Y-72336767D01*
X66239645Y-72017765D01*
X66412803Y-71600756D01*
X66413197Y-71149225D01*
X66240767Y-70731914D01*
X65921765Y-70412355D01*
X65504756Y-70239197D01*
X65053225Y-70238803D01*
X64635914Y-70411233D01*
X64496905Y-70550000D01*
X63221797Y-70550000D01*
X63131890Y-70488569D01*
X63118803Y-70485919D01*
X63331441Y-70349090D01*
X63476431Y-70136890D01*
X63527440Y-69885000D01*
X63527440Y-69185000D01*
X63483162Y-68949683D01*
X63344090Y-68733559D01*
X63131890Y-68588569D01*
X62990000Y-68559836D01*
X62990000Y-65426742D01*
X63115317Y-65403162D01*
X63331441Y-65264090D01*
X63476431Y-65051890D01*
X63527440Y-64800000D01*
X63527440Y-64100000D01*
X63483162Y-63864683D01*
X63344090Y-63648559D01*
X63131890Y-63503569D01*
X63098510Y-63496809D01*
X63239699Y-63438327D01*
X63418327Y-63259698D01*
X63515000Y-63026309D01*
X63515000Y-62835750D01*
X63356250Y-62677000D01*
X62357000Y-62677000D01*
X62357000Y-62697000D01*
X62103000Y-62697000D01*
X62103000Y-62677000D01*
X61103750Y-62677000D01*
X61040750Y-62740000D01*
X58630470Y-62740000D01*
X58730933Y-62589646D01*
X58802471Y-62230000D01*
X58771380Y-62073691D01*
X60945000Y-62073691D01*
X60945000Y-62264250D01*
X61103750Y-62423000D01*
X62103000Y-62423000D01*
X62103000Y-61723750D01*
X62357000Y-61723750D01*
X62357000Y-62423000D01*
X63356250Y-62423000D01*
X63515000Y-62264250D01*
X63515000Y-62073691D01*
X63418327Y-61840302D01*
X63239699Y-61661673D01*
X63006310Y-61565000D01*
X62515750Y-61565000D01*
X62357000Y-61723750D01*
X62103000Y-61723750D01*
X61944250Y-61565000D01*
X61453690Y-61565000D01*
X61220301Y-61661673D01*
X61041673Y-61840302D01*
X60945000Y-62073691D01*
X58771380Y-62073691D01*
X58730933Y-61870354D01*
X58527210Y-61565461D01*
X58222317Y-61361738D01*
X57862671Y-61290200D01*
X56945329Y-61290200D01*
X56585683Y-61361738D01*
X56280790Y-61565461D01*
X56077067Y-61870354D01*
X56005529Y-62230000D01*
X56077067Y-62589646D01*
X56261053Y-62865000D01*
X56077067Y-63140354D01*
X56005529Y-63500000D01*
X56077067Y-63859646D01*
X56177530Y-64010000D01*
X55245000Y-64010000D01*
X55002414Y-64058254D01*
X54954160Y-64067852D01*
X54707599Y-64232599D01*
X53027200Y-65912998D01*
X53018458Y-65912998D01*
X53147647Y-65768895D01*
X53002142Y-65465264D01*
X52949651Y-65418912D01*
X53142933Y-65129646D01*
X53214471Y-64770000D01*
X53142933Y-64410354D01*
X52958947Y-64135000D01*
X53142933Y-63859646D01*
X53214471Y-63500000D01*
X53142933Y-63140354D01*
X52958947Y-62865000D01*
X53142933Y-62589646D01*
X53214471Y-62230000D01*
X53142933Y-61870354D01*
X52939210Y-61565461D01*
X52634317Y-61361738D01*
X52576000Y-61350138D01*
X52576000Y-58351983D01*
X52751441Y-58239090D01*
X52896431Y-58026890D01*
X52947440Y-57775000D01*
X52947440Y-56640000D01*
X54437560Y-56640000D01*
X54437560Y-58400000D01*
X54481838Y-58635317D01*
X54620910Y-58851441D01*
X54833110Y-58996431D01*
X55085000Y-59047440D01*
X57085000Y-59047440D01*
X57320317Y-59003162D01*
X57536441Y-58864090D01*
X57681431Y-58651890D01*
X57732440Y-58400000D01*
X57732440Y-57435750D01*
X57850000Y-57435750D01*
X57850000Y-58526310D01*
X57946673Y-58759699D01*
X58125302Y-58938327D01*
X58358691Y-59035000D01*
X59199250Y-59035000D01*
X59358000Y-58876250D01*
X59358000Y-57277000D01*
X59612000Y-57277000D01*
X59612000Y-58876250D01*
X59770750Y-59035000D01*
X60611309Y-59035000D01*
X60844698Y-58938327D01*
X61023327Y-58759699D01*
X61120000Y-58526310D01*
X61120000Y-57435750D01*
X60961250Y-57277000D01*
X59612000Y-57277000D01*
X59358000Y-57277000D01*
X58008750Y-57277000D01*
X57850000Y-57435750D01*
X57732440Y-57435750D01*
X57732440Y-55900000D01*
X57708674Y-55773690D01*
X57850000Y-55773690D01*
X57850000Y-56864250D01*
X58008750Y-57023000D01*
X59358000Y-57023000D01*
X59358000Y-55423750D01*
X59612000Y-55423750D01*
X59612000Y-57023000D01*
X60961250Y-57023000D01*
X61120000Y-56864250D01*
X61120000Y-55773690D01*
X61023327Y-55540301D01*
X60844698Y-55361673D01*
X60611309Y-55265000D01*
X59770750Y-55265000D01*
X59612000Y-55423750D01*
X59358000Y-55423750D01*
X59199250Y-55265000D01*
X58358691Y-55265000D01*
X58125302Y-55361673D01*
X57946673Y-55540301D01*
X57850000Y-55773690D01*
X57708674Y-55773690D01*
X57688162Y-55664683D01*
X57549090Y-55448559D01*
X57336890Y-55303569D01*
X57085000Y-55252560D01*
X55217648Y-55252560D01*
X55105839Y-55177852D01*
X54815000Y-55120000D01*
X50165000Y-55120000D01*
X49874161Y-55177852D01*
X49627599Y-55342599D01*
X49262599Y-55707599D01*
X49127325Y-55910051D01*
X49064683Y-55921838D01*
X48848559Y-56060910D01*
X48703569Y-56273110D01*
X48652560Y-56525000D01*
X48652560Y-57775000D01*
X48696838Y-58010317D01*
X48835910Y-58226441D01*
X49048110Y-58371431D01*
X49300000Y-58422440D01*
X50300000Y-58422440D01*
X50535317Y-58378162D01*
X50751441Y-58239090D01*
X50799134Y-58169289D01*
X50835910Y-58226441D01*
X51048110Y-58371431D01*
X51056000Y-58373029D01*
X51056000Y-61350138D01*
X50997683Y-61361738D01*
X50692790Y-61565461D01*
X50489067Y-61870354D01*
X50417529Y-62230000D01*
X50489067Y-62589646D01*
X50506008Y-62615000D01*
X35091339Y-62615000D01*
X35155000Y-62461309D01*
X35155000Y-62120750D01*
X34996250Y-61962000D01*
X33147000Y-61962000D01*
X33147000Y-62811250D01*
X33305750Y-62970000D01*
X33568421Y-62970000D01*
X32394210Y-64144210D01*
X32202367Y-64431325D01*
X32192852Y-64479160D01*
X32134999Y-64770000D01*
X32135000Y-64770005D01*
X32135000Y-65287560D01*
X31520000Y-65287560D01*
X31284683Y-65331838D01*
X31068559Y-65470910D01*
X31014519Y-65550000D01*
X28968440Y-65550000D01*
X28968440Y-64389000D01*
X28924162Y-64153683D01*
X28785090Y-63937559D01*
X28622052Y-63826160D01*
X28711385Y-63729818D01*
X28910975Y-63247944D01*
X28791836Y-62992000D01*
X27432000Y-62992000D01*
X27432000Y-63012000D01*
X27178000Y-63012000D01*
X27178000Y-62992000D01*
X27158000Y-62992000D01*
X27158000Y-62738000D01*
X27178000Y-62738000D01*
X27178000Y-61377633D01*
X27432000Y-61377633D01*
X27432000Y-62738000D01*
X28791836Y-62738000D01*
X28910975Y-62482056D01*
X28761324Y-62120750D01*
X30885000Y-62120750D01*
X30885000Y-62461309D01*
X30981673Y-62694698D01*
X31160301Y-62873327D01*
X31393690Y-62970000D01*
X32734250Y-62970000D01*
X32893000Y-62811250D01*
X32893000Y-61962000D01*
X31043750Y-61962000D01*
X30885000Y-62120750D01*
X28761324Y-62120750D01*
X28711385Y-62000182D01*
X28273379Y-61527812D01*
X27687946Y-61259017D01*
X27432000Y-61377633D01*
X27178000Y-61377633D01*
X26922054Y-61259017D01*
X26336621Y-61527812D01*
X26110000Y-61772213D01*
X26110000Y-61208691D01*
X30885000Y-61208691D01*
X30885000Y-61549250D01*
X31043750Y-61708000D01*
X32893000Y-61708000D01*
X32893000Y-60858750D01*
X33147000Y-60858750D01*
X33147000Y-61708000D01*
X34996250Y-61708000D01*
X35155000Y-61549250D01*
X35155000Y-61208691D01*
X35058327Y-60975302D01*
X34879699Y-60796673D01*
X34646310Y-60700000D01*
X33305750Y-60700000D01*
X33147000Y-60858750D01*
X32893000Y-60858750D01*
X32734250Y-60700000D01*
X31393690Y-60700000D01*
X31160301Y-60796673D01*
X30981673Y-60975302D01*
X30885000Y-61208691D01*
X26110000Y-61208691D01*
X26110000Y-59765000D01*
X45085000Y-59765000D01*
X45356705Y-59710954D01*
X45587046Y-59557046D01*
X45740954Y-59326705D01*
X45795000Y-59055000D01*
X45795000Y-41275000D01*
X45740954Y-41003295D01*
X45587046Y-40772954D01*
X45356705Y-40619046D01*
X45085000Y-40565000D01*
X26110000Y-40565000D01*
X26110000Y-31220861D01*
X26442460Y-30130750D01*
X42951400Y-30130750D01*
X42951400Y-30834909D01*
X43048073Y-31068298D01*
X43226701Y-31246927D01*
X43460090Y-31343600D01*
X44164250Y-31343600D01*
X44323000Y-31184850D01*
X44323000Y-29972000D01*
X43110150Y-29972000D01*
X42951400Y-30130750D01*
X26442460Y-30130750D01*
X26764290Y-29075500D01*
X26945726Y-28855091D01*
X42951400Y-28855091D01*
X42951400Y-29559250D01*
X43110150Y-29718000D01*
X44323000Y-29718000D01*
X44323000Y-27432000D01*
X43115531Y-27432000D01*
X42995032Y-27664027D01*
X43243179Y-28193490D01*
X43426119Y-28360471D01*
X43226701Y-28443073D01*
X43048073Y-28621702D01*
X42951400Y-28855091D01*
X26945726Y-28855091D01*
X28167293Y-27371133D01*
X30115730Y-26333412D01*
X32419345Y-26110000D01*
X43578984Y-26110000D01*
X43243179Y-26416510D01*
X43243179Y-26416510D01*
G37*
X43243179Y-26416510D02*
X42995032Y-26945973D01*
X43115531Y-27178000D01*
X44323000Y-27178000D01*
X44323000Y-27158000D01*
X44577000Y-27158000D01*
X44577000Y-27178000D01*
X44597000Y-27178000D01*
X44597000Y-27432000D01*
X44577000Y-27432000D01*
X44577000Y-29718000D01*
X44597000Y-29718000D01*
X44597000Y-29972000D01*
X44577000Y-29972000D01*
X44577000Y-31184850D01*
X44735750Y-31343600D01*
X45439910Y-31343600D01*
X45673299Y-31246927D01*
X45851927Y-31068298D01*
X45916263Y-30912977D01*
X45930330Y-30934029D01*
X46416511Y-31258885D01*
X46990000Y-31372959D01*
X47563489Y-31258885D01*
X48049670Y-30934029D01*
X48260000Y-30619248D01*
X48470330Y-30934029D01*
X48956511Y-31258885D01*
X49530000Y-31372959D01*
X50103489Y-31258885D01*
X50589670Y-30934029D01*
X50800000Y-30619248D01*
X51010330Y-30934029D01*
X51496511Y-31258885D01*
X52070000Y-31372959D01*
X52643489Y-31258885D01*
X53129670Y-30934029D01*
X53340000Y-30619248D01*
X53550330Y-30934029D01*
X54036511Y-31258885D01*
X54610000Y-31372959D01*
X55183489Y-31258885D01*
X55669670Y-30934029D01*
X55880000Y-30619248D01*
X56090330Y-30934029D01*
X56576511Y-31258885D01*
X57150000Y-31372959D01*
X57723489Y-31258885D01*
X58209670Y-30934029D01*
X58420000Y-30619248D01*
X58630330Y-30934029D01*
X59116511Y-31258885D01*
X59690000Y-31372959D01*
X60263489Y-31258885D01*
X60749670Y-30934029D01*
X60960000Y-30619248D01*
X61170330Y-30934029D01*
X61656511Y-31258885D01*
X62230000Y-31372959D01*
X62803489Y-31258885D01*
X63289670Y-30934029D01*
X63500000Y-30619248D01*
X63710330Y-30934029D01*
X64196511Y-31258885D01*
X64770000Y-31372959D01*
X65343489Y-31258885D01*
X65829670Y-30934029D01*
X66040000Y-30619248D01*
X66250330Y-30934029D01*
X66736511Y-31258885D01*
X67310000Y-31372959D01*
X67687973Y-31297775D01*
X69312599Y-32922401D01*
X69559160Y-33087148D01*
X69607414Y-33096746D01*
X69850000Y-33145000D01*
X87773903Y-33145000D01*
X87516654Y-33530000D01*
X81915000Y-33530000D01*
X81624161Y-33587852D01*
X81377599Y-33752599D01*
X80742599Y-34387599D01*
X80577852Y-34634161D01*
X80520000Y-34925000D01*
X80520000Y-52070000D01*
X80577852Y-52360839D01*
X80742599Y-52607401D01*
X81602619Y-53467421D01*
X81508224Y-53941974D01*
X67407599Y-68042599D01*
X67242852Y-68289161D01*
X67185000Y-68580000D01*
X67185000Y-74061905D01*
X66736511Y-74151115D01*
X66250330Y-74475971D01*
X66040000Y-74790752D01*
X65829670Y-74475971D01*
X65343489Y-74151115D01*
X64770000Y-74037041D01*
X64196511Y-74151115D01*
X63710330Y-74475971D01*
X63500000Y-74790752D01*
X63289670Y-74475971D01*
X62803489Y-74151115D01*
X62230000Y-74037041D01*
X61656511Y-74151115D01*
X61170330Y-74475971D01*
X60960000Y-74790752D01*
X60749670Y-74475971D01*
X60263489Y-74151115D01*
X59690000Y-74037041D01*
X59116511Y-74151115D01*
X58630330Y-74475971D01*
X58420000Y-74790752D01*
X58209670Y-74475971D01*
X57723489Y-74151115D01*
X57150000Y-74037041D01*
X56576511Y-74151115D01*
X56090330Y-74475971D01*
X55880000Y-74790752D01*
X55669670Y-74475971D01*
X55183489Y-74151115D01*
X54610000Y-74037041D01*
X54036511Y-74151115D01*
X53550330Y-74475971D01*
X53340000Y-74790752D01*
X53129670Y-74475971D01*
X52643489Y-74151115D01*
X52070000Y-74037041D01*
X51496511Y-74151115D01*
X51010330Y-74475971D01*
X50800000Y-74790752D01*
X50589670Y-74475971D01*
X50103489Y-74151115D01*
X49530000Y-74037041D01*
X48956511Y-74151115D01*
X48470330Y-74475971D01*
X48260000Y-74790752D01*
X48049670Y-74475971D01*
X47563489Y-74151115D01*
X46990000Y-74037041D01*
X46416511Y-74151115D01*
X45930330Y-74475971D01*
X45714336Y-74799228D01*
X45656821Y-74676510D01*
X45224947Y-74282312D01*
X44809026Y-74110042D01*
X44577000Y-74231183D01*
X44577000Y-75438000D01*
X44597000Y-75438000D01*
X44597000Y-75692000D01*
X44577000Y-75692000D01*
X44577000Y-77978000D01*
X44597000Y-77978000D01*
X44597000Y-78232000D01*
X44577000Y-78232000D01*
X44577000Y-78252000D01*
X44323000Y-78252000D01*
X44323000Y-78232000D01*
X43110150Y-78232000D01*
X42951400Y-78390750D01*
X42951400Y-79094909D01*
X43036352Y-79300000D01*
X31220861Y-79300000D01*
X29075500Y-78645710D01*
X27371133Y-77242707D01*
X26333412Y-75294271D01*
X26261134Y-74549000D01*
X38341560Y-74549000D01*
X38341560Y-76581000D01*
X38385838Y-76816317D01*
X38524910Y-77032441D01*
X38737110Y-77177431D01*
X38989000Y-77228440D01*
X41021000Y-77228440D01*
X41256317Y-77184162D01*
X41363656Y-77115091D01*
X42951400Y-77115091D01*
X42951400Y-77819250D01*
X43110150Y-77978000D01*
X44323000Y-77978000D01*
X44323000Y-75692000D01*
X43115531Y-75692000D01*
X42995032Y-75924027D01*
X43243179Y-76453490D01*
X43426119Y-76620471D01*
X43226701Y-76703073D01*
X43048073Y-76881702D01*
X42951400Y-77115091D01*
X41363656Y-77115091D01*
X41472441Y-77045090D01*
X41617431Y-76832890D01*
X41668440Y-76581000D01*
X41668440Y-75205973D01*
X42995032Y-75205973D01*
X43115531Y-75438000D01*
X44323000Y-75438000D01*
X44323000Y-74231183D01*
X44090974Y-74110042D01*
X43675053Y-74282312D01*
X43243179Y-74676510D01*
X42995032Y-75205973D01*
X41668440Y-75205973D01*
X41668440Y-74549000D01*
X41624162Y-74313683D01*
X41485090Y-74097559D01*
X41322052Y-73986160D01*
X41411385Y-73889818D01*
X41610975Y-73407944D01*
X41491836Y-73152000D01*
X40132000Y-73152000D01*
X40132000Y-73172000D01*
X39878000Y-73172000D01*
X39878000Y-73152000D01*
X38518164Y-73152000D01*
X38399025Y-73407944D01*
X38598615Y-73889818D01*
X38689097Y-73987398D01*
X38537559Y-74084910D01*
X38392569Y-74297110D01*
X38341560Y-74549000D01*
X26261134Y-74549000D01*
X26110000Y-72990654D01*
X26110000Y-72642056D01*
X38399025Y-72642056D01*
X38518164Y-72898000D01*
X39878000Y-72898000D01*
X39878000Y-71537633D01*
X40132000Y-71537633D01*
X40132000Y-72898000D01*
X41491836Y-72898000D01*
X41610975Y-72642056D01*
X41411385Y-72160182D01*
X40973379Y-71687812D01*
X40387946Y-71419017D01*
X40132000Y-71537633D01*
X39878000Y-71537633D01*
X39622054Y-71419017D01*
X39036621Y-71687812D01*
X38598615Y-72160182D01*
X38399025Y-72642056D01*
X26110000Y-72642056D01*
X26110000Y-67032192D01*
X26289000Y-67068440D01*
X27720659Y-67068440D01*
X27996325Y-67252633D01*
X28015409Y-67256429D01*
X28335000Y-67320001D01*
X28335005Y-67320000D01*
X31013156Y-67320000D01*
X31055910Y-67386441D01*
X31268110Y-67531431D01*
X31520000Y-67582440D01*
X33092638Y-67582440D01*
X36532599Y-71022401D01*
X36779161Y-71187148D01*
X37070000Y-71245000D01*
X41275000Y-71245000D01*
X41565839Y-71187148D01*
X41812401Y-71022401D01*
X42859802Y-69975000D01*
X43888661Y-69975000D01*
X43825000Y-70128691D01*
X43825000Y-70469250D01*
X43983750Y-70628000D01*
X44958000Y-70628000D01*
X44958000Y-70608000D01*
X45212000Y-70608000D01*
X45212000Y-70628000D01*
X45232000Y-70628000D01*
X45232000Y-70882000D01*
X45212000Y-70882000D01*
X45212000Y-70902000D01*
X44958000Y-70902000D01*
X44958000Y-70882000D01*
X43983750Y-70882000D01*
X43825000Y-71040750D01*
X43825000Y-71381309D01*
X43921673Y-71614698D01*
X44062910Y-71755936D01*
X44008559Y-71790910D01*
X43863569Y-72003110D01*
X43812560Y-72255000D01*
X43812560Y-73255000D01*
X43856838Y-73490317D01*
X43995910Y-73706441D01*
X44208110Y-73851431D01*
X44460000Y-73902440D01*
X45710000Y-73902440D01*
X45945317Y-73858162D01*
X46161441Y-73719090D01*
X46300890Y-73515000D01*
X46940000Y-73515000D01*
X47230839Y-73457148D01*
X47477401Y-73292401D01*
X48337362Y-72432440D01*
X48910000Y-72432440D01*
X49145317Y-72388162D01*
X49361441Y-72249090D01*
X49506431Y-72036890D01*
X49557440Y-71785000D01*
X49557440Y-71720750D01*
X50150000Y-71720750D01*
X50150000Y-71911309D01*
X50246673Y-72144698D01*
X50425301Y-72323327D01*
X50658690Y-72420000D01*
X51149250Y-72420000D01*
X51308000Y-72261250D01*
X51308000Y-71562000D01*
X51562000Y-71562000D01*
X51562000Y-72261250D01*
X51720750Y-72420000D01*
X52211310Y-72420000D01*
X52444699Y-72323327D01*
X52623327Y-72144698D01*
X52720000Y-71911309D01*
X52720000Y-71720750D01*
X52561250Y-71562000D01*
X51562000Y-71562000D01*
X51308000Y-71562000D01*
X50308750Y-71562000D01*
X50150000Y-71720750D01*
X49557440Y-71720750D01*
X49557440Y-71245000D01*
X50245750Y-71245000D01*
X50308750Y-71308000D01*
X51308000Y-71308000D01*
X51308000Y-71288000D01*
X51562000Y-71288000D01*
X51562000Y-71308000D01*
X52561250Y-71308000D01*
X52624250Y-71245000D01*
X53312560Y-71245000D01*
X53312560Y-71785000D01*
X53356838Y-72020317D01*
X53495910Y-72236441D01*
X53708110Y-72381431D01*
X53960000Y-72432440D01*
X55260000Y-72432440D01*
X55495317Y-72388162D01*
X55708314Y-72251102D01*
X55721883Y-72283943D01*
X55984673Y-72547192D01*
X56328201Y-72689838D01*
X56700167Y-72690162D01*
X57043943Y-72548117D01*
X57254053Y-72338373D01*
X57256673Y-72344698D01*
X57435301Y-72523327D01*
X57668690Y-72620000D01*
X58134250Y-72620000D01*
X58293000Y-72461250D01*
X58293000Y-71612000D01*
X58547000Y-71612000D01*
X58547000Y-72461250D01*
X58705750Y-72620000D01*
X59171310Y-72620000D01*
X59404699Y-72523327D01*
X59583327Y-72344698D01*
X59680000Y-72111309D01*
X59680000Y-71770750D01*
X59521250Y-71612000D01*
X58547000Y-71612000D01*
X58293000Y-71612000D01*
X58273000Y-71612000D01*
X58273000Y-71358000D01*
X58293000Y-71358000D01*
X58293000Y-71338000D01*
X58547000Y-71338000D01*
X58547000Y-71358000D01*
X59521250Y-71358000D01*
X59634250Y-71245000D01*
X60932560Y-71245000D01*
X60932560Y-71785000D01*
X60976838Y-72020317D01*
X61115910Y-72236441D01*
X61328110Y-72381431D01*
X61580000Y-72432440D01*
X62880000Y-72432440D01*
X63115317Y-72388162D01*
X63221244Y-72320000D01*
X64618617Y-72320000D01*
X64634235Y-72335645D01*
X65051244Y-72508803D01*
X65502775Y-72509197D01*
X65920086Y-72336767D01*
X66239645Y-72017765D01*
X66412803Y-71600756D01*
X66413197Y-71149225D01*
X66240767Y-70731914D01*
X65921765Y-70412355D01*
X65504756Y-70239197D01*
X65053225Y-70238803D01*
X64635914Y-70411233D01*
X64496905Y-70550000D01*
X63221797Y-70550000D01*
X63131890Y-70488569D01*
X63118803Y-70485919D01*
X63331441Y-70349090D01*
X63476431Y-70136890D01*
X63527440Y-69885000D01*
X63527440Y-69185000D01*
X63483162Y-68949683D01*
X63344090Y-68733559D01*
X63131890Y-68588569D01*
X62990000Y-68559836D01*
X62990000Y-65426742D01*
X63115317Y-65403162D01*
X63331441Y-65264090D01*
X63476431Y-65051890D01*
X63527440Y-64800000D01*
X63527440Y-64100000D01*
X63483162Y-63864683D01*
X63344090Y-63648559D01*
X63131890Y-63503569D01*
X63098510Y-63496809D01*
X63239699Y-63438327D01*
X63418327Y-63259698D01*
X63515000Y-63026309D01*
X63515000Y-62835750D01*
X63356250Y-62677000D01*
X62357000Y-62677000D01*
X62357000Y-62697000D01*
X62103000Y-62697000D01*
X62103000Y-62677000D01*
X61103750Y-62677000D01*
X61040750Y-62740000D01*
X58630470Y-62740000D01*
X58730933Y-62589646D01*
X58802471Y-62230000D01*
X58771380Y-62073691D01*
X60945000Y-62073691D01*
X60945000Y-62264250D01*
X61103750Y-62423000D01*
X62103000Y-62423000D01*
X62103000Y-61723750D01*
X62357000Y-61723750D01*
X62357000Y-62423000D01*
X63356250Y-62423000D01*
X63515000Y-62264250D01*
X63515000Y-62073691D01*
X63418327Y-61840302D01*
X63239699Y-61661673D01*
X63006310Y-61565000D01*
X62515750Y-61565000D01*
X62357000Y-61723750D01*
X62103000Y-61723750D01*
X61944250Y-61565000D01*
X61453690Y-61565000D01*
X61220301Y-61661673D01*
X61041673Y-61840302D01*
X60945000Y-62073691D01*
X58771380Y-62073691D01*
X58730933Y-61870354D01*
X58527210Y-61565461D01*
X58222317Y-61361738D01*
X57862671Y-61290200D01*
X56945329Y-61290200D01*
X56585683Y-61361738D01*
X56280790Y-61565461D01*
X56077067Y-61870354D01*
X56005529Y-62230000D01*
X56077067Y-62589646D01*
X56261053Y-62865000D01*
X56077067Y-63140354D01*
X56005529Y-63500000D01*
X56077067Y-63859646D01*
X56177530Y-64010000D01*
X55245000Y-64010000D01*
X55002414Y-64058254D01*
X54954160Y-64067852D01*
X54707599Y-64232599D01*
X53027200Y-65912998D01*
X53018458Y-65912998D01*
X53147647Y-65768895D01*
X53002142Y-65465264D01*
X52949651Y-65418912D01*
X53142933Y-65129646D01*
X53214471Y-64770000D01*
X53142933Y-64410354D01*
X52958947Y-64135000D01*
X53142933Y-63859646D01*
X53214471Y-63500000D01*
X53142933Y-63140354D01*
X52958947Y-62865000D01*
X53142933Y-62589646D01*
X53214471Y-62230000D01*
X53142933Y-61870354D01*
X52939210Y-61565461D01*
X52634317Y-61361738D01*
X52576000Y-61350138D01*
X52576000Y-58351983D01*
X52751441Y-58239090D01*
X52896431Y-58026890D01*
X52947440Y-57775000D01*
X52947440Y-56640000D01*
X54437560Y-56640000D01*
X54437560Y-58400000D01*
X54481838Y-58635317D01*
X54620910Y-58851441D01*
X54833110Y-58996431D01*
X55085000Y-59047440D01*
X57085000Y-59047440D01*
X57320317Y-59003162D01*
X57536441Y-58864090D01*
X57681431Y-58651890D01*
X57732440Y-58400000D01*
X57732440Y-57435750D01*
X57850000Y-57435750D01*
X57850000Y-58526310D01*
X57946673Y-58759699D01*
X58125302Y-58938327D01*
X58358691Y-59035000D01*
X59199250Y-59035000D01*
X59358000Y-58876250D01*
X59358000Y-57277000D01*
X59612000Y-57277000D01*
X59612000Y-58876250D01*
X59770750Y-59035000D01*
X60611309Y-59035000D01*
X60844698Y-58938327D01*
X61023327Y-58759699D01*
X61120000Y-58526310D01*
X61120000Y-57435750D01*
X60961250Y-57277000D01*
X59612000Y-57277000D01*
X59358000Y-57277000D01*
X58008750Y-57277000D01*
X57850000Y-57435750D01*
X57732440Y-57435750D01*
X57732440Y-55900000D01*
X57708674Y-55773690D01*
X57850000Y-55773690D01*
X57850000Y-56864250D01*
X58008750Y-57023000D01*
X59358000Y-57023000D01*
X59358000Y-55423750D01*
X59612000Y-55423750D01*
X59612000Y-57023000D01*
X60961250Y-57023000D01*
X61120000Y-56864250D01*
X61120000Y-55773690D01*
X61023327Y-55540301D01*
X60844698Y-55361673D01*
X60611309Y-55265000D01*
X59770750Y-55265000D01*
X59612000Y-55423750D01*
X59358000Y-55423750D01*
X59199250Y-55265000D01*
X58358691Y-55265000D01*
X58125302Y-55361673D01*
X57946673Y-55540301D01*
X57850000Y-55773690D01*
X57708674Y-55773690D01*
X57688162Y-55664683D01*
X57549090Y-55448559D01*
X57336890Y-55303569D01*
X57085000Y-55252560D01*
X55217648Y-55252560D01*
X55105839Y-55177852D01*
X54815000Y-55120000D01*
X50165000Y-55120000D01*
X49874161Y-55177852D01*
X49627599Y-55342599D01*
X49262599Y-55707599D01*
X49127325Y-55910051D01*
X49064683Y-55921838D01*
X48848559Y-56060910D01*
X48703569Y-56273110D01*
X48652560Y-56525000D01*
X48652560Y-57775000D01*
X48696838Y-58010317D01*
X48835910Y-58226441D01*
X49048110Y-58371431D01*
X49300000Y-58422440D01*
X50300000Y-58422440D01*
X50535317Y-58378162D01*
X50751441Y-58239090D01*
X50799134Y-58169289D01*
X50835910Y-58226441D01*
X51048110Y-58371431D01*
X51056000Y-58373029D01*
X51056000Y-61350138D01*
X50997683Y-61361738D01*
X50692790Y-61565461D01*
X50489067Y-61870354D01*
X50417529Y-62230000D01*
X50489067Y-62589646D01*
X50506008Y-62615000D01*
X35091339Y-62615000D01*
X35155000Y-62461309D01*
X35155000Y-62120750D01*
X34996250Y-61962000D01*
X33147000Y-61962000D01*
X33147000Y-62811250D01*
X33305750Y-62970000D01*
X33568421Y-62970000D01*
X32394210Y-64144210D01*
X32202367Y-64431325D01*
X32192852Y-64479160D01*
X32134999Y-64770000D01*
X32135000Y-64770005D01*
X32135000Y-65287560D01*
X31520000Y-65287560D01*
X31284683Y-65331838D01*
X31068559Y-65470910D01*
X31014519Y-65550000D01*
X28968440Y-65550000D01*
X28968440Y-64389000D01*
X28924162Y-64153683D01*
X28785090Y-63937559D01*
X28622052Y-63826160D01*
X28711385Y-63729818D01*
X28910975Y-63247944D01*
X28791836Y-62992000D01*
X27432000Y-62992000D01*
X27432000Y-63012000D01*
X27178000Y-63012000D01*
X27178000Y-62992000D01*
X27158000Y-62992000D01*
X27158000Y-62738000D01*
X27178000Y-62738000D01*
X27178000Y-61377633D01*
X27432000Y-61377633D01*
X27432000Y-62738000D01*
X28791836Y-62738000D01*
X28910975Y-62482056D01*
X28761324Y-62120750D01*
X30885000Y-62120750D01*
X30885000Y-62461309D01*
X30981673Y-62694698D01*
X31160301Y-62873327D01*
X31393690Y-62970000D01*
X32734250Y-62970000D01*
X32893000Y-62811250D01*
X32893000Y-61962000D01*
X31043750Y-61962000D01*
X30885000Y-62120750D01*
X28761324Y-62120750D01*
X28711385Y-62000182D01*
X28273379Y-61527812D01*
X27687946Y-61259017D01*
X27432000Y-61377633D01*
X27178000Y-61377633D01*
X26922054Y-61259017D01*
X26336621Y-61527812D01*
X26110000Y-61772213D01*
X26110000Y-61208691D01*
X30885000Y-61208691D01*
X30885000Y-61549250D01*
X31043750Y-61708000D01*
X32893000Y-61708000D01*
X32893000Y-60858750D01*
X33147000Y-60858750D01*
X33147000Y-61708000D01*
X34996250Y-61708000D01*
X35155000Y-61549250D01*
X35155000Y-61208691D01*
X35058327Y-60975302D01*
X34879699Y-60796673D01*
X34646310Y-60700000D01*
X33305750Y-60700000D01*
X33147000Y-60858750D01*
X32893000Y-60858750D01*
X32734250Y-60700000D01*
X31393690Y-60700000D01*
X31160301Y-60796673D01*
X30981673Y-60975302D01*
X30885000Y-61208691D01*
X26110000Y-61208691D01*
X26110000Y-59765000D01*
X45085000Y-59765000D01*
X45356705Y-59710954D01*
X45587046Y-59557046D01*
X45740954Y-59326705D01*
X45795000Y-59055000D01*
X45795000Y-41275000D01*
X45740954Y-41003295D01*
X45587046Y-40772954D01*
X45356705Y-40619046D01*
X45085000Y-40565000D01*
X26110000Y-40565000D01*
X26110000Y-31220861D01*
X26442460Y-30130750D01*
X42951400Y-30130750D01*
X42951400Y-30834909D01*
X43048073Y-31068298D01*
X43226701Y-31246927D01*
X43460090Y-31343600D01*
X44164250Y-31343600D01*
X44323000Y-31184850D01*
X44323000Y-29972000D01*
X43110150Y-29972000D01*
X42951400Y-30130750D01*
X26442460Y-30130750D01*
X26764290Y-29075500D01*
X26945726Y-28855091D01*
X42951400Y-28855091D01*
X42951400Y-29559250D01*
X43110150Y-29718000D01*
X44323000Y-29718000D01*
X44323000Y-27432000D01*
X43115531Y-27432000D01*
X42995032Y-27664027D01*
X43243179Y-28193490D01*
X43426119Y-28360471D01*
X43226701Y-28443073D01*
X43048073Y-28621702D01*
X42951400Y-28855091D01*
X26945726Y-28855091D01*
X28167293Y-27371133D01*
X30115730Y-26333412D01*
X32419345Y-26110000D01*
X43578984Y-26110000D01*
X43243179Y-26416510D01*
G36*
X111050000Y-67857115D02*
X109896129Y-72446662D01*
X107105562Y-76202464D01*
X103090133Y-78604469D01*
X101617372Y-78821621D01*
X101784968Y-78464027D01*
X101664469Y-78232000D01*
X100457000Y-78232000D01*
X100457000Y-78252000D01*
X100203000Y-78252000D01*
X100203000Y-78232000D01*
X97917000Y-78232000D01*
X97917000Y-78252000D01*
X97663000Y-78252000D01*
X97663000Y-78232000D01*
X97643000Y-78232000D01*
X97643000Y-77978000D01*
X97663000Y-77978000D01*
X97663000Y-75692000D01*
X97917000Y-75692000D01*
X97917000Y-77978000D01*
X100203000Y-77978000D01*
X100203000Y-75692000D01*
X100457000Y-75692000D01*
X100457000Y-77978000D01*
X101664469Y-77978000D01*
X101784968Y-77745973D01*
X101536821Y-77216510D01*
X101118848Y-76835000D01*
X101536821Y-76453490D01*
X101784968Y-75924027D01*
X101664469Y-75692000D01*
X100457000Y-75692000D01*
X100203000Y-75692000D01*
X97917000Y-75692000D01*
X97663000Y-75692000D01*
X97643000Y-75692000D01*
X97643000Y-75438000D01*
X97663000Y-75438000D01*
X97663000Y-75418000D01*
X97917000Y-75418000D01*
X97917000Y-75438000D01*
X100203000Y-75438000D01*
X100203000Y-74231183D01*
X100457000Y-74231183D01*
X100457000Y-75438000D01*
X101664469Y-75438000D01*
X101784968Y-75205973D01*
X101536821Y-74676510D01*
X101104947Y-74282312D01*
X100689026Y-74110042D01*
X100457000Y-74231183D01*
X100203000Y-74231183D01*
X99970974Y-74110042D01*
X99555053Y-74282312D01*
X99123179Y-74676510D01*
X99060000Y-74811313D01*
X98996821Y-74676510D01*
X98564947Y-74282312D01*
X98149026Y-74110042D01*
X97917002Y-74231182D01*
X97917002Y-74066400D01*
X97823402Y-74066400D01*
X98739802Y-73150000D01*
X102870000Y-73150000D01*
X103160839Y-73092148D01*
X103407401Y-72927401D01*
X105947401Y-70387401D01*
X106112148Y-70140840D01*
X106132843Y-70036799D01*
X106170000Y-69850000D01*
X106170000Y-69574026D01*
X106342642Y-69574026D01*
X106345291Y-69589791D01*
X106599268Y-70117036D01*
X107035680Y-70506954D01*
X107588087Y-70700184D01*
X107823000Y-70555924D01*
X107823000Y-69342000D01*
X108077000Y-69342000D01*
X108077000Y-70555924D01*
X108311913Y-70700184D01*
X108864320Y-70506954D01*
X109300732Y-70117036D01*
X109554709Y-69589791D01*
X109557358Y-69574026D01*
X109436217Y-69342000D01*
X108077000Y-69342000D01*
X107823000Y-69342000D01*
X106463783Y-69342000D01*
X106342642Y-69574026D01*
X106170000Y-69574026D01*
X106170000Y-65084802D01*
X106286560Y-64968242D01*
X106286560Y-64998600D01*
X106330838Y-65233917D01*
X106469910Y-65450041D01*
X106682110Y-65595031D01*
X106723439Y-65603400D01*
X106705585Y-65615330D01*
X106380729Y-66101511D01*
X106266655Y-66675000D01*
X106380729Y-67248489D01*
X106705585Y-67734670D01*
X107015069Y-67941461D01*
X106599268Y-68312964D01*
X106345291Y-68840209D01*
X106342642Y-68855974D01*
X106463783Y-69088000D01*
X107823000Y-69088000D01*
X107823000Y-69068000D01*
X108077000Y-69068000D01*
X108077000Y-69088000D01*
X109436217Y-69088000D01*
X109557358Y-68855974D01*
X109554709Y-68840209D01*
X109300732Y-68312964D01*
X108884931Y-67941461D01*
X109194415Y-67734670D01*
X109519271Y-67248489D01*
X109633345Y-66675000D01*
X109519271Y-66101511D01*
X109194415Y-65615330D01*
X109180087Y-65605757D01*
X109201317Y-65601762D01*
X109417441Y-65462690D01*
X109562431Y-65250490D01*
X109613440Y-64998600D01*
X109613440Y-63271400D01*
X109569162Y-63036083D01*
X109430090Y-62819959D01*
X109217890Y-62674969D01*
X108966000Y-62623960D01*
X106934000Y-62623960D01*
X106698683Y-62668238D01*
X106482559Y-62807310D01*
X106337569Y-63019510D01*
X106286560Y-63271400D01*
X106286560Y-63375000D01*
X106045000Y-63375000D01*
X105754161Y-63432852D01*
X105507599Y-63597599D01*
X104872599Y-64232599D01*
X104707852Y-64479161D01*
X104650000Y-64770000D01*
X104650000Y-69535198D01*
X104362532Y-69822666D01*
X104474709Y-69589791D01*
X104477358Y-69574026D01*
X104356217Y-69342000D01*
X102997000Y-69342000D01*
X102997000Y-70555924D01*
X103231913Y-70700184D01*
X103621177Y-70564021D01*
X102555198Y-71630000D01*
X98425000Y-71630000D01*
X98134161Y-71687852D01*
X97887599Y-71852599D01*
X95627973Y-74112225D01*
X95250000Y-74037041D01*
X95039324Y-74078947D01*
X95060000Y-73975000D01*
X95060000Y-72260757D01*
X95101441Y-72234090D01*
X95246431Y-72021890D01*
X95253191Y-71988510D01*
X95311673Y-72129699D01*
X95490302Y-72308327D01*
X95723691Y-72405000D01*
X95914250Y-72405000D01*
X96073000Y-72246250D01*
X96073000Y-71247000D01*
X96327000Y-71247000D01*
X96327000Y-72246250D01*
X96485750Y-72405000D01*
X96676309Y-72405000D01*
X96909698Y-72308327D01*
X97088327Y-72129699D01*
X97185000Y-71896310D01*
X97185000Y-71405750D01*
X97026250Y-71247000D01*
X96327000Y-71247000D01*
X96073000Y-71247000D01*
X96053000Y-71247000D01*
X96053000Y-70993000D01*
X96073000Y-70993000D01*
X96073000Y-69993750D01*
X96327000Y-69993750D01*
X96327000Y-70993000D01*
X97026250Y-70993000D01*
X97185000Y-70834250D01*
X97185000Y-70343690D01*
X97088327Y-70110301D01*
X96909698Y-69931673D01*
X96676309Y-69835000D01*
X96485750Y-69835000D01*
X96327000Y-69993750D01*
X96073000Y-69993750D01*
X95914250Y-69835000D01*
X95723691Y-69835000D01*
X95490302Y-69931673D01*
X95311673Y-70110301D01*
X95255346Y-70246287D01*
X95253162Y-70234683D01*
X95114090Y-70018559D01*
X94901890Y-69873569D01*
X94650000Y-69822560D01*
X94412400Y-69822560D01*
X94517401Y-69752401D01*
X94695776Y-69574026D01*
X101262642Y-69574026D01*
X101265291Y-69589791D01*
X101519268Y-70117036D01*
X101955680Y-70506954D01*
X102508087Y-70700184D01*
X102743000Y-70555924D01*
X102743000Y-69342000D01*
X101383783Y-69342000D01*
X101262642Y-69574026D01*
X94695776Y-69574026D01*
X101273267Y-62996535D01*
X101257569Y-63019510D01*
X101206560Y-63271400D01*
X101206560Y-64998600D01*
X101250838Y-65233917D01*
X101389910Y-65450041D01*
X101602110Y-65595031D01*
X101643439Y-65603400D01*
X101625585Y-65615330D01*
X101300729Y-66101511D01*
X101186655Y-66675000D01*
X101300729Y-67248489D01*
X101625585Y-67734670D01*
X101935069Y-67941461D01*
X101519268Y-68312964D01*
X101265291Y-68840209D01*
X101262642Y-68855974D01*
X101383783Y-69088000D01*
X102743000Y-69088000D01*
X102743000Y-69068000D01*
X102997000Y-69068000D01*
X102997000Y-69088000D01*
X104356217Y-69088000D01*
X104477358Y-68855974D01*
X104474709Y-68840209D01*
X104220732Y-68312964D01*
X103804931Y-67941461D01*
X104114415Y-67734670D01*
X104439271Y-67248489D01*
X104553345Y-66675000D01*
X104439271Y-66101511D01*
X104114415Y-65615330D01*
X104100087Y-65605757D01*
X104121317Y-65601762D01*
X104337441Y-65462690D01*
X104482431Y-65250490D01*
X104533440Y-64998600D01*
X104533440Y-63271400D01*
X104489162Y-63036083D01*
X104350090Y-62819959D01*
X104137890Y-62674969D01*
X103886000Y-62623960D01*
X101854000Y-62623960D01*
X101618683Y-62668238D01*
X101570666Y-62699136D01*
X101914802Y-62355000D01*
X109220000Y-62355000D01*
X109510839Y-62297148D01*
X109757401Y-62132401D01*
X111050000Y-60839802D01*
X111050000Y-67857115D01*
X111050000Y-67857115D01*
G37*
X111050000Y-67857115D02*
X109896129Y-72446662D01*
X107105562Y-76202464D01*
X103090133Y-78604469D01*
X101617372Y-78821621D01*
X101784968Y-78464027D01*
X101664469Y-78232000D01*
X100457000Y-78232000D01*
X100457000Y-78252000D01*
X100203000Y-78252000D01*
X100203000Y-78232000D01*
X97917000Y-78232000D01*
X97917000Y-78252000D01*
X97663000Y-78252000D01*
X97663000Y-78232000D01*
X97643000Y-78232000D01*
X97643000Y-77978000D01*
X97663000Y-77978000D01*
X97663000Y-75692000D01*
X97917000Y-75692000D01*
X97917000Y-77978000D01*
X100203000Y-77978000D01*
X100203000Y-75692000D01*
X100457000Y-75692000D01*
X100457000Y-77978000D01*
X101664469Y-77978000D01*
X101784968Y-77745973D01*
X101536821Y-77216510D01*
X101118848Y-76835000D01*
X101536821Y-76453490D01*
X101784968Y-75924027D01*
X101664469Y-75692000D01*
X100457000Y-75692000D01*
X100203000Y-75692000D01*
X97917000Y-75692000D01*
X97663000Y-75692000D01*
X97643000Y-75692000D01*
X97643000Y-75438000D01*
X97663000Y-75438000D01*
X97663000Y-75418000D01*
X97917000Y-75418000D01*
X97917000Y-75438000D01*
X100203000Y-75438000D01*
X100203000Y-74231183D01*
X100457000Y-74231183D01*
X100457000Y-75438000D01*
X101664469Y-75438000D01*
X101784968Y-75205973D01*
X101536821Y-74676510D01*
X101104947Y-74282312D01*
X100689026Y-74110042D01*
X100457000Y-74231183D01*
X100203000Y-74231183D01*
X99970974Y-74110042D01*
X99555053Y-74282312D01*
X99123179Y-74676510D01*
X99060000Y-74811313D01*
X98996821Y-74676510D01*
X98564947Y-74282312D01*
X98149026Y-74110042D01*
X97917002Y-74231182D01*
X97917002Y-74066400D01*
X97823402Y-74066400D01*
X98739802Y-73150000D01*
X102870000Y-73150000D01*
X103160839Y-73092148D01*
X103407401Y-72927401D01*
X105947401Y-70387401D01*
X106112148Y-70140840D01*
X106132843Y-70036799D01*
X106170000Y-69850000D01*
X106170000Y-69574026D01*
X106342642Y-69574026D01*
X106345291Y-69589791D01*
X106599268Y-70117036D01*
X107035680Y-70506954D01*
X107588087Y-70700184D01*
X107823000Y-70555924D01*
X107823000Y-69342000D01*
X108077000Y-69342000D01*
X108077000Y-70555924D01*
X108311913Y-70700184D01*
X108864320Y-70506954D01*
X109300732Y-70117036D01*
X109554709Y-69589791D01*
X109557358Y-69574026D01*
X109436217Y-69342000D01*
X108077000Y-69342000D01*
X107823000Y-69342000D01*
X106463783Y-69342000D01*
X106342642Y-69574026D01*
X106170000Y-69574026D01*
X106170000Y-65084802D01*
X106286560Y-64968242D01*
X106286560Y-64998600D01*
X106330838Y-65233917D01*
X106469910Y-65450041D01*
X106682110Y-65595031D01*
X106723439Y-65603400D01*
X106705585Y-65615330D01*
X106380729Y-66101511D01*
X106266655Y-66675000D01*
X106380729Y-67248489D01*
X106705585Y-67734670D01*
X107015069Y-67941461D01*
X106599268Y-68312964D01*
X106345291Y-68840209D01*
X106342642Y-68855974D01*
X106463783Y-69088000D01*
X107823000Y-69088000D01*
X107823000Y-69068000D01*
X108077000Y-69068000D01*
X108077000Y-69088000D01*
X109436217Y-69088000D01*
X109557358Y-68855974D01*
X109554709Y-68840209D01*
X109300732Y-68312964D01*
X108884931Y-67941461D01*
X109194415Y-67734670D01*
X109519271Y-67248489D01*
X109633345Y-66675000D01*
X109519271Y-66101511D01*
X109194415Y-65615330D01*
X109180087Y-65605757D01*
X109201317Y-65601762D01*
X109417441Y-65462690D01*
X109562431Y-65250490D01*
X109613440Y-64998600D01*
X109613440Y-63271400D01*
X109569162Y-63036083D01*
X109430090Y-62819959D01*
X109217890Y-62674969D01*
X108966000Y-62623960D01*
X106934000Y-62623960D01*
X106698683Y-62668238D01*
X106482559Y-62807310D01*
X106337569Y-63019510D01*
X106286560Y-63271400D01*
X106286560Y-63375000D01*
X106045000Y-63375000D01*
X105754161Y-63432852D01*
X105507599Y-63597599D01*
X104872599Y-64232599D01*
X104707852Y-64479161D01*
X104650000Y-64770000D01*
X104650000Y-69535198D01*
X104362532Y-69822666D01*
X104474709Y-69589791D01*
X104477358Y-69574026D01*
X104356217Y-69342000D01*
X102997000Y-69342000D01*
X102997000Y-70555924D01*
X103231913Y-70700184D01*
X103621177Y-70564021D01*
X102555198Y-71630000D01*
X98425000Y-71630000D01*
X98134161Y-71687852D01*
X97887599Y-71852599D01*
X95627973Y-74112225D01*
X95250000Y-74037041D01*
X95039324Y-74078947D01*
X95060000Y-73975000D01*
X95060000Y-72260757D01*
X95101441Y-72234090D01*
X95246431Y-72021890D01*
X95253191Y-71988510D01*
X95311673Y-72129699D01*
X95490302Y-72308327D01*
X95723691Y-72405000D01*
X95914250Y-72405000D01*
X96073000Y-72246250D01*
X96073000Y-71247000D01*
X96327000Y-71247000D01*
X96327000Y-72246250D01*
X96485750Y-72405000D01*
X96676309Y-72405000D01*
X96909698Y-72308327D01*
X97088327Y-72129699D01*
X97185000Y-71896310D01*
X97185000Y-71405750D01*
X97026250Y-71247000D01*
X96327000Y-71247000D01*
X96073000Y-71247000D01*
X96053000Y-71247000D01*
X96053000Y-70993000D01*
X96073000Y-70993000D01*
X96073000Y-69993750D01*
X96327000Y-69993750D01*
X96327000Y-70993000D01*
X97026250Y-70993000D01*
X97185000Y-70834250D01*
X97185000Y-70343690D01*
X97088327Y-70110301D01*
X96909698Y-69931673D01*
X96676309Y-69835000D01*
X96485750Y-69835000D01*
X96327000Y-69993750D01*
X96073000Y-69993750D01*
X95914250Y-69835000D01*
X95723691Y-69835000D01*
X95490302Y-69931673D01*
X95311673Y-70110301D01*
X95255346Y-70246287D01*
X95253162Y-70234683D01*
X95114090Y-70018559D01*
X94901890Y-69873569D01*
X94650000Y-69822560D01*
X94412400Y-69822560D01*
X94517401Y-69752401D01*
X94695776Y-69574026D01*
X101262642Y-69574026D01*
X101265291Y-69589791D01*
X101519268Y-70117036D01*
X101955680Y-70506954D01*
X102508087Y-70700184D01*
X102743000Y-70555924D01*
X102743000Y-69342000D01*
X101383783Y-69342000D01*
X101262642Y-69574026D01*
X94695776Y-69574026D01*
X101273267Y-62996535D01*
X101257569Y-63019510D01*
X101206560Y-63271400D01*
X101206560Y-64998600D01*
X101250838Y-65233917D01*
X101389910Y-65450041D01*
X101602110Y-65595031D01*
X101643439Y-65603400D01*
X101625585Y-65615330D01*
X101300729Y-66101511D01*
X101186655Y-66675000D01*
X101300729Y-67248489D01*
X101625585Y-67734670D01*
X101935069Y-67941461D01*
X101519268Y-68312964D01*
X101265291Y-68840209D01*
X101262642Y-68855974D01*
X101383783Y-69088000D01*
X102743000Y-69088000D01*
X102743000Y-69068000D01*
X102997000Y-69068000D01*
X102997000Y-69088000D01*
X104356217Y-69088000D01*
X104477358Y-68855974D01*
X104474709Y-68840209D01*
X104220732Y-68312964D01*
X103804931Y-67941461D01*
X104114415Y-67734670D01*
X104439271Y-67248489D01*
X104553345Y-66675000D01*
X104439271Y-66101511D01*
X104114415Y-65615330D01*
X104100087Y-65605757D01*
X104121317Y-65601762D01*
X104337441Y-65462690D01*
X104482431Y-65250490D01*
X104533440Y-64998600D01*
X104533440Y-63271400D01*
X104489162Y-63036083D01*
X104350090Y-62819959D01*
X104137890Y-62674969D01*
X103886000Y-62623960D01*
X101854000Y-62623960D01*
X101618683Y-62668238D01*
X101570666Y-62699136D01*
X101914802Y-62355000D01*
X109220000Y-62355000D01*
X109510839Y-62297148D01*
X109757401Y-62132401D01*
X111050000Y-60839802D01*
X111050000Y-67857115D01*
G36*
X39672638Y-64662560D02*
X39205000Y-64662560D01*
X38969683Y-64706838D01*
X38753559Y-64845910D01*
X38608569Y-65058110D01*
X38557560Y-65310000D01*
X38557560Y-66310000D01*
X38601838Y-66545317D01*
X38740910Y-66761441D01*
X38953110Y-66906431D01*
X39205000Y-66957440D01*
X40805000Y-66957440D01*
X41040317Y-66913162D01*
X41256441Y-66774090D01*
X41401431Y-66561890D01*
X41452440Y-66310000D01*
X41452440Y-65530000D01*
X43965750Y-65530000D01*
X43983750Y-65548000D01*
X44958000Y-65548000D01*
X44958000Y-65530000D01*
X45212000Y-65530000D01*
X45212000Y-65548000D01*
X46186250Y-65548000D01*
X46204250Y-65530000D01*
X50598835Y-65530000D01*
X50484353Y-65768895D01*
X50613544Y-65913000D01*
X51689000Y-65913000D01*
X51689000Y-65893000D01*
X51943000Y-65893000D01*
X51943000Y-65913000D01*
X51963000Y-65913000D01*
X51963000Y-66167000D01*
X51943000Y-66167000D01*
X51943000Y-66187000D01*
X51689000Y-66187000D01*
X51689000Y-66167000D01*
X50613544Y-66167000D01*
X50484353Y-66311105D01*
X50598835Y-66550000D01*
X50165000Y-66550000D01*
X49874161Y-66607852D01*
X49627599Y-66772599D01*
X48100000Y-68300198D01*
X46937401Y-67137599D01*
X46690839Y-66972852D01*
X46400000Y-66915000D01*
X46297279Y-66915000D01*
X46174090Y-66723559D01*
X46105994Y-66677031D01*
X46248327Y-66534698D01*
X46345000Y-66301309D01*
X46345000Y-65960750D01*
X46186250Y-65802000D01*
X45212000Y-65802000D01*
X45212000Y-65822000D01*
X44958000Y-65822000D01*
X44958000Y-65802000D01*
X43983750Y-65802000D01*
X43825000Y-65960750D01*
X43825000Y-66301309D01*
X43921673Y-66534698D01*
X44062910Y-66675936D01*
X44008559Y-66710910D01*
X43863569Y-66923110D01*
X43812560Y-67175000D01*
X43812560Y-68175000D01*
X43856838Y-68410317D01*
X43885591Y-68455000D01*
X42545000Y-68455000D01*
X42254160Y-68512852D01*
X42007599Y-68677599D01*
X41452440Y-69232758D01*
X41452440Y-68310000D01*
X41408162Y-68074683D01*
X41269090Y-67858559D01*
X41056890Y-67713569D01*
X40805000Y-67662560D01*
X39205000Y-67662560D01*
X38969683Y-67706838D01*
X38753559Y-67845910D01*
X38614110Y-68050000D01*
X37235000Y-68050000D01*
X36944161Y-68107852D01*
X36944159Y-68107853D01*
X36944160Y-68107853D01*
X36697598Y-68272599D01*
X36690319Y-68279878D01*
X36644833Y-68279838D01*
X36301057Y-68421883D01*
X36191275Y-68531473D01*
X35006939Y-67347137D01*
X35116431Y-67186890D01*
X35167440Y-66935000D01*
X35167440Y-65935000D01*
X35123162Y-65699683D01*
X34984090Y-65483559D01*
X34771890Y-65338569D01*
X34520000Y-65287560D01*
X33905000Y-65287560D01*
X33905000Y-65136580D01*
X34656579Y-64385000D01*
X39950198Y-64385000D01*
X39672638Y-64662560D01*
X39672638Y-64662560D01*
G37*
X39672638Y-64662560D02*
X39205000Y-64662560D01*
X38969683Y-64706838D01*
X38753559Y-64845910D01*
X38608569Y-65058110D01*
X38557560Y-65310000D01*
X38557560Y-66310000D01*
X38601838Y-66545317D01*
X38740910Y-66761441D01*
X38953110Y-66906431D01*
X39205000Y-66957440D01*
X40805000Y-66957440D01*
X41040317Y-66913162D01*
X41256441Y-66774090D01*
X41401431Y-66561890D01*
X41452440Y-66310000D01*
X41452440Y-65530000D01*
X43965750Y-65530000D01*
X43983750Y-65548000D01*
X44958000Y-65548000D01*
X44958000Y-65530000D01*
X45212000Y-65530000D01*
X45212000Y-65548000D01*
X46186250Y-65548000D01*
X46204250Y-65530000D01*
X50598835Y-65530000D01*
X50484353Y-65768895D01*
X50613544Y-65913000D01*
X51689000Y-65913000D01*
X51689000Y-65893000D01*
X51943000Y-65893000D01*
X51943000Y-65913000D01*
X51963000Y-65913000D01*
X51963000Y-66167000D01*
X51943000Y-66167000D01*
X51943000Y-66187000D01*
X51689000Y-66187000D01*
X51689000Y-66167000D01*
X50613544Y-66167000D01*
X50484353Y-66311105D01*
X50598835Y-66550000D01*
X50165000Y-66550000D01*
X49874161Y-66607852D01*
X49627599Y-66772599D01*
X48100000Y-68300198D01*
X46937401Y-67137599D01*
X46690839Y-66972852D01*
X46400000Y-66915000D01*
X46297279Y-66915000D01*
X46174090Y-66723559D01*
X46105994Y-66677031D01*
X46248327Y-66534698D01*
X46345000Y-66301309D01*
X46345000Y-65960750D01*
X46186250Y-65802000D01*
X45212000Y-65802000D01*
X45212000Y-65822000D01*
X44958000Y-65822000D01*
X44958000Y-65802000D01*
X43983750Y-65802000D01*
X43825000Y-65960750D01*
X43825000Y-66301309D01*
X43921673Y-66534698D01*
X44062910Y-66675936D01*
X44008559Y-66710910D01*
X43863569Y-66923110D01*
X43812560Y-67175000D01*
X43812560Y-68175000D01*
X43856838Y-68410317D01*
X43885591Y-68455000D01*
X42545000Y-68455000D01*
X42254160Y-68512852D01*
X42007599Y-68677599D01*
X41452440Y-69232758D01*
X41452440Y-68310000D01*
X41408162Y-68074683D01*
X41269090Y-67858559D01*
X41056890Y-67713569D01*
X40805000Y-67662560D01*
X39205000Y-67662560D01*
X38969683Y-67706838D01*
X38753559Y-67845910D01*
X38614110Y-68050000D01*
X37235000Y-68050000D01*
X36944161Y-68107852D01*
X36944159Y-68107853D01*
X36944160Y-68107853D01*
X36697598Y-68272599D01*
X36690319Y-68279878D01*
X36644833Y-68279838D01*
X36301057Y-68421883D01*
X36191275Y-68531473D01*
X35006939Y-67347137D01*
X35116431Y-67186890D01*
X35167440Y-66935000D01*
X35167440Y-65935000D01*
X35123162Y-65699683D01*
X34984090Y-65483559D01*
X34771890Y-65338569D01*
X34520000Y-65287560D01*
X33905000Y-65287560D01*
X33905000Y-65136580D01*
X34656579Y-64385000D01*
X39950198Y-64385000D01*
X39672638Y-64662560D01*
G36*
X94107000Y-34163000D02*
X94127000Y-34163000D01*
X94127000Y-34417000D01*
X94107000Y-34417000D01*
X94107000Y-35776217D01*
X94339026Y-35897358D01*
X94354791Y-35894709D01*
X94882036Y-35640732D01*
X95038907Y-35465155D01*
X95053238Y-35541317D01*
X95192310Y-35757441D01*
X95404510Y-35902431D01*
X95656400Y-35953440D01*
X95760000Y-35953440D01*
X95760000Y-54295198D01*
X89220198Y-60835000D01*
X84848440Y-60835000D01*
X84848440Y-60731400D01*
X84804162Y-60496083D01*
X84665090Y-60279959D01*
X84452890Y-60134969D01*
X84358073Y-60115768D01*
X84535732Y-59957036D01*
X84789709Y-59429791D01*
X84792358Y-59414026D01*
X84671217Y-59182000D01*
X83312000Y-59182000D01*
X83312000Y-59202000D01*
X83058000Y-59202000D01*
X83058000Y-59182000D01*
X83038000Y-59182000D01*
X83038000Y-58928000D01*
X83058000Y-58928000D01*
X83058000Y-58908000D01*
X83312000Y-58908000D01*
X83312000Y-58928000D01*
X84671217Y-58928000D01*
X84792358Y-58695974D01*
X84789709Y-58680209D01*
X84535732Y-58152964D01*
X84531035Y-58148767D01*
X85627401Y-57052401D01*
X85792148Y-56805840D01*
X85850000Y-56515000D01*
X85850000Y-45085000D01*
X85827219Y-44970474D01*
X85792148Y-44794160D01*
X85627401Y-44547599D01*
X84861776Y-43781974D01*
X84754271Y-43241511D01*
X84429415Y-42755330D01*
X84114634Y-42545000D01*
X84429415Y-42334670D01*
X84754271Y-41848489D01*
X84868345Y-41275000D01*
X84754271Y-40701511D01*
X84429415Y-40215330D01*
X84119931Y-40008539D01*
X84535732Y-39637036D01*
X84789709Y-39109791D01*
X84792358Y-39094026D01*
X84671217Y-38862000D01*
X83312000Y-38862000D01*
X83312000Y-38882000D01*
X83058000Y-38882000D01*
X83058000Y-38862000D01*
X83038000Y-38862000D01*
X83038000Y-38608000D01*
X83058000Y-38608000D01*
X83058000Y-37394076D01*
X83312000Y-37394076D01*
X83312000Y-38608000D01*
X84671217Y-38608000D01*
X84792358Y-38375974D01*
X84789709Y-38360209D01*
X84535732Y-37832964D01*
X84099320Y-37443046D01*
X83546913Y-37249816D01*
X83312000Y-37394076D01*
X83058000Y-37394076D01*
X82823087Y-37249816D01*
X82270680Y-37443046D01*
X82040000Y-37649150D01*
X82040000Y-35239802D01*
X82229802Y-35050000D01*
X87516654Y-35050000D01*
X87840330Y-35534415D01*
X88326511Y-35859271D01*
X88900000Y-35973345D01*
X89473489Y-35859271D01*
X89959670Y-35534415D01*
X90170000Y-35219634D01*
X90380330Y-35534415D01*
X90680000Y-35734648D01*
X90680000Y-53660198D01*
X88760320Y-55579878D01*
X88714833Y-55579838D01*
X88371057Y-55721883D01*
X88107808Y-55984673D01*
X87965162Y-56328201D01*
X87964838Y-56700167D01*
X88106883Y-57043943D01*
X88369673Y-57307192D01*
X88713201Y-57449838D01*
X89085167Y-57450162D01*
X89428943Y-57308117D01*
X89692192Y-57045327D01*
X89834838Y-56701799D01*
X89834879Y-56654923D01*
X91977401Y-54512401D01*
X92142148Y-54265840D01*
X92180586Y-54072599D01*
X92200000Y-53975000D01*
X92200000Y-35734648D01*
X92499670Y-35534415D01*
X92706461Y-35224931D01*
X93077964Y-35640732D01*
X93605209Y-35894709D01*
X93620974Y-35897358D01*
X93853000Y-35776217D01*
X93853000Y-34417000D01*
X93833000Y-34417000D01*
X93833000Y-34163000D01*
X93853000Y-34163000D01*
X93853000Y-34143000D01*
X94107000Y-34143000D01*
X94107000Y-34163000D01*
X94107000Y-34163000D01*
G37*
X94107000Y-34163000D02*
X94127000Y-34163000D01*
X94127000Y-34417000D01*
X94107000Y-34417000D01*
X94107000Y-35776217D01*
X94339026Y-35897358D01*
X94354791Y-35894709D01*
X94882036Y-35640732D01*
X95038907Y-35465155D01*
X95053238Y-35541317D01*
X95192310Y-35757441D01*
X95404510Y-35902431D01*
X95656400Y-35953440D01*
X95760000Y-35953440D01*
X95760000Y-54295198D01*
X89220198Y-60835000D01*
X84848440Y-60835000D01*
X84848440Y-60731400D01*
X84804162Y-60496083D01*
X84665090Y-60279959D01*
X84452890Y-60134969D01*
X84358073Y-60115768D01*
X84535732Y-59957036D01*
X84789709Y-59429791D01*
X84792358Y-59414026D01*
X84671217Y-59182000D01*
X83312000Y-59182000D01*
X83312000Y-59202000D01*
X83058000Y-59202000D01*
X83058000Y-59182000D01*
X83038000Y-59182000D01*
X83038000Y-58928000D01*
X83058000Y-58928000D01*
X83058000Y-58908000D01*
X83312000Y-58908000D01*
X83312000Y-58928000D01*
X84671217Y-58928000D01*
X84792358Y-58695974D01*
X84789709Y-58680209D01*
X84535732Y-58152964D01*
X84531035Y-58148767D01*
X85627401Y-57052401D01*
X85792148Y-56805840D01*
X85850000Y-56515000D01*
X85850000Y-45085000D01*
X85827219Y-44970474D01*
X85792148Y-44794160D01*
X85627401Y-44547599D01*
X84861776Y-43781974D01*
X84754271Y-43241511D01*
X84429415Y-42755330D01*
X84114634Y-42545000D01*
X84429415Y-42334670D01*
X84754271Y-41848489D01*
X84868345Y-41275000D01*
X84754271Y-40701511D01*
X84429415Y-40215330D01*
X84119931Y-40008539D01*
X84535732Y-39637036D01*
X84789709Y-39109791D01*
X84792358Y-39094026D01*
X84671217Y-38862000D01*
X83312000Y-38862000D01*
X83312000Y-38882000D01*
X83058000Y-38882000D01*
X83058000Y-38862000D01*
X83038000Y-38862000D01*
X83038000Y-38608000D01*
X83058000Y-38608000D01*
X83058000Y-37394076D01*
X83312000Y-37394076D01*
X83312000Y-38608000D01*
X84671217Y-38608000D01*
X84792358Y-38375974D01*
X84789709Y-38360209D01*
X84535732Y-37832964D01*
X84099320Y-37443046D01*
X83546913Y-37249816D01*
X83312000Y-37394076D01*
X83058000Y-37394076D01*
X82823087Y-37249816D01*
X82270680Y-37443046D01*
X82040000Y-37649150D01*
X82040000Y-35239802D01*
X82229802Y-35050000D01*
X87516654Y-35050000D01*
X87840330Y-35534415D01*
X88326511Y-35859271D01*
X88900000Y-35973345D01*
X89473489Y-35859271D01*
X89959670Y-35534415D01*
X90170000Y-35219634D01*
X90380330Y-35534415D01*
X90680000Y-35734648D01*
X90680000Y-53660198D01*
X88760320Y-55579878D01*
X88714833Y-55579838D01*
X88371057Y-55721883D01*
X88107808Y-55984673D01*
X87965162Y-56328201D01*
X87964838Y-56700167D01*
X88106883Y-57043943D01*
X88369673Y-57307192D01*
X88713201Y-57449838D01*
X89085167Y-57450162D01*
X89428943Y-57308117D01*
X89692192Y-57045327D01*
X89834838Y-56701799D01*
X89834879Y-56654923D01*
X91977401Y-54512401D01*
X92142148Y-54265840D01*
X92180586Y-54072599D01*
X92200000Y-53975000D01*
X92200000Y-35734648D01*
X92499670Y-35534415D01*
X92706461Y-35224931D01*
X93077964Y-35640732D01*
X93605209Y-35894709D01*
X93620974Y-35897358D01*
X93853000Y-35776217D01*
X93853000Y-34417000D01*
X93833000Y-34417000D01*
X93833000Y-34163000D01*
X93853000Y-34163000D01*
X93853000Y-34143000D01*
X94107000Y-34143000D01*
X94107000Y-34163000D01*
G36*
X105225042Y-57425974D02*
X105346183Y-57658000D01*
X106553000Y-57658000D01*
X106553000Y-57638000D01*
X106807000Y-57638000D01*
X106807000Y-57658000D01*
X109093000Y-57658000D01*
X109093000Y-57638000D01*
X109347000Y-57638000D01*
X109347000Y-57658000D01*
X109367000Y-57658000D01*
X109367000Y-57912000D01*
X109347000Y-57912000D01*
X109347000Y-59119469D01*
X109579027Y-59239968D01*
X110108490Y-58991821D01*
X110365000Y-58710795D01*
X110365000Y-59375198D01*
X108905198Y-60835000D01*
X102164802Y-60835000D01*
X102374680Y-60625122D01*
X102420167Y-60625162D01*
X102763943Y-60483117D01*
X103027192Y-60220327D01*
X103169838Y-59876799D01*
X103170162Y-59504833D01*
X103028117Y-59161057D01*
X102798631Y-58931171D01*
X103585776Y-58144026D01*
X105225042Y-58144026D01*
X105397312Y-58559947D01*
X105791510Y-58991821D01*
X106320973Y-59239968D01*
X106553000Y-59119469D01*
X106553000Y-57912000D01*
X106807000Y-57912000D01*
X106807000Y-59119469D01*
X107039027Y-59239968D01*
X107568490Y-58991821D01*
X107950000Y-58573848D01*
X108331510Y-58991821D01*
X108860973Y-59239968D01*
X109093000Y-59119469D01*
X109093000Y-57912000D01*
X106807000Y-57912000D01*
X106553000Y-57912000D01*
X105346183Y-57912000D01*
X105225042Y-58144026D01*
X103585776Y-58144026D01*
X104454802Y-57275000D01*
X105287574Y-57275000D01*
X105225042Y-57425974D01*
X105225042Y-57425974D01*
G37*
X105225042Y-57425974D02*
X105346183Y-57658000D01*
X106553000Y-57658000D01*
X106553000Y-57638000D01*
X106807000Y-57638000D01*
X106807000Y-57658000D01*
X109093000Y-57658000D01*
X109093000Y-57638000D01*
X109347000Y-57638000D01*
X109347000Y-57658000D01*
X109367000Y-57658000D01*
X109367000Y-57912000D01*
X109347000Y-57912000D01*
X109347000Y-59119469D01*
X109579027Y-59239968D01*
X110108490Y-58991821D01*
X110365000Y-58710795D01*
X110365000Y-59375198D01*
X108905198Y-60835000D01*
X102164802Y-60835000D01*
X102374680Y-60625122D01*
X102420167Y-60625162D01*
X102763943Y-60483117D01*
X103027192Y-60220327D01*
X103169838Y-59876799D01*
X103170162Y-59504833D01*
X103028117Y-59161057D01*
X102798631Y-58931171D01*
X103585776Y-58144026D01*
X105225042Y-58144026D01*
X105397312Y-58559947D01*
X105791510Y-58991821D01*
X106320973Y-59239968D01*
X106553000Y-59119469D01*
X106553000Y-57912000D01*
X106807000Y-57912000D01*
X106807000Y-59119469D01*
X107039027Y-59239968D01*
X107568490Y-58991821D01*
X107950000Y-58573848D01*
X108331510Y-58991821D01*
X108860973Y-59239968D01*
X109093000Y-59119469D01*
X109093000Y-57912000D01*
X106807000Y-57912000D01*
X106553000Y-57912000D01*
X105346183Y-57912000D01*
X105225042Y-58144026D01*
X103585776Y-58144026D01*
X104454802Y-57275000D01*
X105287574Y-57275000D01*
X105225042Y-57425974D01*
G36*
X103643053Y-27035536D02*
X107528376Y-29631627D01*
X110124464Y-33516947D01*
X111050000Y-38169927D01*
X111050000Y-50920198D01*
X110672775Y-50542973D01*
X110747959Y-50165000D01*
X110633885Y-49591511D01*
X110309029Y-49105330D01*
X109994248Y-48895000D01*
X110309029Y-48684670D01*
X110633885Y-48198489D01*
X110747959Y-47625000D01*
X110633885Y-47051511D01*
X110309029Y-46565330D01*
X109822848Y-46240474D01*
X109249359Y-46126400D01*
X109190641Y-46126400D01*
X108617152Y-46240474D01*
X108151558Y-46551574D01*
X108146762Y-46526083D01*
X108007690Y-46309959D01*
X107795490Y-46164969D01*
X107543600Y-46113960D01*
X105816400Y-46113960D01*
X105581083Y-46158238D01*
X105364959Y-46297310D01*
X105219969Y-46509510D01*
X105168960Y-46761400D01*
X105168960Y-46865000D01*
X105089802Y-46865000D01*
X102224969Y-44000167D01*
X103839838Y-44000167D01*
X103981883Y-44343943D01*
X104244673Y-44607192D01*
X104588201Y-44749838D01*
X104960167Y-44750162D01*
X105303943Y-44608117D01*
X105567192Y-44345327D01*
X105709838Y-44001799D01*
X105710162Y-43629833D01*
X105568117Y-43286057D01*
X105535000Y-43252882D01*
X105535000Y-40999026D01*
X106342642Y-40999026D01*
X106345291Y-41014791D01*
X106599268Y-41542036D01*
X107035680Y-41931954D01*
X107588087Y-42125184D01*
X107823000Y-41980924D01*
X107823000Y-40767000D01*
X108077000Y-40767000D01*
X108077000Y-41980924D01*
X108311913Y-42125184D01*
X108864320Y-41931954D01*
X109300732Y-41542036D01*
X109554709Y-41014791D01*
X109557358Y-40999026D01*
X109436217Y-40767000D01*
X108077000Y-40767000D01*
X107823000Y-40767000D01*
X106463783Y-40767000D01*
X106342642Y-40999026D01*
X105535000Y-40999026D01*
X105535000Y-37144802D01*
X106286560Y-36393242D01*
X106286560Y-36423600D01*
X106330838Y-36658917D01*
X106469910Y-36875041D01*
X106682110Y-37020031D01*
X106723439Y-37028400D01*
X106705585Y-37040330D01*
X106380729Y-37526511D01*
X106266655Y-38100000D01*
X106380729Y-38673489D01*
X106705585Y-39159670D01*
X107015069Y-39366461D01*
X106599268Y-39737964D01*
X106345291Y-40265209D01*
X106342642Y-40280974D01*
X106463783Y-40513000D01*
X107823000Y-40513000D01*
X107823000Y-40493000D01*
X108077000Y-40493000D01*
X108077000Y-40513000D01*
X109436217Y-40513000D01*
X109557358Y-40280974D01*
X109554709Y-40265209D01*
X109300732Y-39737964D01*
X108884931Y-39366461D01*
X109194415Y-39159670D01*
X109519271Y-38673489D01*
X109633345Y-38100000D01*
X109519271Y-37526511D01*
X109194415Y-37040330D01*
X109180087Y-37030757D01*
X109201317Y-37026762D01*
X109417441Y-36887690D01*
X109562431Y-36675490D01*
X109613440Y-36423600D01*
X109613440Y-34696400D01*
X109569162Y-34461083D01*
X109430090Y-34244959D01*
X109217890Y-34099969D01*
X108966000Y-34048960D01*
X106934000Y-34048960D01*
X106698683Y-34093238D01*
X106482559Y-34232310D01*
X106337569Y-34444510D01*
X106286560Y-34696400D01*
X106286560Y-34800000D01*
X106045000Y-34800000D01*
X105754160Y-34857852D01*
X105507599Y-35022599D01*
X104237599Y-36292599D01*
X104072852Y-36539161D01*
X104015000Y-36830000D01*
X104015000Y-43252537D01*
X103982808Y-43284673D01*
X103840162Y-43628201D01*
X103839838Y-44000167D01*
X102224969Y-44000167D01*
X99223828Y-40999026D01*
X100627642Y-40999026D01*
X100630291Y-41014791D01*
X100884268Y-41542036D01*
X101320680Y-41931954D01*
X101873087Y-42125184D01*
X102108000Y-41980924D01*
X102108000Y-40767000D01*
X102362000Y-40767000D01*
X102362000Y-41980924D01*
X102596913Y-42125184D01*
X103149320Y-41931954D01*
X103585732Y-41542036D01*
X103839709Y-41014791D01*
X103842358Y-40999026D01*
X103721217Y-40767000D01*
X102362000Y-40767000D01*
X102108000Y-40767000D01*
X100748783Y-40767000D01*
X100627642Y-40999026D01*
X99223828Y-40999026D01*
X97280000Y-39055198D01*
X97280000Y-35953440D01*
X97383600Y-35953440D01*
X97618917Y-35909162D01*
X97835041Y-35770090D01*
X97980031Y-35557890D01*
X98031040Y-35306000D01*
X98031040Y-33274000D01*
X98006767Y-33145000D01*
X100015198Y-33145000D01*
X100971363Y-34101165D01*
X100767559Y-34232310D01*
X100622569Y-34444510D01*
X100571560Y-34696400D01*
X100571560Y-36423600D01*
X100615838Y-36658917D01*
X100754910Y-36875041D01*
X100967110Y-37020031D01*
X101008439Y-37028400D01*
X100990585Y-37040330D01*
X100665729Y-37526511D01*
X100551655Y-38100000D01*
X100665729Y-38673489D01*
X100990585Y-39159670D01*
X101300069Y-39366461D01*
X100884268Y-39737964D01*
X100630291Y-40265209D01*
X100627642Y-40280974D01*
X100748783Y-40513000D01*
X102108000Y-40513000D01*
X102108000Y-40493000D01*
X102362000Y-40493000D01*
X102362000Y-40513000D01*
X103721217Y-40513000D01*
X103842358Y-40280974D01*
X103839709Y-40265209D01*
X103585732Y-39737964D01*
X103169931Y-39366461D01*
X103479415Y-39159670D01*
X103804271Y-38673489D01*
X103918345Y-38100000D01*
X103804271Y-37526511D01*
X103479415Y-37040330D01*
X103465087Y-37030757D01*
X103486317Y-37026762D01*
X103702441Y-36887690D01*
X103847431Y-36675490D01*
X103898440Y-36423600D01*
X103898440Y-34696400D01*
X103854162Y-34461083D01*
X103715090Y-34244959D01*
X103502890Y-34099969D01*
X103251000Y-34048960D01*
X102947054Y-34048960D01*
X102937148Y-33999161D01*
X102772401Y-33752599D01*
X100867401Y-31847599D01*
X100620839Y-31682852D01*
X100330000Y-31625000D01*
X70164802Y-31625000D01*
X69902348Y-31362546D01*
X70423489Y-31258885D01*
X70909670Y-30934029D01*
X71120000Y-30619248D01*
X71330330Y-30934029D01*
X71816511Y-31258885D01*
X72390000Y-31372959D01*
X72963489Y-31258885D01*
X73449670Y-30934029D01*
X73660000Y-30619248D01*
X73870330Y-30934029D01*
X74356511Y-31258885D01*
X74930000Y-31372959D01*
X75503489Y-31258885D01*
X75989670Y-30934029D01*
X76200000Y-30619248D01*
X76410330Y-30934029D01*
X76896511Y-31258885D01*
X77470000Y-31372959D01*
X78043489Y-31258885D01*
X78529670Y-30934029D01*
X78740000Y-30619248D01*
X78950330Y-30934029D01*
X79436511Y-31258885D01*
X80010000Y-31372959D01*
X80583489Y-31258885D01*
X81069670Y-30934029D01*
X81280000Y-30619248D01*
X81490330Y-30934029D01*
X81976511Y-31258885D01*
X82550000Y-31372959D01*
X83123489Y-31258885D01*
X83609670Y-30934029D01*
X83820000Y-30619248D01*
X84030330Y-30934029D01*
X84516511Y-31258885D01*
X85090000Y-31372959D01*
X85663489Y-31258885D01*
X86149670Y-30934029D01*
X86360000Y-30619248D01*
X86570330Y-30934029D01*
X87056511Y-31258885D01*
X87630000Y-31372959D01*
X88203489Y-31258885D01*
X88689670Y-30934029D01*
X88900000Y-30619248D01*
X89110330Y-30934029D01*
X89596511Y-31258885D01*
X90170000Y-31372959D01*
X90743489Y-31258885D01*
X91229670Y-30934029D01*
X91440000Y-30619248D01*
X91650330Y-30934029D01*
X92136511Y-31258885D01*
X92710000Y-31372959D01*
X93283489Y-31258885D01*
X93769670Y-30934029D01*
X93980000Y-30619248D01*
X94190330Y-30934029D01*
X94676511Y-31258885D01*
X95250000Y-31372959D01*
X95823489Y-31258885D01*
X96309670Y-30934029D01*
X96520000Y-30619248D01*
X96730330Y-30934029D01*
X97216511Y-31258885D01*
X97790000Y-31372959D01*
X98363489Y-31258885D01*
X98849670Y-30934029D01*
X99060000Y-30619248D01*
X99270330Y-30934029D01*
X99756511Y-31258885D01*
X100330000Y-31372959D01*
X100903489Y-31258885D01*
X101389670Y-30934029D01*
X101714526Y-30447848D01*
X101828600Y-29874359D01*
X101828600Y-29815641D01*
X101714526Y-29242152D01*
X101389670Y-28755971D01*
X101118828Y-28575000D01*
X101389670Y-28394029D01*
X101714526Y-27907848D01*
X101828600Y-27334359D01*
X101828600Y-27275641D01*
X101714526Y-26702152D01*
X101675824Y-26644230D01*
X103643053Y-27035536D01*
X103643053Y-27035536D01*
G37*
X103643053Y-27035536D02*
X107528376Y-29631627D01*
X110124464Y-33516947D01*
X111050000Y-38169927D01*
X111050000Y-50920198D01*
X110672775Y-50542973D01*
X110747959Y-50165000D01*
X110633885Y-49591511D01*
X110309029Y-49105330D01*
X109994248Y-48895000D01*
X110309029Y-48684670D01*
X110633885Y-48198489D01*
X110747959Y-47625000D01*
X110633885Y-47051511D01*
X110309029Y-46565330D01*
X109822848Y-46240474D01*
X109249359Y-46126400D01*
X109190641Y-46126400D01*
X108617152Y-46240474D01*
X108151558Y-46551574D01*
X108146762Y-46526083D01*
X108007690Y-46309959D01*
X107795490Y-46164969D01*
X107543600Y-46113960D01*
X105816400Y-46113960D01*
X105581083Y-46158238D01*
X105364959Y-46297310D01*
X105219969Y-46509510D01*
X105168960Y-46761400D01*
X105168960Y-46865000D01*
X105089802Y-46865000D01*
X102224969Y-44000167D01*
X103839838Y-44000167D01*
X103981883Y-44343943D01*
X104244673Y-44607192D01*
X104588201Y-44749838D01*
X104960167Y-44750162D01*
X105303943Y-44608117D01*
X105567192Y-44345327D01*
X105709838Y-44001799D01*
X105710162Y-43629833D01*
X105568117Y-43286057D01*
X105535000Y-43252882D01*
X105535000Y-40999026D01*
X106342642Y-40999026D01*
X106345291Y-41014791D01*
X106599268Y-41542036D01*
X107035680Y-41931954D01*
X107588087Y-42125184D01*
X107823000Y-41980924D01*
X107823000Y-40767000D01*
X108077000Y-40767000D01*
X108077000Y-41980924D01*
X108311913Y-42125184D01*
X108864320Y-41931954D01*
X109300732Y-41542036D01*
X109554709Y-41014791D01*
X109557358Y-40999026D01*
X109436217Y-40767000D01*
X108077000Y-40767000D01*
X107823000Y-40767000D01*
X106463783Y-40767000D01*
X106342642Y-40999026D01*
X105535000Y-40999026D01*
X105535000Y-37144802D01*
X106286560Y-36393242D01*
X106286560Y-36423600D01*
X106330838Y-36658917D01*
X106469910Y-36875041D01*
X106682110Y-37020031D01*
X106723439Y-37028400D01*
X106705585Y-37040330D01*
X106380729Y-37526511D01*
X106266655Y-38100000D01*
X106380729Y-38673489D01*
X106705585Y-39159670D01*
X107015069Y-39366461D01*
X106599268Y-39737964D01*
X106345291Y-40265209D01*
X106342642Y-40280974D01*
X106463783Y-40513000D01*
X107823000Y-40513000D01*
X107823000Y-40493000D01*
X108077000Y-40493000D01*
X108077000Y-40513000D01*
X109436217Y-40513000D01*
X109557358Y-40280974D01*
X109554709Y-40265209D01*
X109300732Y-39737964D01*
X108884931Y-39366461D01*
X109194415Y-39159670D01*
X109519271Y-38673489D01*
X109633345Y-38100000D01*
X109519271Y-37526511D01*
X109194415Y-37040330D01*
X109180087Y-37030757D01*
X109201317Y-37026762D01*
X109417441Y-36887690D01*
X109562431Y-36675490D01*
X109613440Y-36423600D01*
X109613440Y-34696400D01*
X109569162Y-34461083D01*
X109430090Y-34244959D01*
X109217890Y-34099969D01*
X108966000Y-34048960D01*
X106934000Y-34048960D01*
X106698683Y-34093238D01*
X106482559Y-34232310D01*
X106337569Y-34444510D01*
X106286560Y-34696400D01*
X106286560Y-34800000D01*
X106045000Y-34800000D01*
X105754160Y-34857852D01*
X105507599Y-35022599D01*
X104237599Y-36292599D01*
X104072852Y-36539161D01*
X104015000Y-36830000D01*
X104015000Y-43252537D01*
X103982808Y-43284673D01*
X103840162Y-43628201D01*
X103839838Y-44000167D01*
X102224969Y-44000167D01*
X99223828Y-40999026D01*
X100627642Y-40999026D01*
X100630291Y-41014791D01*
X100884268Y-41542036D01*
X101320680Y-41931954D01*
X101873087Y-42125184D01*
X102108000Y-41980924D01*
X102108000Y-40767000D01*
X102362000Y-40767000D01*
X102362000Y-41980924D01*
X102596913Y-42125184D01*
X103149320Y-41931954D01*
X103585732Y-41542036D01*
X103839709Y-41014791D01*
X103842358Y-40999026D01*
X103721217Y-40767000D01*
X102362000Y-40767000D01*
X102108000Y-40767000D01*
X100748783Y-40767000D01*
X100627642Y-40999026D01*
X99223828Y-40999026D01*
X97280000Y-39055198D01*
X97280000Y-35953440D01*
X97383600Y-35953440D01*
X97618917Y-35909162D01*
X97835041Y-35770090D01*
X97980031Y-35557890D01*
X98031040Y-35306000D01*
X98031040Y-33274000D01*
X98006767Y-33145000D01*
X100015198Y-33145000D01*
X100971363Y-34101165D01*
X100767559Y-34232310D01*
X100622569Y-34444510D01*
X100571560Y-34696400D01*
X100571560Y-36423600D01*
X100615838Y-36658917D01*
X100754910Y-36875041D01*
X100967110Y-37020031D01*
X101008439Y-37028400D01*
X100990585Y-37040330D01*
X100665729Y-37526511D01*
X100551655Y-38100000D01*
X100665729Y-38673489D01*
X100990585Y-39159670D01*
X101300069Y-39366461D01*
X100884268Y-39737964D01*
X100630291Y-40265209D01*
X100627642Y-40280974D01*
X100748783Y-40513000D01*
X102108000Y-40513000D01*
X102108000Y-40493000D01*
X102362000Y-40493000D01*
X102362000Y-40513000D01*
X103721217Y-40513000D01*
X103842358Y-40280974D01*
X103839709Y-40265209D01*
X103585732Y-39737964D01*
X103169931Y-39366461D01*
X103479415Y-39159670D01*
X103804271Y-38673489D01*
X103918345Y-38100000D01*
X103804271Y-37526511D01*
X103479415Y-37040330D01*
X103465087Y-37030757D01*
X103486317Y-37026762D01*
X103702441Y-36887690D01*
X103847431Y-36675490D01*
X103898440Y-36423600D01*
X103898440Y-34696400D01*
X103854162Y-34461083D01*
X103715090Y-34244959D01*
X103502890Y-34099969D01*
X103251000Y-34048960D01*
X102947054Y-34048960D01*
X102937148Y-33999161D01*
X102772401Y-33752599D01*
X100867401Y-31847599D01*
X100620839Y-31682852D01*
X100330000Y-31625000D01*
X70164802Y-31625000D01*
X69902348Y-31362546D01*
X70423489Y-31258885D01*
X70909670Y-30934029D01*
X71120000Y-30619248D01*
X71330330Y-30934029D01*
X71816511Y-31258885D01*
X72390000Y-31372959D01*
X72963489Y-31258885D01*
X73449670Y-30934029D01*
X73660000Y-30619248D01*
X73870330Y-30934029D01*
X74356511Y-31258885D01*
X74930000Y-31372959D01*
X75503489Y-31258885D01*
X75989670Y-30934029D01*
X76200000Y-30619248D01*
X76410330Y-30934029D01*
X76896511Y-31258885D01*
X77470000Y-31372959D01*
X78043489Y-31258885D01*
X78529670Y-30934029D01*
X78740000Y-30619248D01*
X78950330Y-30934029D01*
X79436511Y-31258885D01*
X80010000Y-31372959D01*
X80583489Y-31258885D01*
X81069670Y-30934029D01*
X81280000Y-30619248D01*
X81490330Y-30934029D01*
X81976511Y-31258885D01*
X82550000Y-31372959D01*
X83123489Y-31258885D01*
X83609670Y-30934029D01*
X83820000Y-30619248D01*
X84030330Y-30934029D01*
X84516511Y-31258885D01*
X85090000Y-31372959D01*
X85663489Y-31258885D01*
X86149670Y-30934029D01*
X86360000Y-30619248D01*
X86570330Y-30934029D01*
X87056511Y-31258885D01*
X87630000Y-31372959D01*
X88203489Y-31258885D01*
X88689670Y-30934029D01*
X88900000Y-30619248D01*
X89110330Y-30934029D01*
X89596511Y-31258885D01*
X90170000Y-31372959D01*
X90743489Y-31258885D01*
X91229670Y-30934029D01*
X91440000Y-30619248D01*
X91650330Y-30934029D01*
X92136511Y-31258885D01*
X92710000Y-31372959D01*
X93283489Y-31258885D01*
X93769670Y-30934029D01*
X93980000Y-30619248D01*
X94190330Y-30934029D01*
X94676511Y-31258885D01*
X95250000Y-31372959D01*
X95823489Y-31258885D01*
X96309670Y-30934029D01*
X96520000Y-30619248D01*
X96730330Y-30934029D01*
X97216511Y-31258885D01*
X97790000Y-31372959D01*
X98363489Y-31258885D01*
X98849670Y-30934029D01*
X99060000Y-30619248D01*
X99270330Y-30934029D01*
X99756511Y-31258885D01*
X100330000Y-31372959D01*
X100903489Y-31258885D01*
X101389670Y-30934029D01*
X101714526Y-30447848D01*
X101828600Y-29874359D01*
X101828600Y-29815641D01*
X101714526Y-29242152D01*
X101389670Y-28755971D01*
X101118828Y-28575000D01*
X101389670Y-28394029D01*
X101714526Y-27907848D01*
X101828600Y-27334359D01*
X101828600Y-27275641D01*
X101714526Y-26702152D01*
X101675824Y-26644230D01*
X103643053Y-27035536D01*
M02*
