%FSLAX45Y45*%
G04 Gerber Fmt 4.5, Leading zero omitted, Abs format (unit mm)*
G04 Created by KiCad (PCBNEW 4.0.3-1.fc24-product) date Sun Feb 19 21:38:08 2017*
%MOMM*%
%LPD*%
G01*
G04 APERTURE LIST*
%ADD10C,0.127000*%
%ADD11C,0.150000*%
%ADD12C,0.200000*%
%ADD13C,0.300000*%
G04 APERTURE END LIST*
D10*
D11*
X3175000Y-2540000D02*
X9969500Y-2540000D01*
X2540000Y-4127500D02*
X2540000Y-3111500D01*
X3238500Y-2540000D02*
G75*
G03X2540000Y-3111500I-63500J-635000D01*
G01*
X2540000Y-7366000D02*
X2540000Y-5905500D01*
X9906000Y-8001000D02*
X3111500Y-8001000D01*
X2540000Y-7302500D02*
G75*
G03X3111500Y-8001000I635000J-63500D01*
G01*
X11176000Y-6794500D02*
X11176000Y-3746500D01*
X9842500Y-8001000D02*
G75*
G03X11176000Y-6794500I63500J1270000D01*
G01*
X11176000Y-3810000D02*
G75*
G03X9906000Y-2540000I-1270000J0D01*
G01*
X4508500Y-4127500D02*
X4000500Y-4127500D01*
X4508500Y-5905500D02*
X4508500Y-4127500D01*
X2540000Y-5905500D02*
X4508500Y-5905500D01*
X2540000Y-4127500D02*
X4000500Y-4127500D01*
D12*
X5441000Y-4298000D02*
X5481000Y-4338000D01*
X5481000Y-4298000D02*
X5441000Y-4338000D01*
X5504500Y-4425000D02*
X5544500Y-4465000D01*
X5544500Y-4425000D02*
X5504500Y-4465000D01*
X5695000Y-4552000D02*
X5735000Y-4592000D01*
X5735000Y-4552000D02*
X5695000Y-4592000D01*
X5758500Y-4425000D02*
X5798500Y-4465000D01*
X5798500Y-4425000D02*
X5758500Y-4465000D01*
X6393500Y-4933000D02*
X6433500Y-4973000D01*
X6433500Y-4933000D02*
X6393500Y-4973000D01*
X6584000Y-4679000D02*
X6624000Y-4719000D01*
X6624000Y-4679000D02*
X6584000Y-4719000D01*
X6647500Y-4552000D02*
X6687500Y-4592000D01*
X6687500Y-4552000D02*
X6647500Y-4592000D01*
X6711000Y-3599500D02*
X6751000Y-3639500D01*
X6751000Y-3599500D02*
X6711000Y-3639500D01*
X6774500Y-4361500D02*
X6814500Y-4401500D01*
X6814500Y-4361500D02*
X6774500Y-4401500D01*
X6965000Y-7092000D02*
X7005000Y-7132000D01*
X7005000Y-7092000D02*
X6965000Y-7132000D01*
X7282500Y-7092000D02*
X7322500Y-7132000D01*
X7322500Y-7092000D02*
X7282500Y-7132000D01*
X7346000Y-4361500D02*
X7386000Y-4401500D01*
X7386000Y-4361500D02*
X7346000Y-4401500D01*
X8870000Y-5631500D02*
X8910000Y-5671500D01*
X8910000Y-5631500D02*
X8870000Y-5671500D01*
X9187500Y-6647500D02*
X9227500Y-6687500D01*
X9227500Y-6647500D02*
X9187500Y-6687500D01*
X10140000Y-4806000D02*
X10180000Y-4846000D01*
X10180000Y-4806000D02*
X10140000Y-4846000D01*
X10140000Y-5758500D02*
X10180000Y-5798500D01*
X10180000Y-5758500D02*
X10140000Y-5798500D01*
X10457500Y-4361500D02*
X10497500Y-4401500D01*
X10497500Y-4361500D02*
X10457500Y-4401500D01*
X2844800Y-3429000D02*
G75*
G03X2844800Y-3429000I-50800J0D01*
G01*
X2844800Y-3683000D02*
G75*
G03X2844800Y-3683000I-50800J0D01*
G01*
X2844800Y-6604000D02*
G75*
G03X2844800Y-6604000I-50800J0D01*
G01*
X2844800Y-6858000D02*
G75*
G03X2844800Y-6858000I-50800J0D01*
G01*
X4495800Y-2730500D02*
G75*
G03X4495800Y-2730500I-50800J0D01*
G01*
X4495800Y-2984500D02*
G75*
G03X4495800Y-2984500I-50800J0D01*
G01*
X4495800Y-7556500D02*
G75*
G03X4495800Y-7556500I-50800J0D01*
G01*
X4495800Y-7810500D02*
G75*
G03X4495800Y-7810500I-50800J0D01*
G01*
X4749800Y-2730500D02*
G75*
G03X4749800Y-2730500I-50800J0D01*
G01*
X4749800Y-2984500D02*
G75*
G03X4749800Y-2984500I-50800J0D01*
G01*
X4749800Y-7556500D02*
G75*
G03X4749800Y-7556500I-50800J0D01*
G01*
X4749800Y-7810500D02*
G75*
G03X4749800Y-7810500I-50800J0D01*
G01*
X5003800Y-2730500D02*
G75*
G03X5003800Y-2730500I-50800J0D01*
G01*
X5003800Y-2984500D02*
G75*
G03X5003800Y-2984500I-50800J0D01*
G01*
X5003800Y-7556500D02*
G75*
G03X5003800Y-7556500I-50800J0D01*
G01*
X5003800Y-7810500D02*
G75*
G03X5003800Y-7810500I-50800J0D01*
G01*
X5257800Y-2730500D02*
G75*
G03X5257800Y-2730500I-50800J0D01*
G01*
X5257800Y-2984500D02*
G75*
G03X5257800Y-2984500I-50800J0D01*
G01*
X5257800Y-7556500D02*
G75*
G03X5257800Y-7556500I-50800J0D01*
G01*
X5257800Y-7810500D02*
G75*
G03X5257800Y-7810500I-50800J0D01*
G01*
X5511800Y-2730500D02*
G75*
G03X5511800Y-2730500I-50800J0D01*
G01*
X5511800Y-2984500D02*
G75*
G03X5511800Y-2984500I-50800J0D01*
G01*
X5511800Y-7556500D02*
G75*
G03X5511800Y-7556500I-50800J0D01*
G01*
X5511800Y-7810500D02*
G75*
G03X5511800Y-7810500I-50800J0D01*
G01*
X5765800Y-2730500D02*
G75*
G03X5765800Y-2730500I-50800J0D01*
G01*
X5765800Y-2984500D02*
G75*
G03X5765800Y-2984500I-50800J0D01*
G01*
X5765800Y-7556500D02*
G75*
G03X5765800Y-7556500I-50800J0D01*
G01*
X5765800Y-7810500D02*
G75*
G03X5765800Y-7810500I-50800J0D01*
G01*
X6019800Y-2730500D02*
G75*
G03X6019800Y-2730500I-50800J0D01*
G01*
X6019800Y-2984500D02*
G75*
G03X6019800Y-2984500I-50800J0D01*
G01*
X6019800Y-7556500D02*
G75*
G03X6019800Y-7556500I-50800J0D01*
G01*
X6019800Y-7810500D02*
G75*
G03X6019800Y-7810500I-50800J0D01*
G01*
X6273800Y-2730500D02*
G75*
G03X6273800Y-2730500I-50800J0D01*
G01*
X6273800Y-2984500D02*
G75*
G03X6273800Y-2984500I-50800J0D01*
G01*
X6273800Y-7556500D02*
G75*
G03X6273800Y-7556500I-50800J0D01*
G01*
X6273800Y-7810500D02*
G75*
G03X6273800Y-7810500I-50800J0D01*
G01*
X6527800Y-2730500D02*
G75*
G03X6527800Y-2730500I-50800J0D01*
G01*
X6527800Y-2984500D02*
G75*
G03X6527800Y-2984500I-50800J0D01*
G01*
X6527800Y-7556500D02*
G75*
G03X6527800Y-7556500I-50800J0D01*
G01*
X6527800Y-7810500D02*
G75*
G03X6527800Y-7810500I-50800J0D01*
G01*
X6781800Y-2730500D02*
G75*
G03X6781800Y-2730500I-50800J0D01*
G01*
X6781800Y-2984500D02*
G75*
G03X6781800Y-2984500I-50800J0D01*
G01*
X6781800Y-7556500D02*
G75*
G03X6781800Y-7556500I-50800J0D01*
G01*
X6781800Y-7810500D02*
G75*
G03X6781800Y-7810500I-50800J0D01*
G01*
X7035800Y-2730500D02*
G75*
G03X7035800Y-2730500I-50800J0D01*
G01*
X7035800Y-2984500D02*
G75*
G03X7035800Y-2984500I-50800J0D01*
G01*
X7035800Y-7556500D02*
G75*
G03X7035800Y-7556500I-50800J0D01*
G01*
X7035800Y-7810500D02*
G75*
G03X7035800Y-7810500I-50800J0D01*
G01*
X7289800Y-2730500D02*
G75*
G03X7289800Y-2730500I-50800J0D01*
G01*
X7289800Y-2984500D02*
G75*
G03X7289800Y-2984500I-50800J0D01*
G01*
X7289800Y-7556500D02*
G75*
G03X7289800Y-7556500I-50800J0D01*
G01*
X7289800Y-7810500D02*
G75*
G03X7289800Y-7810500I-50800J0D01*
G01*
X7543800Y-2730500D02*
G75*
G03X7543800Y-2730500I-50800J0D01*
G01*
X7543800Y-2984500D02*
G75*
G03X7543800Y-2984500I-50800J0D01*
G01*
X7543800Y-7556500D02*
G75*
G03X7543800Y-7556500I-50800J0D01*
G01*
X7543800Y-7810500D02*
G75*
G03X7543800Y-7810500I-50800J0D01*
G01*
X7797800Y-2730500D02*
G75*
G03X7797800Y-2730500I-50800J0D01*
G01*
X7797800Y-2984500D02*
G75*
G03X7797800Y-2984500I-50800J0D01*
G01*
X7797800Y-7556500D02*
G75*
G03X7797800Y-7556500I-50800J0D01*
G01*
X7797800Y-7810500D02*
G75*
G03X7797800Y-7810500I-50800J0D01*
G01*
X8051800Y-2730500D02*
G75*
G03X8051800Y-2730500I-50800J0D01*
G01*
X8051800Y-2984500D02*
G75*
G03X8051800Y-2984500I-50800J0D01*
G01*
X8051800Y-7556500D02*
G75*
G03X8051800Y-7556500I-50800J0D01*
G01*
X8051800Y-7810500D02*
G75*
G03X8051800Y-7810500I-50800J0D01*
G01*
X8305800Y-2730500D02*
G75*
G03X8305800Y-2730500I-50800J0D01*
G01*
X8305800Y-2984500D02*
G75*
G03X8305800Y-2984500I-50800J0D01*
G01*
X8305800Y-7556500D02*
G75*
G03X8305800Y-7556500I-50800J0D01*
G01*
X8305800Y-7810500D02*
G75*
G03X8305800Y-7810500I-50800J0D01*
G01*
X8369300Y-3873500D02*
G75*
G03X8369300Y-3873500I-50800J0D01*
G01*
X8369300Y-4127500D02*
G75*
G03X8369300Y-4127500I-50800J0D01*
G01*
X8369300Y-4381500D02*
G75*
G03X8369300Y-4381500I-50800J0D01*
G01*
X8369300Y-4635500D02*
G75*
G03X8369300Y-4635500I-50800J0D01*
G01*
X8369300Y-4889500D02*
G75*
G03X8369300Y-4889500I-50800J0D01*
G01*
X8369300Y-5143500D02*
G75*
G03X8369300Y-5143500I-50800J0D01*
G01*
X8369300Y-5397500D02*
G75*
G03X8369300Y-5397500I-50800J0D01*
G01*
X8369300Y-5651500D02*
G75*
G03X8369300Y-5651500I-50800J0D01*
G01*
X8369300Y-5905500D02*
G75*
G03X8369300Y-5905500I-50800J0D01*
G01*
X8369300Y-6159500D02*
G75*
G03X8369300Y-6159500I-50800J0D01*
G01*
X8559800Y-2730500D02*
G75*
G03X8559800Y-2730500I-50800J0D01*
G01*
X8559800Y-2984500D02*
G75*
G03X8559800Y-2984500I-50800J0D01*
G01*
X8559800Y-7556500D02*
G75*
G03X8559800Y-7556500I-50800J0D01*
G01*
X8559800Y-7810500D02*
G75*
G03X8559800Y-7810500I-50800J0D01*
G01*
X8813800Y-2730500D02*
G75*
G03X8813800Y-2730500I-50800J0D01*
G01*
X8813800Y-2984500D02*
G75*
G03X8813800Y-2984500I-50800J0D01*
G01*
X8813800Y-7556500D02*
G75*
G03X8813800Y-7556500I-50800J0D01*
G01*
X8813800Y-7810500D02*
G75*
G03X8813800Y-7810500I-50800J0D01*
G01*
X8940800Y-3429000D02*
G75*
G03X8940800Y-3429000I-50800J0D01*
G01*
X9067800Y-2730500D02*
G75*
G03X9067800Y-2730500I-50800J0D01*
G01*
X9067800Y-2984500D02*
G75*
G03X9067800Y-2984500I-50800J0D01*
G01*
X9067800Y-7556500D02*
G75*
G03X9067800Y-7556500I-50800J0D01*
G01*
X9067800Y-7810500D02*
G75*
G03X9067800Y-7810500I-50800J0D01*
G01*
X9194800Y-3429000D02*
G75*
G03X9194800Y-3429000I-50800J0D01*
G01*
X9321800Y-2730500D02*
G75*
G03X9321800Y-2730500I-50800J0D01*
G01*
X9321800Y-2984500D02*
G75*
G03X9321800Y-2984500I-50800J0D01*
G01*
X9321800Y-7556500D02*
G75*
G03X9321800Y-7556500I-50800J0D01*
G01*
X9321800Y-7810500D02*
G75*
G03X9321800Y-7810500I-50800J0D01*
G01*
X9448800Y-3429000D02*
G75*
G03X9448800Y-3429000I-50800J0D01*
G01*
X9575800Y-2730500D02*
G75*
G03X9575800Y-2730500I-50800J0D01*
G01*
X9575800Y-2984500D02*
G75*
G03X9575800Y-2984500I-50800J0D01*
G01*
X9575800Y-7556500D02*
G75*
G03X9575800Y-7556500I-50800J0D01*
G01*
X9575800Y-7810500D02*
G75*
G03X9575800Y-7810500I-50800J0D01*
G01*
X9702800Y-3429000D02*
G75*
G03X9702800Y-3429000I-50800J0D01*
G01*
X9829800Y-2730500D02*
G75*
G03X9829800Y-2730500I-50800J0D01*
G01*
X9829800Y-2984500D02*
G75*
G03X9829800Y-2984500I-50800J0D01*
G01*
X9829800Y-7556500D02*
G75*
G03X9829800Y-7556500I-50800J0D01*
G01*
X9829800Y-7810500D02*
G75*
G03X9829800Y-7810500I-50800J0D01*
G01*
X10083800Y-2730500D02*
G75*
G03X10083800Y-2730500I-50800J0D01*
G01*
X10083800Y-2984500D02*
G75*
G03X10083800Y-2984500I-50800J0D01*
G01*
X10083800Y-7556500D02*
G75*
G03X10083800Y-7556500I-50800J0D01*
G01*
X10083800Y-7810500D02*
G75*
G03X10083800Y-7810500I-50800J0D01*
G01*
X10274300Y-3556000D02*
G75*
G03X10274300Y-3556000I-50800J0D01*
G01*
X10274300Y-3810000D02*
G75*
G03X10274300Y-3810000I-50800J0D01*
G01*
X10274300Y-4064000D02*
G75*
G03X10274300Y-4064000I-50800J0D01*
G01*
X10337800Y-6413500D02*
G75*
G03X10337800Y-6413500I-50800J0D01*
G01*
X10337800Y-6667500D02*
G75*
G03X10337800Y-6667500I-50800J0D01*
G01*
X10337800Y-6921500D02*
G75*
G03X10337800Y-6921500I-50800J0D01*
G01*
X10718800Y-4762500D02*
G75*
G03X10718800Y-4762500I-50800J0D01*
G01*
X10718800Y-5016500D02*
G75*
G03X10718800Y-5016500I-50800J0D01*
G01*
X10718800Y-5270500D02*
G75*
G03X10718800Y-5270500I-50800J0D01*
G01*
X10718800Y-5524500D02*
G75*
G03X10718800Y-5524500I-50800J0D01*
G01*
X10718800Y-5778500D02*
G75*
G03X10718800Y-5778500I-50800J0D01*
G01*
X10845800Y-3556000D02*
G75*
G03X10845800Y-3556000I-50800J0D01*
G01*
X10845800Y-3810000D02*
G75*
G03X10845800Y-3810000I-50800J0D01*
G01*
X10845800Y-4064000D02*
G75*
G03X10845800Y-4064000I-50800J0D01*
G01*
X10845800Y-6413500D02*
G75*
G03X10845800Y-6413500I-50800J0D01*
G01*
X10845800Y-6667500D02*
G75*
G03X10845800Y-6667500I-50800J0D01*
G01*
X10845800Y-6921500D02*
G75*
G03X10845800Y-6921500I-50800J0D01*
G01*
X10972800Y-4762500D02*
G75*
G03X10972800Y-4762500I-50800J0D01*
G01*
X10972800Y-5016500D02*
G75*
G03X10972800Y-5016500I-50800J0D01*
G01*
X10972800Y-5270500D02*
G75*
G03X10972800Y-5270500I-50800J0D01*
G01*
X10972800Y-5524500D02*
G75*
G03X10972800Y-5524500I-50800J0D01*
G01*
X10972800Y-5778500D02*
G75*
G03X10972800Y-5778500I-50800J0D01*
G01*
D13*
X2800761Y-8475801D02*
X2800761Y-8175801D01*
X2872190Y-8175801D01*
X2915047Y-8190087D01*
X2943618Y-8218658D01*
X2957904Y-8247229D01*
X2972190Y-8304372D01*
X2972190Y-8347229D01*
X2957904Y-8404372D01*
X2943618Y-8432944D01*
X2915047Y-8461515D01*
X2872190Y-8475801D01*
X2800761Y-8475801D01*
X3100761Y-8475801D02*
X3100761Y-8275801D01*
X3100761Y-8332944D02*
X3115047Y-8304372D01*
X3129333Y-8290087D01*
X3157904Y-8275801D01*
X3186476Y-8275801D01*
X3286476Y-8475801D02*
X3286476Y-8275801D01*
X3286476Y-8175801D02*
X3272190Y-8190087D01*
X3286476Y-8204372D01*
X3300761Y-8190087D01*
X3286476Y-8175801D01*
X3286476Y-8204372D01*
X3472190Y-8475801D02*
X3443618Y-8461515D01*
X3429333Y-8432944D01*
X3429333Y-8175801D01*
X3629333Y-8475801D02*
X3600761Y-8461515D01*
X3586476Y-8432944D01*
X3586476Y-8175801D01*
X3972190Y-8475801D02*
X3972190Y-8175801D01*
X4072190Y-8390087D01*
X4172190Y-8175801D01*
X4172190Y-8475801D01*
X4443619Y-8475801D02*
X4443619Y-8318658D01*
X4429333Y-8290087D01*
X4400761Y-8275801D01*
X4343619Y-8275801D01*
X4315047Y-8290087D01*
X4443619Y-8461515D02*
X4415047Y-8475801D01*
X4343619Y-8475801D01*
X4315047Y-8461515D01*
X4300761Y-8432944D01*
X4300761Y-8404372D01*
X4315047Y-8375801D01*
X4343619Y-8361515D01*
X4415047Y-8361515D01*
X4443619Y-8347229D01*
X4586476Y-8275801D02*
X4586476Y-8575801D01*
X4586476Y-8290087D02*
X4615047Y-8275801D01*
X4672190Y-8275801D01*
X4700761Y-8290087D01*
X4715047Y-8304372D01*
X4729333Y-8332944D01*
X4729333Y-8418658D01*
X4715047Y-8447230D01*
X4700761Y-8461515D01*
X4672190Y-8475801D01*
X4615047Y-8475801D01*
X4586476Y-8461515D01*
X4857904Y-8447230D02*
X4872190Y-8461515D01*
X4857904Y-8475801D01*
X4843619Y-8461515D01*
X4857904Y-8447230D01*
X4857904Y-8475801D01*
X4857904Y-8290087D02*
X4872190Y-8304372D01*
X4857904Y-8318658D01*
X4843619Y-8304372D01*
X4857904Y-8290087D01*
X4857904Y-8318658D01*
X2489333Y-8950087D02*
X2529333Y-8990087D01*
X2529333Y-8950087D02*
X2489333Y-8990087D01*
X2857904Y-8805801D02*
X2886476Y-8805801D01*
X2915047Y-8820087D01*
X2929333Y-8834372D01*
X2943618Y-8862944D01*
X2957904Y-8920087D01*
X2957904Y-8991515D01*
X2943618Y-9048658D01*
X2929333Y-9077230D01*
X2915047Y-9091515D01*
X2886476Y-9105801D01*
X2857904Y-9105801D01*
X2829333Y-9091515D01*
X2815047Y-9077230D01*
X2800761Y-9048658D01*
X2786476Y-8991515D01*
X2786476Y-8920087D01*
X2800761Y-8862944D01*
X2815047Y-8834372D01*
X2829333Y-8820087D01*
X2857904Y-8805801D01*
X3086476Y-9077230D02*
X3100761Y-9091515D01*
X3086476Y-9105801D01*
X3072190Y-9091515D01*
X3086476Y-9077230D01*
X3086476Y-9105801D01*
X3357904Y-8905801D02*
X3357904Y-9105801D01*
X3286476Y-8791515D02*
X3215047Y-9005801D01*
X3400761Y-9005801D01*
X3572190Y-8805801D02*
X3600761Y-8805801D01*
X3629333Y-8820087D01*
X3643618Y-8834372D01*
X3657904Y-8862944D01*
X3672190Y-8920087D01*
X3672190Y-8991515D01*
X3657904Y-9048658D01*
X3643618Y-9077230D01*
X3629333Y-9091515D01*
X3600761Y-9105801D01*
X3572190Y-9105801D01*
X3543618Y-9091515D01*
X3529333Y-9077230D01*
X3515047Y-9048658D01*
X3500761Y-8991515D01*
X3500761Y-8920087D01*
X3515047Y-8862944D01*
X3529333Y-8834372D01*
X3543618Y-8820087D01*
X3572190Y-8805801D01*
X3800761Y-9105801D02*
X3800761Y-8905801D01*
X3800761Y-8934372D02*
X3815047Y-8920087D01*
X3843618Y-8905801D01*
X3886476Y-8905801D01*
X3915047Y-8920087D01*
X3929333Y-8948658D01*
X3929333Y-9105801D01*
X3929333Y-8948658D02*
X3943618Y-8920087D01*
X3972190Y-8905801D01*
X4015047Y-8905801D01*
X4043618Y-8920087D01*
X4057904Y-8948658D01*
X4057904Y-9105801D01*
X4200761Y-9105801D02*
X4200761Y-8905801D01*
X4200761Y-8934372D02*
X4215047Y-8920087D01*
X4243619Y-8905801D01*
X4286476Y-8905801D01*
X4315047Y-8920087D01*
X4329333Y-8948658D01*
X4329333Y-9105801D01*
X4329333Y-8948658D02*
X4343619Y-8920087D01*
X4372190Y-8905801D01*
X4415047Y-8905801D01*
X4443619Y-8920087D01*
X4457904Y-8948658D01*
X4457904Y-9105801D01*
X5043619Y-8791515D02*
X4786476Y-9177230D01*
X5429333Y-8805801D02*
X5457904Y-8805801D01*
X5486476Y-8820087D01*
X5500761Y-8834372D01*
X5515047Y-8862944D01*
X5529333Y-8920087D01*
X5529333Y-8991515D01*
X5515047Y-9048658D01*
X5500761Y-9077230D01*
X5486476Y-9091515D01*
X5457904Y-9105801D01*
X5429333Y-9105801D01*
X5400761Y-9091515D01*
X5386476Y-9077230D01*
X5372190Y-9048658D01*
X5357904Y-8991515D01*
X5357904Y-8920087D01*
X5372190Y-8862944D01*
X5386476Y-8834372D01*
X5400761Y-8820087D01*
X5429333Y-8805801D01*
X5657904Y-9077230D02*
X5672190Y-9091515D01*
X5657904Y-9105801D01*
X5643618Y-9091515D01*
X5657904Y-9077230D01*
X5657904Y-9105801D01*
X5857904Y-8805801D02*
X5886476Y-8805801D01*
X5915047Y-8820087D01*
X5929333Y-8834372D01*
X5943618Y-8862944D01*
X5957904Y-8920087D01*
X5957904Y-8991515D01*
X5943618Y-9048658D01*
X5929333Y-9077230D01*
X5915047Y-9091515D01*
X5886476Y-9105801D01*
X5857904Y-9105801D01*
X5829333Y-9091515D01*
X5815047Y-9077230D01*
X5800761Y-9048658D01*
X5786476Y-8991515D01*
X5786476Y-8920087D01*
X5800761Y-8862944D01*
X5815047Y-8834372D01*
X5829333Y-8820087D01*
X5857904Y-8805801D01*
X6243618Y-9105801D02*
X6072190Y-9105801D01*
X6157904Y-9105801D02*
X6157904Y-8805801D01*
X6129333Y-8848658D01*
X6100761Y-8877230D01*
X6072190Y-8891515D01*
X6500761Y-8805801D02*
X6443618Y-8805801D01*
X6415047Y-8820087D01*
X6400761Y-8834372D01*
X6372190Y-8877230D01*
X6357904Y-8934372D01*
X6357904Y-9048658D01*
X6372190Y-9077230D01*
X6386476Y-9091515D01*
X6415047Y-9105801D01*
X6472190Y-9105801D01*
X6500761Y-9091515D01*
X6515047Y-9077230D01*
X6529333Y-9048658D01*
X6529333Y-8977230D01*
X6515047Y-8948658D01*
X6500761Y-8934372D01*
X6472190Y-8920087D01*
X6415047Y-8920087D01*
X6386476Y-8934372D01*
X6372190Y-8948658D01*
X6357904Y-8977230D01*
X6643618Y-8805801D02*
X6643618Y-8862944D01*
X6757904Y-8805801D02*
X6757904Y-8862944D01*
X7200761Y-9220087D02*
X7186475Y-9205801D01*
X7157904Y-9162944D01*
X7143618Y-9134372D01*
X7129333Y-9091515D01*
X7115047Y-9020087D01*
X7115047Y-8962944D01*
X7129333Y-8891515D01*
X7143618Y-8848658D01*
X7157904Y-8820087D01*
X7186475Y-8777230D01*
X7200761Y-8762944D01*
X7472190Y-9105801D02*
X7300761Y-9105801D01*
X7386475Y-9105801D02*
X7386475Y-8805801D01*
X7357904Y-8848658D01*
X7329333Y-8877230D01*
X7300761Y-8891515D01*
X7572190Y-8805801D02*
X7772190Y-8805801D01*
X7643618Y-9105801D01*
X8115047Y-9105801D02*
X8115047Y-8805801D01*
X8243618Y-9105801D02*
X8243618Y-8948658D01*
X8229333Y-8920087D01*
X8200761Y-8905801D01*
X8157904Y-8905801D01*
X8129333Y-8920087D01*
X8115047Y-8934372D01*
X8429333Y-9105801D02*
X8400761Y-9091515D01*
X8386476Y-9077230D01*
X8372190Y-9048658D01*
X8372190Y-8962944D01*
X8386476Y-8934372D01*
X8400761Y-8920087D01*
X8429333Y-8905801D01*
X8472190Y-8905801D01*
X8500761Y-8920087D01*
X8515047Y-8934372D01*
X8529333Y-8962944D01*
X8529333Y-9048658D01*
X8515047Y-9077230D01*
X8500761Y-9091515D01*
X8472190Y-9105801D01*
X8429333Y-9105801D01*
X8700761Y-9105801D02*
X8672190Y-9091515D01*
X8657904Y-9062944D01*
X8657904Y-8805801D01*
X8929333Y-9091515D02*
X8900761Y-9105801D01*
X8843619Y-9105801D01*
X8815047Y-9091515D01*
X8800761Y-9062944D01*
X8800761Y-8948658D01*
X8815047Y-8920087D01*
X8843619Y-8905801D01*
X8900761Y-8905801D01*
X8929333Y-8920087D01*
X8943619Y-8948658D01*
X8943619Y-8977230D01*
X8800761Y-9005801D01*
X9057904Y-9091515D02*
X9086476Y-9105801D01*
X9143619Y-9105801D01*
X9172190Y-9091515D01*
X9186476Y-9062944D01*
X9186476Y-9048658D01*
X9172190Y-9020087D01*
X9143619Y-9005801D01*
X9100761Y-9005801D01*
X9072190Y-8991515D01*
X9057904Y-8962944D01*
X9057904Y-8948658D01*
X9072190Y-8920087D01*
X9100761Y-8905801D01*
X9143619Y-8905801D01*
X9172190Y-8920087D01*
X9286476Y-9220087D02*
X9300761Y-9205801D01*
X9329333Y-9162944D01*
X9343619Y-9134372D01*
X9357904Y-9091515D01*
X9372190Y-9020087D01*
X9372190Y-8962944D01*
X9357904Y-8891515D01*
X9343619Y-8848658D01*
X9329333Y-8820087D01*
X9300761Y-8777230D01*
X9286476Y-8762944D01*
X2529333Y-9366087D02*
G75*
G03X2529333Y-9366087I-50800J0D01*
G01*
X2957904Y-9501801D02*
X2786476Y-9501801D01*
X2872190Y-9501801D02*
X2872190Y-9201801D01*
X2843618Y-9244658D01*
X2815047Y-9273230D01*
X2786476Y-9287515D01*
X3086476Y-9473230D02*
X3100761Y-9487515D01*
X3086476Y-9501801D01*
X3072190Y-9487515D01*
X3086476Y-9473230D01*
X3086476Y-9501801D01*
X3286476Y-9201801D02*
X3315047Y-9201801D01*
X3343618Y-9216087D01*
X3357904Y-9230372D01*
X3372190Y-9258944D01*
X3386476Y-9316087D01*
X3386476Y-9387515D01*
X3372190Y-9444658D01*
X3357904Y-9473230D01*
X3343618Y-9487515D01*
X3315047Y-9501801D01*
X3286476Y-9501801D01*
X3257904Y-9487515D01*
X3243618Y-9473230D01*
X3229333Y-9444658D01*
X3215047Y-9387515D01*
X3215047Y-9316087D01*
X3229333Y-9258944D01*
X3243618Y-9230372D01*
X3257904Y-9216087D01*
X3286476Y-9201801D01*
X3500761Y-9230372D02*
X3515047Y-9216087D01*
X3543618Y-9201801D01*
X3615047Y-9201801D01*
X3643618Y-9216087D01*
X3657904Y-9230372D01*
X3672190Y-9258944D01*
X3672190Y-9287515D01*
X3657904Y-9330372D01*
X3486476Y-9501801D01*
X3672190Y-9501801D01*
X3800761Y-9501801D02*
X3800761Y-9301801D01*
X3800761Y-9330372D02*
X3815047Y-9316087D01*
X3843618Y-9301801D01*
X3886476Y-9301801D01*
X3915047Y-9316087D01*
X3929333Y-9344658D01*
X3929333Y-9501801D01*
X3929333Y-9344658D02*
X3943618Y-9316087D01*
X3972190Y-9301801D01*
X4015047Y-9301801D01*
X4043618Y-9316087D01*
X4057904Y-9344658D01*
X4057904Y-9501801D01*
X4200761Y-9501801D02*
X4200761Y-9301801D01*
X4200761Y-9330372D02*
X4215047Y-9316087D01*
X4243619Y-9301801D01*
X4286476Y-9301801D01*
X4315047Y-9316087D01*
X4329333Y-9344658D01*
X4329333Y-9501801D01*
X4329333Y-9344658D02*
X4343619Y-9316087D01*
X4372190Y-9301801D01*
X4415047Y-9301801D01*
X4443619Y-9316087D01*
X4457904Y-9344658D01*
X4457904Y-9501801D01*
X5043619Y-9187515D02*
X4786476Y-9573230D01*
X5429333Y-9201801D02*
X5457904Y-9201801D01*
X5486476Y-9216087D01*
X5500761Y-9230372D01*
X5515047Y-9258944D01*
X5529333Y-9316087D01*
X5529333Y-9387515D01*
X5515047Y-9444658D01*
X5500761Y-9473230D01*
X5486476Y-9487515D01*
X5457904Y-9501801D01*
X5429333Y-9501801D01*
X5400761Y-9487515D01*
X5386476Y-9473230D01*
X5372190Y-9444658D01*
X5357904Y-9387515D01*
X5357904Y-9316087D01*
X5372190Y-9258944D01*
X5386476Y-9230372D01*
X5400761Y-9216087D01*
X5429333Y-9201801D01*
X5657904Y-9473230D02*
X5672190Y-9487515D01*
X5657904Y-9501801D01*
X5643618Y-9487515D01*
X5657904Y-9473230D01*
X5657904Y-9501801D01*
X5857904Y-9201801D02*
X5886476Y-9201801D01*
X5915047Y-9216087D01*
X5929333Y-9230372D01*
X5943618Y-9258944D01*
X5957904Y-9316087D01*
X5957904Y-9387515D01*
X5943618Y-9444658D01*
X5929333Y-9473230D01*
X5915047Y-9487515D01*
X5886476Y-9501801D01*
X5857904Y-9501801D01*
X5829333Y-9487515D01*
X5815047Y-9473230D01*
X5800761Y-9444658D01*
X5786476Y-9387515D01*
X5786476Y-9316087D01*
X5800761Y-9258944D01*
X5815047Y-9230372D01*
X5829333Y-9216087D01*
X5857904Y-9201801D01*
X6215047Y-9301801D02*
X6215047Y-9501801D01*
X6143618Y-9187515D02*
X6072190Y-9401801D01*
X6257904Y-9401801D01*
X6429333Y-9201801D02*
X6457904Y-9201801D01*
X6486476Y-9216087D01*
X6500761Y-9230372D01*
X6515047Y-9258944D01*
X6529333Y-9316087D01*
X6529333Y-9387515D01*
X6515047Y-9444658D01*
X6500761Y-9473230D01*
X6486476Y-9487515D01*
X6457904Y-9501801D01*
X6429333Y-9501801D01*
X6400761Y-9487515D01*
X6386476Y-9473230D01*
X6372190Y-9444658D01*
X6357904Y-9387515D01*
X6357904Y-9316087D01*
X6372190Y-9258944D01*
X6386476Y-9230372D01*
X6400761Y-9216087D01*
X6429333Y-9201801D01*
X6643618Y-9201801D02*
X6643618Y-9258944D01*
X6757904Y-9201801D02*
X6757904Y-9258944D01*
X7200761Y-9616087D02*
X7186475Y-9601801D01*
X7157904Y-9558944D01*
X7143618Y-9530372D01*
X7129333Y-9487515D01*
X7115047Y-9416087D01*
X7115047Y-9358944D01*
X7129333Y-9287515D01*
X7143618Y-9244658D01*
X7157904Y-9216087D01*
X7186475Y-9173230D01*
X7200761Y-9158944D01*
X7472190Y-9501801D02*
X7300761Y-9501801D01*
X7386475Y-9501801D02*
X7386475Y-9201801D01*
X7357904Y-9244658D01*
X7329333Y-9273230D01*
X7300761Y-9287515D01*
X7572190Y-9201801D02*
X7757904Y-9201801D01*
X7657904Y-9316087D01*
X7700761Y-9316087D01*
X7729333Y-9330372D01*
X7743618Y-9344658D01*
X7757904Y-9373230D01*
X7757904Y-9444658D01*
X7743618Y-9473230D01*
X7729333Y-9487515D01*
X7700761Y-9501801D01*
X7615047Y-9501801D01*
X7586476Y-9487515D01*
X7572190Y-9473230D01*
X7872190Y-9230372D02*
X7886476Y-9216087D01*
X7915047Y-9201801D01*
X7986476Y-9201801D01*
X8015047Y-9216087D01*
X8029333Y-9230372D01*
X8043618Y-9258944D01*
X8043618Y-9287515D01*
X8029333Y-9330372D01*
X7857904Y-9501801D01*
X8043618Y-9501801D01*
X8400761Y-9501801D02*
X8400761Y-9201801D01*
X8529333Y-9501801D02*
X8529333Y-9344658D01*
X8515047Y-9316087D01*
X8486476Y-9301801D01*
X8443618Y-9301801D01*
X8415047Y-9316087D01*
X8400761Y-9330372D01*
X8715047Y-9501801D02*
X8686476Y-9487515D01*
X8672190Y-9473230D01*
X8657904Y-9444658D01*
X8657904Y-9358944D01*
X8672190Y-9330372D01*
X8686476Y-9316087D01*
X8715047Y-9301801D01*
X8757904Y-9301801D01*
X8786476Y-9316087D01*
X8800761Y-9330372D01*
X8815047Y-9358944D01*
X8815047Y-9444658D01*
X8800761Y-9473230D01*
X8786476Y-9487515D01*
X8757904Y-9501801D01*
X8715047Y-9501801D01*
X8986476Y-9501801D02*
X8957904Y-9487515D01*
X8943619Y-9458944D01*
X8943619Y-9201801D01*
X9215047Y-9487515D02*
X9186476Y-9501801D01*
X9129333Y-9501801D01*
X9100761Y-9487515D01*
X9086476Y-9458944D01*
X9086476Y-9344658D01*
X9100761Y-9316087D01*
X9129333Y-9301801D01*
X9186476Y-9301801D01*
X9215047Y-9316087D01*
X9229333Y-9344658D01*
X9229333Y-9373230D01*
X9086476Y-9401801D01*
X9343619Y-9487515D02*
X9372190Y-9501801D01*
X9429333Y-9501801D01*
X9457904Y-9487515D01*
X9472190Y-9458944D01*
X9472190Y-9444658D01*
X9457904Y-9416087D01*
X9429333Y-9401801D01*
X9386476Y-9401801D01*
X9357904Y-9387515D01*
X9343619Y-9358944D01*
X9343619Y-9344658D01*
X9357904Y-9316087D01*
X9386476Y-9301801D01*
X9429333Y-9301801D01*
X9457904Y-9316087D01*
X9572190Y-9616087D02*
X9586476Y-9601801D01*
X9615047Y-9558944D01*
X9629333Y-9530372D01*
X9643619Y-9487515D01*
X9657904Y-9416087D01*
X9657904Y-9358944D01*
X9643619Y-9287515D01*
X9629333Y-9244658D01*
X9615047Y-9216087D01*
X9586476Y-9173230D01*
X9572190Y-9158944D01*
M02*
