G04 #@! TF.FileFunction,Legend,Bot*
%FSLAX46Y46*%
G04 Gerber Fmt 4.6, Leading zero omitted, Abs format (unit mm)*
G04 Created by KiCad (PCBNEW 4.0.3-1.fc24-product) date Sun Feb 19 21:37:44 2017*
%MOMM*%
%LPD*%
G01*
G04 APERTURE LIST*
%ADD10C,0.100000*%
%ADD11C,0.150000*%
G04 APERTURE END LIST*
D10*
D11*
X56755000Y-50130000D02*
X56755000Y-48930000D01*
X55005000Y-48930000D02*
X55005000Y-50130000D01*
X63670000Y-43780000D02*
X63670000Y-43925000D01*
X59520000Y-43780000D02*
X59520000Y-43925000D01*
X59520000Y-48930000D02*
X59520000Y-48785000D01*
X63670000Y-48930000D02*
X63670000Y-48785000D01*
X63670000Y-43780000D02*
X59520000Y-43780000D01*
X63670000Y-48930000D02*
X59520000Y-48930000D01*
X63670000Y-43925000D02*
X65070000Y-43925000D01*
X54232381Y-49363334D02*
X53756190Y-49030000D01*
X54232381Y-48791905D02*
X53232381Y-48791905D01*
X53232381Y-49172858D01*
X53280000Y-49268096D01*
X53327619Y-49315715D01*
X53422857Y-49363334D01*
X53565714Y-49363334D01*
X53660952Y-49315715D01*
X53708571Y-49268096D01*
X53756190Y-49172858D01*
X53756190Y-48791905D01*
X53660952Y-49934762D02*
X53613333Y-49839524D01*
X53565714Y-49791905D01*
X53470476Y-49744286D01*
X53422857Y-49744286D01*
X53327619Y-49791905D01*
X53280000Y-49839524D01*
X53232381Y-49934762D01*
X53232381Y-50125239D01*
X53280000Y-50220477D01*
X53327619Y-50268096D01*
X53422857Y-50315715D01*
X53470476Y-50315715D01*
X53565714Y-50268096D01*
X53613333Y-50220477D01*
X53660952Y-50125239D01*
X53660952Y-49934762D01*
X53708571Y-49839524D01*
X53756190Y-49791905D01*
X53851429Y-49744286D01*
X54041905Y-49744286D01*
X54137143Y-49791905D01*
X54184762Y-49839524D01*
X54232381Y-49934762D01*
X54232381Y-50125239D01*
X54184762Y-50220477D01*
X54137143Y-50268096D01*
X54041905Y-50315715D01*
X53851429Y-50315715D01*
X53756190Y-50268096D01*
X53708571Y-50220477D01*
X53660952Y-50125239D01*
X62356905Y-42307381D02*
X62356905Y-43116905D01*
X62309286Y-43212143D01*
X62261667Y-43259762D01*
X62166429Y-43307381D01*
X61975952Y-43307381D01*
X61880714Y-43259762D01*
X61833095Y-43212143D01*
X61785476Y-43116905D01*
X61785476Y-42307381D01*
X61356905Y-42402619D02*
X61309286Y-42355000D01*
X61214048Y-42307381D01*
X60975952Y-42307381D01*
X60880714Y-42355000D01*
X60833095Y-42402619D01*
X60785476Y-42497857D01*
X60785476Y-42593095D01*
X60833095Y-42735952D01*
X61404524Y-43307381D01*
X60785476Y-43307381D01*
M02*
