M48
;DRILL file {KiCad 4.0.3-1.fc24-product} date Sun Feb 19 21:38:01 2017
;FORMAT={-:-/ absolute / inch / decimal}
FMAT,2
INCH,TZ
T1C0.016
T2C0.040
%
G90
G05
M72
T1
X2.15Y-1.7
X2.175Y-1.75
X2.25Y-1.8
X2.275Y-1.75
X2.525Y-1.95
X2.6Y-1.85
X2.625Y-1.8
X2.65Y-1.425
X2.675Y-1.725
X2.75Y-2.8
X2.875Y-2.8
X2.9Y-1.725
X3.5Y-2.225
X3.625Y-2.625
X4.Y-1.9
X4.Y-2.275
X4.125Y-1.725
T2
X1.1Y-1.35
X1.1Y-1.45
X1.1Y-2.6
X1.1Y-2.7
X1.75Y-1.075
X1.75Y-1.175
X1.75Y-2.975
X1.75Y-3.075
X1.85Y-1.075
X1.85Y-1.175
X1.85Y-2.975
X1.85Y-3.075
X1.95Y-1.075
X1.95Y-1.175
X1.95Y-2.975
X1.95Y-3.075
X2.05Y-1.075
X2.05Y-1.175
X2.05Y-2.975
X2.05Y-3.075
X2.15Y-1.075
X2.15Y-1.175
X2.15Y-2.975
X2.15Y-3.075
X2.25Y-1.075
X2.25Y-1.175
X2.25Y-2.975
X2.25Y-3.075
X2.35Y-1.075
X2.35Y-1.175
X2.35Y-2.975
X2.35Y-3.075
X2.45Y-1.075
X2.45Y-1.175
X2.45Y-2.975
X2.45Y-3.075
X2.55Y-1.075
X2.55Y-1.175
X2.55Y-2.975
X2.55Y-3.075
X2.65Y-1.075
X2.65Y-1.175
X2.65Y-2.975
X2.65Y-3.075
X2.75Y-1.075
X2.75Y-1.175
X2.75Y-2.975
X2.75Y-3.075
X2.85Y-1.075
X2.85Y-1.175
X2.85Y-2.975
X2.85Y-3.075
X2.95Y-1.075
X2.95Y-1.175
X2.95Y-2.975
X2.95Y-3.075
X3.05Y-1.075
X3.05Y-1.175
X3.05Y-2.975
X3.05Y-3.075
X3.15Y-1.075
X3.15Y-1.175
X3.15Y-2.975
X3.15Y-3.075
X3.25Y-1.075
X3.25Y-1.175
X3.25Y-2.975
X3.25Y-3.075
X3.275Y-1.525
X3.275Y-1.625
X3.275Y-1.725
X3.275Y-1.825
X3.275Y-1.925
X3.275Y-2.025
X3.275Y-2.125
X3.275Y-2.225
X3.275Y-2.325
X3.275Y-2.425
X3.35Y-1.075
X3.35Y-1.175
X3.35Y-2.975
X3.35Y-3.075
X3.45Y-1.075
X3.45Y-1.175
X3.45Y-2.975
X3.45Y-3.075
X3.5Y-1.35
X3.55Y-1.075
X3.55Y-1.175
X3.55Y-2.975
X3.55Y-3.075
X3.6Y-1.35
X3.65Y-1.075
X3.65Y-1.175
X3.65Y-2.975
X3.65Y-3.075
X3.7Y-1.35
X3.75Y-1.075
X3.75Y-1.175
X3.75Y-2.975
X3.75Y-3.075
X3.8Y-1.35
X3.85Y-1.075
X3.85Y-1.175
X3.85Y-2.975
X3.85Y-3.075
X3.95Y-1.075
X3.95Y-1.175
X3.95Y-2.975
X3.95Y-3.075
X4.025Y-1.4
X4.025Y-1.5
X4.025Y-1.6
X4.05Y-2.525
X4.05Y-2.625
X4.05Y-2.725
X4.2Y-1.875
X4.2Y-1.975
X4.2Y-2.075
X4.2Y-2.175
X4.2Y-2.275
X4.25Y-1.4
X4.25Y-1.5
X4.25Y-1.6
X4.25Y-2.525
X4.25Y-2.625
X4.25Y-2.725
X4.3Y-1.875
X4.3Y-1.975
X4.3Y-2.075
X4.3Y-2.175
X4.3Y-2.275
T0
M30
